STARTFONT 2.1
COMMENT
COMMENT Converted from OpenType font "ChivoMono-Regular.ttf" by "otf2bdf 3.0".
COMMENT
FONT -FreeType-chivo mono-Medium-R-Normal--25-180-100-100-P-118-ISO10646-1
SIZE 18 100 100
FONTBOUNDINGBOX 18 36 -1 -8
STARTPROPERTIES 19
FOUNDRY "FreeType"
FAMILY_NAME "chivo mono"
WEIGHT_NAME "Medium"
SLANT "R"
SETWIDTH_NAME "Normal"
ADD_STYLE_NAME ""
PIXEL_SIZE 25
POINT_SIZE 180
RESOLUTION_X 100
RESOLUTION_Y 100
SPACING "P"
AVERAGE_WIDTH 118
CHARSET_REGISTRY "ISO10646"
CHARSET_ENCODING "1"
FONT_ASCENT 23
FONT_DESCENT 6
COPYRIGHT "Copyright 2018 The Chivo Project Authors (https://github.com/Omnibus-Type/Chivo)"
_OTF_FONTFILE "ChivoMono-Regular.ttf"
_OTF_PSNAME "ChivoMono-Regular"
ENDPROPERTIES
CHARS 642
STARTCHAR 000D
ENCODING 13
SWIDTH 600 0
DWIDTH 15 0
BBX 0 0 0 0
BITMAP
ENDCHAR
STARTCHAR 0020
ENCODING 32
SWIDTH 600 0
DWIDTH 15 0
BBX 0 0 0 0
BITMAP
ENDCHAR
STARTCHAR 0021
ENCODING 33
SWIDTH 600 0
DWIDTH 15 0
BBX 3 17 6 0
BITMAP
E0
E0
E0
E0
E0
E0
E0
E0
E0
E0
40
40
00
00
E0
E0
E0
ENDCHAR
STARTCHAR 0022
ENCODING 34
SWIDTH 600 0
DWIDTH 15 0
BBX 5 7 5 10
BITMAP
D8
D8
D8
D8
D8
88
88
ENDCHAR
STARTCHAR 0023
ENCODING 35
SWIDTH 600 0
DWIDTH 15 0
BBX 15 17 0 0
BITMAP
0318
0618
0618
0618
0630
7FFE
7FFE
0C30
0C60
0C60
1860
FFFC
1860
18C0
30C0
30C0
30C0
ENDCHAR
STARTCHAR 0024
ENCODING 36
SWIDTH 600 0
DWIDTH 15 0
BBX 13 21 1 -2
BITMAP
0600
0200
0F80
3FE0
7070
6030
6030
7000
7C00
3F80
0FE0
01F0
0038
E038
E038
E038
7FF0
3FE0
0600
0200
0600
ENDCHAR
STARTCHAR 0025
ENCODING 37
SWIDTH 600 0
DWIDTH 15 0
BBX 15 17 0 0
BITMAP
7806
CC0C
C418
C430
C420
C460
CCC0
7C00
1018
007C
0666
0C46
0846
1046
3046
606E
C03C
ENDCHAR
STARTCHAR 0026
ENCODING 38
SWIDTH 600 0
DWIDTH 15 0
BBX 14 17 1 0
BITMAP
1F00
3F00
7000
6000
6030
6030
7070
3FFC
1FFC
7870
6070
E070
E070
E070
7070
7FF0
1FF0
ENDCHAR
STARTCHAR 0027
ENCODING 39
SWIDTH 600 0
DWIDTH 15 0
BBX 3 7 6 10
BITMAP
E0
E0
E0
E0
40
40
40
ENDCHAR
STARTCHAR 0028
ENCODING 40
SWIDTH 600 0
DWIDTH 15 0
BBX 6 21 5 -4
BITMAP
0C
18
30
30
70
60
60
60
E0
E0
E0
E0
E0
60
60
60
30
30
10
18
0C
ENDCHAR
STARTCHAR 0029
ENCODING 41
SWIDTH 600 0
DWIDTH 15 0
BBX 6 21 4 -4
BITMAP
C0
60
30
30
38
18
18
18
1C
1C
1C
1C
1C
18
18
18
30
30
20
60
C0
ENDCHAR
STARTCHAR 002A
ENCODING 42
SWIDTH 600 0
DWIDTH 15 0
BBX 11 10 2 7
BITMAP
0600
0400
4420
F5C0
7FE0
0E00
1B00
3B00
3180
1100
ENDCHAR
STARTCHAR 002B
ENCODING 43
SWIDTH 600 0
DWIDTH 15 0
BBX 13 13 1 0
BITMAP
0700
0700
0700
0700
0700
0700
FFF8
FFF8
0700
0700
0700
0700
0700
ENDCHAR
STARTCHAR 002C
ENCODING 44
SWIDTH 600 0
DWIDTH 15 0
BBX 3 7 6 -4
BITMAP
E0
E0
E0
60
60
40
C0
ENDCHAR
STARTCHAR 002D
ENCODING 45
SWIDTH 600 0
DWIDTH 15 0
BBX 7 2 4 6
BITMAP
FE
FE
ENDCHAR
STARTCHAR 002E
ENCODING 46
SWIDTH 600 0
DWIDTH 15 0
BBX 3 3 6 0
BITMAP
E0
E0
E0
ENDCHAR
STARTCHAR 002F
ENCODING 47
SWIDTH 600 0
DWIDTH 15 0
BBX 15 21 0 -4
BITMAP
000E
000C
0018
0038
0030
0060
0060
00C0
00C0
0180
0380
0300
0600
0600
0C00
0C00
1800
1800
3000
7000
E000
ENDCHAR
STARTCHAR 0030
ENCODING 48
SWIDTH 600 0
DWIDTH 15 0
BBX 11 17 2 0
BITMAP
3F80
7FC0
E0E0
C060
C060
C060
C060
C060
C060
C060
C060
C060
C060
E0E0
E0E0
7FC0
3F80
ENDCHAR
STARTCHAR 0031
ENCODING 49
SWIDTH 600 0
DWIDTH 15 0
BBX 12 17 2 0
BITMAP
0E00
FE00
FE00
0600
0600
0600
0600
0600
0600
0600
0600
0600
0600
0600
0600
FFF0
FFF0
ENDCHAR
STARTCHAR 0032
ENCODING 50
SWIDTH 600 0
DWIDTH 15 0
BBX 13 17 1 0
BITMAP
1FC0
3FE0
7070
6030
6030
6030
0030
0070
00E0
03C0
0780
1E00
3C00
7000
7000
7FF8
FFF8
ENDCHAR
STARTCHAR 0033
ENCODING 51
SWIDTH 600 0
DWIDTH 15 0
BBX 12 17 1 0
BITMAP
1FC0
3FE0
7070
6070
6030
0070
0060
0FC0
0FC0
00E0
0070
0030
E030
E030
7070
7FE0
1FC0
ENDCHAR
STARTCHAR 0034
ENCODING 52
SWIDTH 600 0
DWIDTH 15 0
BBX 13 17 1 0
BITMAP
0700
0600
0E60
0C60
1C60
18E0
38E0
30E0
70E0
60E0
C0E0
FFF8
FFF8
00E0
00E0
00E0
00E0
ENDCHAR
STARTCHAR 0035
ENCODING 53
SWIDTH 600 0
DWIDTH 15 0
BBX 12 17 2 0
BITMAP
7FE0
7FE0
6000
6000
6000
E000
EF80
FFC0
E0E0
40E0
0060
0070
C060
C0E0
E0E0
7FC0
3F80
ENDCHAR
STARTCHAR 0036
ENCODING 54
SWIDTH 600 0
DWIDTH 15 0
BBX 12 17 2 0
BITMAP
3F80
7FC0
E0E0
E060
C060
C000
C700
DFC0
F0E0
E060
C070
C070
C070
E060
70E0
7FC0
1F80
ENDCHAR
STARTCHAR 0037
ENCODING 55
SWIDTH 600 0
DWIDTH 15 0
BBX 12 17 2 0
BITMAP
FFF0
FFE0
00E0
00C0
0180
0380
0300
0600
0600
0E00
0C00
1C00
1C00
1800
1800
3800
3800
ENDCHAR
STARTCHAR 0038
ENCODING 56
SWIDTH 600 0
DWIDTH 15 0
BBX 13 17 1 0
BITMAP
1FC0
3DE0
7070
7070
6030
7070
3060
3FE0
1FC0
78E0
6030
6030
E038
6030
7070
3FE0
1FC0
ENDCHAR
STARTCHAR 0039
ENCODING 57
SWIDTH 600 0
DWIDTH 15 0
BBX 12 17 1 0
BITMAP
1FC0
3FE0
7070
E070
E030
E030
E070
6070
78F0
3FB0
0E30
0030
6030
6070
70E0
3FE0
1F80
ENDCHAR
STARTCHAR 003A
ENCODING 58
SWIDTH 600 0
DWIDTH 15 0
BBX 3 13 6 0
BITMAP
E0
E0
E0
00
00
00
00
00
00
00
E0
E0
E0
ENDCHAR
STARTCHAR 003B
ENCODING 59
SWIDTH 600 0
DWIDTH 15 0
BBX 3 17 6 -4
BITMAP
E0
E0
E0
00
00
00
00
00
00
00
E0
E0
E0
60
60
40
C0
ENDCHAR
STARTCHAR 003C
ENCODING 60
SWIDTH 600 0
DWIDTH 15 0
BBX 13 13 1 0
BITMAP
0008
0038
01F8
07C0
3F00
F800
C000
F000
7E00
0FC0
03F0
0078
0008
ENDCHAR
STARTCHAR 003D
ENCODING 61
SWIDTH 600 0
DWIDTH 15 0
BBX 13 7 1 3
BITMAP
FFF8
FFF8
0000
0000
0000
FFF8
FFF8
ENDCHAR
STARTCHAR 003E
ENCODING 62
SWIDTH 600 0
DWIDTH 15 0
BBX 13 13 1 0
BITMAP
8000
E000
FC00
1F00
07E0
00F8
0018
0078
03F0
0F80
7E00
F000
8000
ENDCHAR
STARTCHAR 003F
ENCODING 63
SWIDTH 600 0
DWIDTH 15 0
BBX 11 17 2 0
BITMAP
3F80
7FC0
60E0
E0E0
C0E0
E0E0
00E0
01C0
0380
0700
0600
0600
0000
0000
0E00
0E00
0E00
ENDCHAR
STARTCHAR 0040
ENCODING 64
SWIDTH 600 0
DWIDTH 15 0
BBX 15 21 0 -4
BITMAP
0FE0
1838
3008
600C
47C4
4FE6
CC66
CC66
C062
8062
87E2
8E66
DC66
DC66
DC66
4FFC
4FBC
6000
3000
1C60
0FE0
ENDCHAR
STARTCHAR 0041
ENCODING 65
SWIDTH 600 0
DWIDTH 15 0
BBX 15 17 0 0
BITMAP
0380
07C0
07C0
06C0
0EE0
0CE0
0C60
1C70
1C70
1830
3838
3FF8
3FF8
701C
701C
600C
E00E
ENDCHAR
STARTCHAR 0042
ENCODING 66
SWIDTH 600 0
DWIDTH 15 0
BBX 12 17 2 0
BITMAP
FFC0
FFE0
C0E0
C060
C060
C060
C0E0
FFC0
FFC0
C1E0
C070
C070
C070
C070
C0E0
FFE0
FF80
ENDCHAR
STARTCHAR 0043
ENCODING 67
SWIDTH 600 0
DWIDTH 15 0
BBX 13 17 1 0
BITMAP
1FC0
3FE0
7070
E030
E038
E038
E000
E000
E000
E000
E038
E038
E038
6030
7070
3FE0
1FC0
ENDCHAR
STARTCHAR 0044
ENCODING 68
SWIDTH 600 0
DWIDTH 15 0
BBX 13 17 2 0
BITMAP
FF80
FFE0
E0E0
E070
E030
E030
E038
E038
E038
E038
E038
E030
E030
E070
E0E0
FFC0
FF80
ENDCHAR
STARTCHAR 0045
ENCODING 69
SWIDTH 600 0
DWIDTH 15 0
BBX 12 17 2 0
BITMAP
FFE0
FFE0
E000
E000
E000
E000
E000
FFC0
FFC0
E000
E000
E000
E000
E000
E000
FFE0
FFF0
ENDCHAR
STARTCHAR 0046
ENCODING 70
SWIDTH 600 0
DWIDTH 15 0
BBX 11 17 2 0
BITMAP
FFE0
FFE0
E000
E000
E000
E000
E000
FFC0
FFC0
E000
E000
E000
E000
E000
E000
E000
E000
ENDCHAR
STARTCHAR 0047
ENCODING 71
SWIDTH 600 0
DWIDTH 15 0
BBX 13 17 1 0
BITMAP
1FC0
3FE0
7070
E038
E038
E038
E000
E000
E3F8
E3F8
E038
E038
E038
6038
7078
3FD8
1F98
ENDCHAR
STARTCHAR 0048
ENCODING 72
SWIDTH 600 0
DWIDTH 15 0
BBX 11 17 2 0
BITMAP
C060
C060
C060
C060
C060
C060
C060
FFE0
FFE0
C060
C060
C060
C060
C060
C060
C060
C060
ENDCHAR
STARTCHAR 0049
ENCODING 73
SWIDTH 600 0
DWIDTH 15 0
BBX 9 17 3 0
BITMAP
FF80
FF80
1C00
1C00
1C00
1C00
1C00
1C00
1C00
1C00
1C00
1C00
1C00
1C00
1C00
FF80
FF80
ENDCHAR
STARTCHAR 004A
ENCODING 74
SWIDTH 600 0
DWIDTH 15 0
BBX 11 17 2 0
BITMAP
00E0
00E0
00E0
00E0
00E0
00E0
00E0
00E0
00E0
00E0
00E0
00E0
E0E0
E0E0
61C0
7FC0
3F80
ENDCHAR
STARTCHAR 004B
ENCODING 75
SWIDTH 600 0
DWIDTH 15 0
BBX 13 17 2 0
BITMAP
C070
C0E0
C0C0
C1C0
C380
C700
CF00
CE00
DE00
FF00
F700
E380
C1C0
C1C0
C0E0
C070
C078
ENDCHAR
STARTCHAR 004C
ENCODING 76
SWIDTH 600 0
DWIDTH 15 0
BBX 10 17 3 0
BITMAP
C000
C000
C000
C000
C000
C000
C000
C000
C000
C000
C000
C000
C000
C000
C000
FFC0
FFC0
ENDCHAR
STARTCHAR 004D
ENCODING 77
SWIDTH 600 0
DWIDTH 15 0
BBX 13 17 1 0
BITMAP
F078
F078
F878
F8F8
F8F8
F8F8
F8B8
E8B8
EDB8
EDB8
EDB8
EDB8
ED38
E738
E738
E738
E738
ENDCHAR
STARTCHAR 004E
ENCODING 78
SWIDTH 600 0
DWIDTH 15 0
BBX 11 17 2 0
BITMAP
E060
E060
F060
F060
F860
D860
DC60
CC60
CE60
C660
C760
C360
C3E0
C1E0
C1E0
C0E0
C0E0
ENDCHAR
STARTCHAR 004F
ENCODING 79
SWIDTH 600 0
DWIDTH 15 0
BBX 13 17 1 0
BITMAP
1FC0
3FE0
7070
E038
E038
E038
E038
E038
E038
E038
E038
E038
E038
6030
7070
3FE0
1FC0
ENDCHAR
STARTCHAR 0050
ENCODING 80
SWIDTH 600 0
DWIDTH 15 0
BBX 12 17 2 0
BITMAP
FFC0
FFE0
C0F0
C070
C030
C030
C070
C0F0
FFE0
FF80
C000
C000
C000
C000
C000
C000
C000
ENDCHAR
STARTCHAR 0051
ENCODING 81
SWIDTH 600 0
DWIDTH 15 0
BBX 13 21 1 -4
BITMAP
1FC0
3FE0
7070
E038
E038
E038
E038
E038
E038
E038
E038
E038
E038
E030
7070
3FE0
1FC0
0700
0388
01F8
0070
ENDCHAR
STARTCHAR 0052
ENCODING 82
SWIDTH 600 0
DWIDTH 15 0
BBX 13 17 2 0
BITMAP
FFC0
FFE0
C070
C070
C030
C070
C070
C1E0
FF80
FFE0
C0E0
C070
C070
C070
C070
C070
C038
ENDCHAR
STARTCHAR 0053
ENCODING 83
SWIDTH 600 0
DWIDTH 15 0
BBX 13 17 1 0
BITMAP
1FC0
7FF0
7070
E038
E038
7000
7C00
3F80
0FE0
01F0
0078
0038
C038
E038
F078
7FF0
1FC0
ENDCHAR
STARTCHAR 0054
ENCODING 84
SWIDTH 600 0
DWIDTH 15 0
BBX 13 17 1 0
BITMAP
FFF8
FFF8
0700
0700
0700
0700
0700
0700
0700
0700
0700
0700
0700
0700
0700
0700
0700
ENDCHAR
STARTCHAR 0055
ENCODING 85
SWIDTH 600 0
DWIDTH 15 0
BBX 11 17 2 0
BITMAP
C060
C060
C060
C060
C060
C060
C060
C060
C060
C060
C060
C060
C060
E0E0
E0E0
7FC0
3F80
ENDCHAR
STARTCHAR 0056
ENCODING 86
SWIDTH 600 0
DWIDTH 15 0
BBX 15 17 0 0
BITMAP
E00E
700C
701C
3018
3018
3838
1838
1830
1C70
1C70
0C60
0E60
0EE0
06C0
07C0
07C0
0380
ENDCHAR
STARTCHAR 0057
ENCODING 87
SWIDTH 600 0
DWIDTH 15 0
BBX 15 17 0 0
BITMAP
C386
E386
E38E
638C
638C
62CC
66CC
76CC
76CC
36DC
36D8
3478
3478
3C78
3C78
3C78
1C70
ENDCHAR
STARTCHAR 0058
ENCODING 88
SWIDTH 600 0
DWIDTH 15 0
BBX 15 17 0 0
BITMAP
701C
3818
3838
1C70
0E60
0EE0
07C0
0380
0380
07C0
0EE0
0CE0
1C70
3838
3838
701C
E01E
ENDCHAR
STARTCHAR 0059
ENCODING 89
SWIDTH 600 0
DWIDTH 15 0
BBX 15 17 0 0
BITMAP
F00E
701C
3838
3838
1C70
1C70
0EE0
06E0
07C0
0380
0380
0380
0380
0380
0380
0380
0380
ENDCHAR
STARTCHAR 005A
ENCODING 90
SWIDTH 600 0
DWIDTH 15 0
BBX 13 17 1 0
BITMAP
7FF8
7FF0
0070
00E0
01C0
01C0
0380
0780
0700
0E00
0E00
1C00
3800
3800
7000
FFF8
FFF8
ENDCHAR
STARTCHAR 005B
ENCODING 91
SWIDTH 600 0
DWIDTH 15 0
BBX 5 21 6 -4
BITMAP
F8
C0
C0
C0
C0
C0
C0
C0
C0
C0
C0
C0
C0
C0
C0
C0
C0
C0
C0
C0
F8
ENDCHAR
STARTCHAR 005C
ENCODING 92
SWIDTH 600 0
DWIDTH 15 0
BBX 15 21 0 -4
BITMAP
E000
6000
3000
3800
1800
0C00
0C00
0600
0600
0300
0380
0180
00C0
00C0
0060
0060
0030
0030
0018
001C
000E
ENDCHAR
STARTCHAR 005D
ENCODING 93
SWIDTH 600 0
DWIDTH 15 0
BBX 5 21 4 -4
BITMAP
F8
18
18
18
18
18
18
18
18
18
18
18
18
18
18
18
18
18
18
18
F8
ENDCHAR
STARTCHAR 005E
ENCODING 94
SWIDTH 600 0
DWIDTH 15 0
BBX 13 13 1 0
BITMAP
0700
0700
0D80
0D80
0D80
18C0
18C0
38E0
3060
3060
6030
6030
E038
ENDCHAR
STARTCHAR 005F
ENCODING 95
SWIDTH 600 0
DWIDTH 15 0
BBX 13 2 1 -3
BITMAP
FFF8
FFF8
ENDCHAR
STARTCHAR 0060
ENCODING 96
SWIDTH 600 0
DWIDTH 15 0
BBX 5 4 5 15
BITMAP
E0
60
30
38
ENDCHAR
STARTCHAR 0061
ENCODING 97
SWIDTH 600 0
DWIDTH 15 0
BBX 12 13 2 0
BITMAP
3F00
7FC0
E1C0
C0C0
00C0
01C0
7FC0
E0C0
C0C0
C0C0
C1C0
FFF0
7EF0
ENDCHAR
STARTCHAR 0062
ENCODING 98
SWIDTH 600 0
DWIDTH 15 0
BBX 12 18 2 0
BITMAP
E000
E000
E000
E000
E000
EF80
FFC0
F0E0
E060
E060
E070
E070
E070
E060
E060
F0E0
DFC0
CF80
ENDCHAR
STARTCHAR 0063
ENCODING 99
SWIDTH 600 0
DWIDTH 15 0
BBX 11 13 2 0
BITMAP
1F00
7F80
60C0
E0E0
C060
C000
C000
C000
C060
E0E0
E0C0
7FC0
3F80
ENDCHAR
STARTCHAR 0064
ENCODING 100
SWIDTH 600 0
DWIDTH 15 0
BBX 12 18 1 0
BITMAP
0070
0070
0070
0070
0070
1F70
3FF0
70F0
6070
6070
E070
E070
E070
6070
6070
70F0
3FF0
1F30
ENDCHAR
STARTCHAR 0065
ENCODING 101
SWIDTH 600 0
DWIDTH 15 0
BBX 11 13 2 0
BITMAP
1F00
7FC0
60C0
E0E0
C060
FFE0
FFE0
C000
C060
E060
E0E0
7FC0
3F80
ENDCHAR
STARTCHAR 0066
ENCODING 102
SWIDTH 600 0
DWIDTH 15 0
BBX 12 18 2 0
BITMAP
03F0
0FF0
0E00
0C00
0C00
FFE0
FFE0
0C00
0C00
0C00
0C00
0C00
0C00
0C00
0C00
0C00
FFE0
FFE0
ENDCHAR
STARTCHAR 0067
ENCODING 103
SWIDTH 600 0
DWIDTH 15 0
BBX 13 20 1 -5
BITMAP
0018
0018
0FF0
3FE0
3070
7030
7030
3070
3FE0
3FC0
7000
6000
7000
3FF0
7FF8
E018
C018
E038
7FF0
3FE0
ENDCHAR
STARTCHAR 0068
ENCODING 104
SWIDTH 600 0
DWIDTH 15 0
BBX 11 18 2 0
BITMAP
E000
E000
E000
E000
E000
EF80
FFC0
F1E0
E0E0
E0E0
E0E0
E0E0
E0E0
E0E0
E0E0
E0E0
E0E0
E0E0
ENDCHAR
STARTCHAR 0069
ENCODING 105
SWIDTH 600 0
DWIDTH 15 0
BBX 12 18 2 0
BITMAP
0600
0600
0600
0000
0000
FE00
FE00
0600
0600
0600
0600
0600
0600
0600
0600
0600
FFF0
FFF0
ENDCHAR
STARTCHAR 006A
ENCODING 106
SWIDTH 600 0
DWIDTH 15 0
BBX 7 23 2 -5
BITMAP
06
06
06
00
00
FE
FE
06
06
06
06
06
06
06
06
06
06
06
06
06
8E
FC
30
ENDCHAR
STARTCHAR 006B
ENCODING 107
SWIDTH 600 0
DWIDTH 15 0
BBX 12 18 2 0
BITMAP
C000
C000
C000
C000
C000
C0E0
C1C0
C380
C380
C700
CE00
DE00
FE00
F700
E380
C1C0
C1C0
C0F0
ENDCHAR
STARTCHAR 006C
ENCODING 108
SWIDTH 600 0
DWIDTH 15 0
BBX 11 18 2 0
BITMAP
FE00
FE00
0E00
0E00
0E00
0E00
0E00
0E00
0E00
0E00
0E00
0E00
0E00
0E00
0E00
0E00
FFE0
FFE0
ENDCHAR
STARTCHAR 006D
ENCODING 109
SWIDTH 600 0
DWIDTH 15 0
BBX 13 13 1 0
BITMAP
DCF0
FFF0
E738
C718
C718
C718
C718
C718
C718
C718
C718
C718
C718
ENDCHAR
STARTCHAR 006E
ENCODING 110
SWIDTH 600 0
DWIDTH 15 0
BBX 11 13 2 0
BITMAP
CF80
DFC0
F1E0
E0E0
E0E0
E0E0
E0E0
E0E0
E0E0
E0E0
E0E0
E0E0
E0E0
ENDCHAR
STARTCHAR 006F
ENCODING 111
SWIDTH 600 0
DWIDTH 15 0
BBX 11 13 2 0
BITMAP
1F00
7FC0
60C0
E0E0
C060
C060
C060
C060
C060
E0E0
E0E0
7FC0
3F80
ENDCHAR
STARTCHAR 0070
ENCODING 112
SWIDTH 600 0
DWIDTH 15 0
BBX 12 18 2 -5
BITMAP
CF80
DFC0
F0E0
E060
E060
E070
E070
E070
E060
E060
F0E0
FFC0
EF80
E000
E000
E000
E000
E000
ENDCHAR
STARTCHAR 0071
ENCODING 113
SWIDTH 600 0
DWIDTH 15 0
BBX 12 18 1 -5
BITMAP
1F30
3FB0
70F0
6070
6070
E070
E070
E070
6070
6070
70F0
3FF0
1F70
0070
0070
0070
0070
0070
ENDCHAR
STARTCHAR 0072
ENCODING 114
SWIDTH 600 0
DWIDTH 15 0
BBX 13 13 1 0
BITMAP
F9E0
FBF0
1E38
1C18
1C18
1C00
1C00
1C00
1C00
1C00
1C00
FFF0
FFF0
ENDCHAR
STARTCHAR 0073
ENCODING 115
SWIDTH 600 0
DWIDTH 15 0
BBX 11 13 2 0
BITMAP
1F00
7FC0
E0E0
E0E0
E000
7E00
3FC0
07E0
00E0
C060
E0E0
7FC0
3F80
ENDCHAR
STARTCHAR 0074
ENCODING 116
SWIDTH 600 0
DWIDTH 15 0
BBX 12 17 1 0
BITMAP
0400
0400
0C00
0C00
FFF0
FFF0
0C00
0C00
0C00
0C00
0C00
0C00
0C00
0C00
0E00
07F0
03F0
ENDCHAR
STARTCHAR 0075
ENCODING 117
SWIDTH 600 0
DWIDTH 15 0
BBX 12 13 2 0
BITMAP
C0E0
C0E0
C0E0
C0E0
C0E0
C0E0
C0E0
C0E0
C0E0
E0E0
E1E0
7FF0
3E70
ENDCHAR
STARTCHAR 0076
ENCODING 118
SWIDTH 600 0
DWIDTH 15 0
BBX 13 13 1 0
BITMAP
E038
6030
7070
7070
3060
38E0
18C0
1CC0
1DC0
0D80
0F80
0700
0700
ENDCHAR
STARTCHAR 0077
ENCODING 119
SWIDTH 600 0
DWIDTH 15 0
BBX 15 13 0 0
BITMAP
C386
C386
638E
63CC
66CC
66CC
76CC
3658
3478
3C78
3C78
1C78
1C30
ENDCHAR
STARTCHAR 0078
ENCODING 120
SWIDTH 600 0
DWIDTH 15 0
BBX 13 13 1 0
BITMAP
7070
3070
38E0
1DC0
0D80
0F80
0700
0F80
1DC0
19C0
38E0
7070
E078
ENDCHAR
STARTCHAR 0079
ENCODING 121
SWIDTH 600 0
DWIDTH 15 0
BBX 13 18 1 -5
BITMAP
E038
7030
7070
3060
3860
38E0
18C0
1CC0
0D80
0F80
0F80
0700
0700
0600
0600
4C00
7C00
3000
ENDCHAR
STARTCHAR 007A
ENCODING 122
SWIDTH 600 0
DWIDTH 15 0
BBX 9 13 3 0
BITMAP
FF80
FF80
0700
0700
0E00
0C00
1C00
3800
3800
7000
6000
FF80
FF80
ENDCHAR
STARTCHAR 007B
ENCODING 123
SWIDTH 600 0
DWIDTH 15 0
BBX 6 21 5 -4
BITMAP
1C
30
30
30
30
30
20
20
60
E0
80
E0
60
20
20
30
30
30
30
30
1C
ENDCHAR
STARTCHAR 007C
ENCODING 124
SWIDTH 600 0
DWIDTH 15 0
BBX 1 23 7 -5
BITMAP
80
80
80
80
80
80
80
80
80
80
80
80
80
80
80
80
80
80
80
80
80
80
80
ENDCHAR
STARTCHAR 007D
ENCODING 125
SWIDTH 600 0
DWIDTH 15 0
BBX 6 21 4 -4
BITMAP
E0
30
30
38
38
18
18
18
18
1C
04
1C
18
18
18
38
38
38
30
30
E0
ENDCHAR
STARTCHAR 007E
ENCODING 126
SWIDTH 600 0
DWIDTH 15 0
BBX 15 5 0 5
BITMAP
0002
3E06
7FFC
C1F8
8000
ENDCHAR
STARTCHAR 00A0
ENCODING 160
SWIDTH 600 0
DWIDTH 15 0
BBX 0 0 0 0
BITMAP
ENDCHAR
STARTCHAR 00A1
ENCODING 161
SWIDTH 600 0
DWIDTH 15 0
BBX 3 17 6 -4
BITMAP
E0
E0
E0
00
00
40
40
E0
E0
E0
E0
E0
E0
E0
E0
E0
E0
ENDCHAR
STARTCHAR 00A2
ENCODING 162
SWIDTH 600 0
DWIDTH 15 0
BBX 11 17 2 0
BITMAP
0600
0400
1F80
7FC0
70E0
E060
E060
E000
E000
E000
E060
E060
70E0
3FC0
1F00
0400
0600
ENDCHAR
STARTCHAR 00A3
ENCODING 163
SWIDTH 600 0
DWIDTH 15 0
BBX 13 18 1 0
BITMAP
0100
0FE0
1FF0
1838
3838
3838
3800
3800
3800
FF80
FF80
3800
3800
3800
3800
3800
FFF0
FFF0
ENDCHAR
STARTCHAR 00A4
ENCODING 164
SWIDTH 600 0
DWIDTH 15 0
BBX 13 13 1 2
BITMAP
4210
FFF8
78F0
6030
6030
C018
C018
C018
6030
6030
7070
FFF8
4710
ENDCHAR
STARTCHAR 00A5
ENCODING 165
SWIDTH 600 0
DWIDTH 15 0
BBX 15 17 0 0
BITMAP
F00E
701C
3838
3838
1C70
1C70
7EFC
7EFC
07C0
7FFC
7FFC
0380
0380
0380
0380
0380
0380
ENDCHAR
STARTCHAR 00A6
ENCODING 166
SWIDTH 600 0
DWIDTH 15 0
BBX 1 23 7 -5
BITMAP
80
80
80
80
80
80
80
80
80
00
00
00
00
00
80
80
80
80
80
80
80
80
80
ENDCHAR
STARTCHAR 00A7
ENCODING 167
SWIDTH 600 0
DWIDTH 15 0
BBX 11 22 2 -5
BITMAP
3F80
71C0
E0E0
E0E0
E000
7000
3C00
7F80
E3C0
C0E0
C060
E060
7860
3EC0
0F80
03C0
00C0
00E0
E0E0
71C0
3F80
0E00
ENDCHAR
STARTCHAR 00A8
ENCODING 168
SWIDTH 600 0
DWIDTH 15 0
BBX 7 3 4 15
BITMAP
C6
C6
C6
ENDCHAR
STARTCHAR 00A9
ENCODING 169
SWIDTH 600 0
DWIDTH 15 0
BBX 15 17 0 0
BITMAP
0FE0
1010
2008
43C4
4EE4
CC26
9832
9802
9802
9802
8832
4C24
4FE4
4384
2008
1010
0FE0
ENDCHAR
STARTCHAR 00AA
ENCODING 170
SWIDTH 600 0
DWIDTH 15 0
BBX 8 8 4 9
BITMAP
FC
C4
04
7C
C4
8C
FF
62
ENDCHAR
STARTCHAR 00AB
ENCODING 171
SWIDTH 600 0
DWIDTH 15 0
BBX 10 9 2 4
BITMAP
18C0
18C0
3180
6380
E700
6300
3180
31C0
18C0
ENDCHAR
STARTCHAR 00AC
ENCODING 172
SWIDTH 600 0
DWIDTH 15 0
BBX 13 7 1 4
BITMAP
FFF8
FFF8
0018
0018
0018
0018
0018
ENDCHAR
STARTCHAR 00AD
ENCODING 173
SWIDTH 600 0
DWIDTH 15 0
BBX 7 2 4 6
BITMAP
FE
FE
ENDCHAR
STARTCHAR 00AE
ENCODING 174
SWIDTH 600 0
DWIDTH 15 0
BBX 15 17 0 0
BITMAP
0FE0
1010
2008
4FC4
4FE4
CC26
8C32
8C62
8FC2
8C62
8C62
4C24
4C24
4C14
2008
1010
0FE0
ENDCHAR
STARTCHAR 00AF
ENCODING 175
SWIDTH 600 0
DWIDTH 15 0
BBX 7 1 4 16
BITMAP
FE
ENDCHAR
STARTCHAR 00B0
ENCODING 176
SWIDTH 600 0
DWIDTH 15 0
BBX 7 7 4 10
BITMAP
7C
C6
82
82
86
EE
7C
ENDCHAR
STARTCHAR 00B1
ENCODING 177
SWIDTH 600 0
DWIDTH 15 0
BBX 13 13 1 0
BITMAP
0700
0700
0700
0700
FFF8
FFF8
0700
0700
0700
0700
0000
FFF8
FFF8
ENDCHAR
STARTCHAR 00B2
ENCODING 178
SWIDTH 600 0
DWIDTH 15 0
BBX 7 9 4 11
BITMAP
7C
4C
C6
06
0C
18
30
60
FE
ENDCHAR
STARTCHAR 00B3
ENCODING 179
SWIDTH 600 0
DWIDTH 15 0
BBX 7 10 4 10
BITMAP
78
EC
C6
04
3C
0C
06
C6
FC
38
ENDCHAR
STARTCHAR 00B4
ENCODING 180
SWIDTH 600 0
DWIDTH 15 0
BBX 5 4 5 15
BITMAP
38
30
60
E0
ENDCHAR
STARTCHAR 00B5
ENCODING 181
SWIDTH 600 0
DWIDTH 15 0
BBX 12 17 2 -4
BITMAP
C0E0
C0E0
C0E0
C0E0
C0E0
C0E0
C0E0
C0E0
C0E0
E0E0
E1E0
FFF0
FE70
C000
C000
C000
C000
ENDCHAR
STARTCHAR 00B6
ENCODING 182
SWIDTH 600 0
DWIDTH 15 0
BBX 12 21 1 -4
BITMAP
1FF0
3EC0
7EC0
FEC0
FEC0
FEC0
FEC0
7EC0
7EC0
3EC0
0EC0
06C0
06C0
06C0
06C0
06C0
06C0
06C0
06C0
06C0
06C0
ENDCHAR
STARTCHAR 00B7
ENCODING 183
SWIDTH 600 0
DWIDTH 15 0
BBX 3 3 6 8
BITMAP
E0
E0
E0
ENDCHAR
STARTCHAR 00B8
ENCODING 184
SWIDTH 600 0
DWIDTH 15 0
BBX 5 4 5 -5
BITMAP
38
08
98
F0
ENDCHAR
STARTCHAR 00B9
ENCODING 185
SWIDTH 600 0
DWIDTH 15 0
BBX 6 9 4 11
BITMAP
30
F0
10
10
10
10
10
10
FC
ENDCHAR
STARTCHAR 00BA
ENCODING 186
SWIDTH 600 0
DWIDTH 15 0
BBX 7 8 4 9
BITMAP
7C
C6
C6
C6
C6
C6
7C
10
ENDCHAR
STARTCHAR 00BB
ENCODING 187
SWIDTH 600 0
DWIDTH 15 0
BBX 10 9 3 4
BITMAP
C600
C600
6300
7180
39C0
3180
6300
E300
C600
ENDCHAR
STARTCHAR 00BC
ENCODING 188
SWIDTH 600 0
DWIDTH 15 0
BBX 15 17 0 0
BITMAP
3006
F00C
3018
3030
3020
3060
30C0
3000
FC10
0034
0624
0C6C
084C
10CC
30FE
600C
C00C
ENDCHAR
STARTCHAR 00BD
ENCODING 189
SWIDTH 600 0
DWIDTH 15 0
BBX 15 17 0 0
BITMAP
3006
F00C
3018
3030
3020
3040
30C0
3000
FC3C
006E
06C6
0C06
1806
101C
3030
6060
C0FE
ENDCHAR
STARTCHAR 00BE
ENCODING 190
SWIDTH 600 0
DWIDTH 15 0
BBX 15 17 0 0
BITMAP
7806
EC0C
C618
0430
3820
0C60
06C0
C600
FC10
3834
0624
0C6C
084C
10CC
30FE
600C
C00C
ENDCHAR
STARTCHAR 00BF
ENCODING 191
SWIDTH 600 0
DWIDTH 15 0
BBX 11 18 2 -5
BITMAP
0E00
0E00
0E00
0000
0000
0C00
0C00
0C00
1C00
7800
7000
E080
E060
E0E0
E0E0
7BC0
3F80
0C00
ENDCHAR
STARTCHAR 00C0
ENCODING 192
SWIDTH 600 0
DWIDTH 15 0
BBX 15 22 0 0
BITMAP
0E00
0700
0380
0000
0000
0380
07C0
07C0
06C0
0EE0
0CE0
0C60
1C70
1C70
1830
3838
3FF8
3FF8
701C
701C
600C
E00E
ENDCHAR
STARTCHAR 00C1
ENCODING 193
SWIDTH 600 0
DWIDTH 15 0
BBX 15 22 0 0
BITMAP
00E0
00C0
0180
0200
0000
0380
07C0
07C0
06C0
0EE0
0CE0
0C60
1C70
1C70
1830
3838
3FF8
3FF8
701C
701C
600C
E00E
ENDCHAR
STARTCHAR 00C2
ENCODING 194
SWIDTH 600 0
DWIDTH 15 0
BBX 15 22 0 0
BITMAP
0380
06C0
1C70
0000
0000
0380
07C0
07C0
06C0
0EE0
0CE0
0C60
1C70
1C70
1830
3838
3FF8
3FF8
701C
701C
600C
E00E
ENDCHAR
STARTCHAR 00C3
ENCODING 195
SWIDTH 600 0
DWIDTH 15 0
BBX 15 22 0 0
BITMAP
0F30
1FF0
18E0
0000
0000
0380
07C0
07C0
06C0
0EE0
0CE0
0C60
1C70
1C70
1830
3838
3FF8
3FF8
701C
701C
600C
E00E
ENDCHAR
STARTCHAR 00C4
ENCODING 196
SWIDTH 600 0
DWIDTH 15 0
BBX 15 22 0 0
BITMAP
0C60
0C60
0C60
0000
0000
0380
07C0
07C0
06C0
0EE0
0CE0
0C60
1C70
1C70
1830
3838
3FF8
3FF8
701C
701C
600C
E00E
ENDCHAR
STARTCHAR 00C5
ENCODING 197
SWIDTH 600 0
DWIDTH 15 0
BBX 15 24 0 0
BITMAP
0100
07C0
0440
0440
07C0
0000
0000
0380
07C0
07C0
06C0
0EE0
0CE0
0C60
1C70
1C70
1830
3838
3FF8
3FF8
701C
701C
600C
E00E
ENDCHAR
STARTCHAR 00C6
ENCODING 198
SWIDTH 600 0
DWIDTH 15 0
BBX 15 17 0 0
BITMAP
07FE
07FC
07C0
0FC0
0DC0
0DC0
1DC0
1DF8
19F8
39C0
39C0
3FC0
7FC0
71C0
61C0
E1FC
E1FE
ENDCHAR
STARTCHAR 00C7
ENCODING 199
SWIDTH 600 0
DWIDTH 15 0
BBX 13 22 1 -5
BITMAP
1FC0
3FE0
7070
E030
E038
E038
E000
E000
E000
E000
E038
E038
E038
6030
7070
3FE0
1FC0
0000
0380
0080
0980
0F00
ENDCHAR
STARTCHAR 00C8
ENCODING 200
SWIDTH 600 0
DWIDTH 15 0
BBX 12 22 2 0
BITMAP
3800
0C00
0600
0000
0000
FFE0
FFE0
E000
E000
E000
E000
E000
FFC0
FFC0
E000
E000
E000
E000
E000
E000
FFE0
FFF0
ENDCHAR
STARTCHAR 00C9
ENCODING 201
SWIDTH 600 0
DWIDTH 15 0
BBX 12 22 2 0
BITMAP
01C0
0300
0600
0000
0000
FFE0
FFE0
E000
E000
E000
E000
E000
FFC0
FFC0
E000
E000
E000
E000
E000
E000
FFE0
FFF0
ENDCHAR
STARTCHAR 00CA
ENCODING 202
SWIDTH 600 0
DWIDTH 15 0
BBX 12 22 2 0
BITMAP
0F00
1B80
31C0
0000
0000
FFE0
FFE0
E000
E000
E000
E000
E000
FFC0
FFC0
E000
E000
E000
E000
E000
E000
FFE0
FFF0
ENDCHAR
STARTCHAR 00CB
ENCODING 203
SWIDTH 600 0
DWIDTH 15 0
BBX 12 22 2 0
BITMAP
31C0
31C0
31C0
0000
0000
FFE0
FFE0
E000
E000
E000
E000
E000
FFC0
FFC0
E000
E000
E000
E000
E000
E000
FFE0
FFF0
ENDCHAR
STARTCHAR 00CC
ENCODING 204
SWIDTH 600 0
DWIDTH 15 0
BBX 9 22 3 0
BITMAP
7000
3800
1C00
0000
0000
FF80
FF80
1C00
1C00
1C00
1C00
1C00
1C00
1C00
1C00
1C00
1C00
1C00
1C00
1C00
FF80
FF80
ENDCHAR
STARTCHAR 00CD
ENCODING 205
SWIDTH 600 0
DWIDTH 15 0
BBX 9 22 3 0
BITMAP
0700
0600
0C00
1000
0000
FF80
FF80
1C00
1C00
1C00
1C00
1C00
1C00
1C00
1C00
1C00
1C00
1C00
1C00
1C00
FF80
FF80
ENDCHAR
STARTCHAR 00CE
ENCODING 206
SWIDTH 600 0
DWIDTH 15 0
BBX 9 22 3 0
BITMAP
1C00
3600
E380
0000
0000
FF80
FF80
1C00
1C00
1C00
1C00
1C00
1C00
1C00
1C00
1C00
1C00
1C00
1C00
1C00
FF80
FF80
ENDCHAR
STARTCHAR 00CF
ENCODING 207
SWIDTH 600 0
DWIDTH 15 0
BBX 9 22 3 0
BITMAP
6300
6300
6300
0000
0000
FF80
FF80
1C00
1C00
1C00
1C00
1C00
1C00
1C00
1C00
1C00
1C00
1C00
1C00
1C00
FF80
FF80
ENDCHAR
STARTCHAR 00D0
ENCODING 208
SWIDTH 600 0
DWIDTH 15 0
BBX 15 17 0 0
BITMAP
3FE0
3FF8
3838
381C
380C
380C
380E
380E
FF8E
380E
380E
380C
380C
381C
3838
3FF0
3FE0
ENDCHAR
STARTCHAR 00D1
ENCODING 209
SWIDTH 600 0
DWIDTH 15 0
BBX 11 22 2 0
BITMAP
3CC0
7FC0
6380
0000
0000
E060
E060
F060
F060
F860
D860
DC60
CC60
CE60
C660
C760
C360
C3E0
C1E0
C1E0
C0E0
C0E0
ENDCHAR
STARTCHAR 00D2
ENCODING 210
SWIDTH 600 0
DWIDTH 15 0
BBX 13 22 1 0
BITMAP
1C00
0E00
0700
0000
0000
1FC0
3FE0
7070
E038
E038
E038
E038
E038
E038
E038
E038
E038
E038
6030
7070
3FE0
1FC0
ENDCHAR
STARTCHAR 00D3
ENCODING 211
SWIDTH 600 0
DWIDTH 15 0
BBX 13 22 1 0
BITMAP
01C0
0180
0300
0400
0000
1FC0
3FE0
7070
E038
E038
E038
E038
E038
E038
E038
E038
E038
E038
6030
7070
3FE0
1FC0
ENDCHAR
STARTCHAR 00D4
ENCODING 212
SWIDTH 600 0
DWIDTH 15 0
BBX 13 22 1 0
BITMAP
0700
0D80
38E0
0000
0000
1FC0
3FE0
7070
E038
E038
E038
E038
E038
E038
E038
E038
E038
E038
6030
7070
3FE0
1FC0
ENDCHAR
STARTCHAR 00D5
ENCODING 213
SWIDTH 600 0
DWIDTH 15 0
BBX 13 22 1 0
BITMAP
1E60
3FE0
31C0
0000
0000
1FC0
3FE0
7070
E038
E038
E038
E038
E038
E038
E038
E038
E038
E038
6030
7070
3FE0
1FC0
ENDCHAR
STARTCHAR 00D6
ENCODING 214
SWIDTH 600 0
DWIDTH 15 0
BBX 13 22 1 0
BITMAP
18C0
18C0
18C0
0000
0000
1FC0
3FE0
7070
E038
E038
E038
E038
E038
E038
E038
E038
E038
E038
6030
7070
3FE0
1FC0
ENDCHAR
STARTCHAR 00D7
ENCODING 215
SWIDTH 600 0
DWIDTH 15 0
BBX 11 11 2 1
BITMAP
4040
E0E0
71C0
3B80
1F00
0E00
1F00
3B80
71C0
E0E0
4040
ENDCHAR
STARTCHAR 00D8
ENCODING 216
SWIDTH 600 0
DWIDTH 15 0
BBX 13 21 1 -2
BITMAP
0008
0018
1FF0
3FE0
7070
E078
E0F8
E1B8
E138
E338
E238
E638
EC38
E838
F838
7030
7070
7FE0
5FC0
C000
8000
ENDCHAR
STARTCHAR 00D9
ENCODING 217
SWIDTH 600 0
DWIDTH 15 0
BBX 11 22 2 0
BITMAP
3800
1C00
0E00
0000
0000
C060
C060
C060
C060
C060
C060
C060
C060
C060
C060
C060
C060
C060
E0E0
E0E0
7FC0
3F80
ENDCHAR
STARTCHAR 00DA
ENCODING 218
SWIDTH 600 0
DWIDTH 15 0
BBX 11 22 2 0
BITMAP
0380
0300
0600
0800
0000
C060
C060
C060
C060
C060
C060
C060
C060
C060
C060
C060
C060
C060
E0E0
E0E0
7FC0
3F80
ENDCHAR
STARTCHAR 00DB
ENCODING 219
SWIDTH 600 0
DWIDTH 15 0
BBX 11 22 2 0
BITMAP
0E00
1B00
71C0
0000
0000
C060
C060
C060
C060
C060
C060
C060
C060
C060
C060
C060
C060
C060
E0E0
E0E0
7FC0
3F80
ENDCHAR
STARTCHAR 00DC
ENCODING 220
SWIDTH 600 0
DWIDTH 15 0
BBX 11 22 2 0
BITMAP
3180
3180
3180
0000
0000
C060
C060
C060
C060
C060
C060
C060
C060
C060
C060
C060
C060
C060
E0E0
E0E0
7FC0
3F80
ENDCHAR
STARTCHAR 00DD
ENCODING 221
SWIDTH 600 0
DWIDTH 15 0
BBX 15 22 0 0
BITMAP
00E0
00C0
0180
0200
8002
700C
701C
3838
3838
1C70
1C70
0EE0
06E0
07C0
0380
0380
0380
0380
0380
0380
0380
0380
ENDCHAR
STARTCHAR 00DE
ENCODING 222
SWIDTH 600 0
DWIDTH 15 0
BBX 12 17 2 0
BITMAP
E000
E000
E000
FFC0
FFE0
E0F0
E070
E030
E030
E070
E0F0
FFE0
FF80
E000
E000
E000
E000
ENDCHAR
STARTCHAR 00DF
ENCODING 223
SWIDTH 600 0
DWIDTH 15 0
BBX 14 20 0 -2
BITMAP
07E0
1FF0
1C38
3818
3818
F818
F838
38F0
3BE0
3878
3818
381C
381C
381C
381C
3838
3BF0
3BE0
3800
3800
ENDCHAR
STARTCHAR 00E0
ENCODING 224
SWIDTH 600 0
DWIDTH 15 0
BBX 12 19 2 0
BITMAP
3800
1800
0C00
0C00
0200
0000
3F00
7FC0
E1C0
C0C0
00C0
01C0
7FC0
E0C0
C0C0
C0C0
C1C0
FFF0
7EF0
ENDCHAR
STARTCHAR 00E1
ENCODING 225
SWIDTH 600 0
DWIDTH 15 0
BBX 12 19 2 0
BITMAP
0300
0600
0600
0C00
0000
0000
3F00
7FC0
E1C0
C0C0
00C0
01C0
7FC0
E0C0
C0C0
C0C0
C1C0
FFF0
7EF0
ENDCHAR
STARTCHAR 00E2
ENCODING 226
SWIDTH 600 0
DWIDTH 15 0
BBX 12 19 2 0
BITMAP
0E00
1E00
3B00
7180
0040
0000
3F00
7FC0
E1C0
C0C0
00C0
01C0
7FC0
E0C0
C0C0
C0C0
C1C0
FFF0
7EF0
ENDCHAR
STARTCHAR 00E3
ENCODING 227
SWIDTH 600 0
DWIDTH 15 0
BBX 12 18 2 0
BITMAP
3CC0
7F80
4300
0000
0000
3F00
7FC0
E1C0
C0C0
00C0
01C0
7FC0
E0C0
C0C0
C0C0
C1C0
FFF0
7EF0
ENDCHAR
STARTCHAR 00E4
ENCODING 228
SWIDTH 600 0
DWIDTH 15 0
BBX 12 18 2 0
BITMAP
7180
7180
7180
0000
0000
3F00
7FC0
E1C0
C0C0
00C0
01C0
7FC0
E0C0
C0C0
C0C0
C1C0
FFF0
7EF0
ENDCHAR
STARTCHAR 00E5
ENCODING 229
SWIDTH 600 0
DWIDTH 15 0
BBX 12 20 2 0
BITMAP
0C00
1F00
1100
1300
1E00
0000
0000
3F00
7FC0
E1C0
C0C0
00C0
01C0
7FC0
E0C0
C0C0
C0C0
C1C0
FFF0
7EF0
ENDCHAR
STARTCHAR 00E6
ENCODING 230
SWIDTH 600 0
DWIDTH 15 0
BBX 15 13 0 0
BITMAP
3C78
7EFC
638C
638C
0386
03FE
3FFE
6380
E386
C386
C38C
7EFC
7CF8
ENDCHAR
STARTCHAR 00E7
ENCODING 231
SWIDTH 600 0
DWIDTH 15 0
BBX 11 18 2 -5
BITMAP
1F00
7F80
60C0
E0E0
C060
C000
C000
C000
C060
E0E0
E0C0
7FC0
3F80
0000
0700
0100
1300
1E00
ENDCHAR
STARTCHAR 00E8
ENCODING 232
SWIDTH 600 0
DWIDTH 15 0
BBX 11 19 2 0
BITMAP
1800
1C00
0C00
0600
0000
0000
1F00
7FC0
60C0
E0E0
C060
FFE0
FFE0
C000
C060
E060
E0E0
7FC0
3F80
ENDCHAR
STARTCHAR 00E9
ENCODING 233
SWIDTH 600 0
DWIDTH 15 0
BBX 11 19 2 0
BITMAP
0380
0300
0600
0600
0800
0000
1F00
7FC0
60C0
E0E0
C060
FFE0
FFE0
C000
C060
E060
E0E0
7FC0
3F80
ENDCHAR
STARTCHAR 00EA
ENCODING 234
SWIDTH 600 0
DWIDTH 15 0
BBX 11 19 2 0
BITMAP
0E00
1F00
1B80
3180
4040
0000
1F00
7FC0
60C0
E0E0
C060
FFE0
FFE0
C000
C060
E060
E0E0
7FC0
3F80
ENDCHAR
STARTCHAR 00EB
ENCODING 235
SWIDTH 600 0
DWIDTH 15 0
BBX 11 18 2 0
BITMAP
31C0
31C0
31C0
0000
0000
1F00
7FC0
60C0
E0E0
C060
FFE0
FFE0
C000
C060
E060
E0E0
7FC0
3F80
ENDCHAR
STARTCHAR 00EC
ENCODING 236
SWIDTH 600 0
DWIDTH 15 0
BBX 12 19 2 0
BITMAP
1C00
0C00
0C00
0600
0000
0000
FE00
FE00
0600
0600
0600
0600
0600
0600
0600
0600
0600
FFF0
FFF0
ENDCHAR
STARTCHAR 00ED
ENCODING 237
SWIDTH 600 0
DWIDTH 15 0
BBX 12 19 2 0
BITMAP
0380
0300
0700
0600
0000
0000
FE00
FE00
0600
0600
0600
0600
0600
0600
0600
0600
0600
FFF0
FFF0
ENDCHAR
STARTCHAR 00EE
ENCODING 238
SWIDTH 600 0
DWIDTH 15 0
BBX 12 19 2 0
BITMAP
0600
0F00
1980
38C0
0000
0000
FE00
FE00
0600
0600
0600
0600
0600
0600
0600
0600
0600
FFF0
FFF0
ENDCHAR
STARTCHAR 00EF
ENCODING 239
SWIDTH 600 0
DWIDTH 15 0
BBX 12 18 2 0
BITMAP
30C0
30C0
30C0
0000
0000
FE00
FE00
0600
0600
0600
0600
0600
0600
0600
0600
0600
FFF0
FFF0
ENDCHAR
STARTCHAR 00F0
ENCODING 240
SWIDTH 600 0
DWIDTH 15 0
BBX 11 18 2 0
BITMAP
7300
1E00
3E00
6700
0380
1F80
7FC0
60E0
E0E0
C060
C060
C060
C060
C060
E0E0
E0E0
7FC0
3F80
ENDCHAR
STARTCHAR 00F1
ENCODING 241
SWIDTH 600 0
DWIDTH 15 0
BBX 11 18 2 0
BITMAP
3C40
7FC0
6380
0000
0000
CF80
DFC0
F1E0
E0E0
E0E0
E0E0
E0E0
E0E0
E0E0
E0E0
E0E0
E0E0
E0E0
ENDCHAR
STARTCHAR 00F2
ENCODING 242
SWIDTH 600 0
DWIDTH 15 0
BBX 11 19 2 0
BITMAP
3800
1800
0C00
0C00
0200
0000
1F00
7FC0
60C0
E0E0
C060
C060
C060
C060
C060
E0E0
E0E0
7FC0
3F80
ENDCHAR
STARTCHAR 00F3
ENCODING 243
SWIDTH 600 0
DWIDTH 15 0
BBX 11 19 2 0
BITMAP
0300
0700
0600
0C00
0000
0000
1F00
7FC0
60C0
E0E0
C060
C060
C060
C060
C060
E0E0
E0E0
7FC0
3F80
ENDCHAR
STARTCHAR 00F4
ENCODING 244
SWIDTH 600 0
DWIDTH 15 0
BBX 11 19 2 0
BITMAP
0E00
1B00
1B00
3180
4040
0000
1F00
7FC0
60C0
E0E0
C060
C060
C060
C060
C060
E0E0
E0E0
7FC0
3F80
ENDCHAR
STARTCHAR 00F5
ENCODING 245
SWIDTH 600 0
DWIDTH 15 0
BBX 11 18 2 0
BITMAP
3CC0
6FC0
4380
0000
0000
1F00
7FC0
60C0
E0E0
C060
C060
C060
C060
C060
E0E0
E0E0
7FC0
3F80
ENDCHAR
STARTCHAR 00F6
ENCODING 246
SWIDTH 600 0
DWIDTH 15 0
BBX 11 18 2 0
BITMAP
3180
3180
3180
0000
0000
1F00
7FC0
60C0
E0E0
C060
C060
C060
C060
C060
E0E0
E0E0
7FC0
3F80
ENDCHAR
STARTCHAR 00F7
ENCODING 247
SWIDTH 600 0
DWIDTH 15 0
BBX 13 10 1 1
BITMAP
0700
0700
0000
0000
FFF8
FFF8
0000
0700
0700
0700
ENDCHAR
STARTCHAR 00F8
ENCODING 248
SWIDTH 600 0
DWIDTH 15 0
BBX 11 15 2 -1
BITMAP
0060
1FC0
7FC0
61C0
E1E0
C360
C660
C460
CC60
D860
F0E0
F0E0
7FC0
7F80
C000
ENDCHAR
STARTCHAR 00F9
ENCODING 249
SWIDTH 600 0
DWIDTH 15 0
BBX 12 19 2 0
BITMAP
3800
1800
0C00
0C00
0200
0000
C0E0
C0E0
C0E0
C0E0
C0E0
C0E0
C0E0
C0E0
C0E0
E0E0
E1E0
7FF0
3E70
ENDCHAR
STARTCHAR 00FA
ENCODING 250
SWIDTH 600 0
DWIDTH 15 0
BBX 12 19 2 0
BITMAP
0300
0600
0600
0C00
0000
0000
C0E0
C0E0
C0E0
C0E0
C0E0
C0E0
C0E0
C0E0
C0E0
E0E0
E1E0
7FF0
3E70
ENDCHAR
STARTCHAR 00FB
ENCODING 251
SWIDTH 600 0
DWIDTH 15 0
BBX 12 19 2 0
BITMAP
0E00
1E00
3B00
7180
0040
0000
C0E0
C0E0
C0E0
C0E0
C0E0
C0E0
C0E0
C0E0
C0E0
E0E0
E1E0
7FF0
3E70
ENDCHAR
STARTCHAR 00FC
ENCODING 252
SWIDTH 600 0
DWIDTH 15 0
BBX 12 18 2 0
BITMAP
7180
7180
7180
0000
0000
C0E0
C0E0
C0E0
C0E0
C0E0
C0E0
C0E0
C0E0
C0E0
E0E0
E1E0
7FF0
3E70
ENDCHAR
STARTCHAR 00FD
ENCODING 253
SWIDTH 600 0
DWIDTH 15 0
BBX 13 24 1 -5
BITMAP
01C0
0180
0300
0300
0400
0000
E038
7030
7070
3060
3860
38E0
18C0
1CC0
0D80
0F80
0F80
0700
0700
0600
0600
4C00
7C00
3000
ENDCHAR
STARTCHAR 00FE
ENCODING 254
SWIDTH 600 0
DWIDTH 15 0
BBX 12 23 2 -5
BITMAP
E000
E000
E000
E000
E000
EF80
FFC0
F0E0
E060
E060
E070
E070
E070
E060
E060
F0E0
FFC0
EF80
E000
E000
E000
E000
E000
ENDCHAR
STARTCHAR 00FF
ENCODING 255
SWIDTH 600 0
DWIDTH 15 0
BBX 13 23 1 -5
BITMAP
18E0
18E0
18E0
0000
0000
E038
7030
7070
3060
3860
38E0
18C0
1CC0
0D80
0F80
0F80
0700
0700
0600
0600
4C00
7C00
3000
ENDCHAR
STARTCHAR 0100
ENCODING 256
SWIDTH 600 0
DWIDTH 15 0
BBX 15 21 0 0
BITMAP
0FE0
0000
0000
0000
0380
07C0
07C0
06C0
0EE0
0CE0
0C60
1C70
1C70
1830
3838
3FF8
3FF8
701C
701C
600C
E00E
ENDCHAR
STARTCHAR 0101
ENCODING 257
SWIDTH 600 0
DWIDTH 15 0
BBX 12 17 2 0
BITMAP
7F80
0000
0000
0000
3F00
7FC0
E1C0
C0C0
00C0
01C0
7FC0
E0C0
C0C0
C0C0
C1C0
FFF0
7EF0
ENDCHAR
STARTCHAR 0102
ENCODING 258
SWIDTH 600 0
DWIDTH 15 0
BBX 15 22 0 0
BITMAP
1830
0FE0
07C0
0000
0000
0380
07C0
07C0
06C0
0EE0
0CE0
0C60
1C70
1C70
1830
3838
3FF8
3FF8
701C
701C
600C
E00E
ENDCHAR
STARTCHAR 0103
ENCODING 259
SWIDTH 600 0
DWIDTH 15 0
BBX 12 18 2 0
BITMAP
6180
3380
3F00
0000
0000
3F00
7FC0
E1C0
C0C0
00C0
01C0
7FC0
E0C0
C0C0
C0C0
C1C0
FFF0
7EF0
ENDCHAR
STARTCHAR 0104
ENCODING 260
SWIDTH 600 0
DWIDTH 15 0
BBX 16 21 0 -4
BITMAP
0380
07C0
07C0
06C0
0EE0
0CE0
0C60
1C70
1C70
1830
3838
3FF8
3FF8
701C
701C
600C
E00E
0018
0018
001F
000C
ENDCHAR
STARTCHAR 0105
ENCODING 261
SWIDTH 600 0
DWIDTH 15 0
BBX 14 17 2 -4
BITMAP
3F00
7FC0
E1C0
C0C0
00C0
01C0
7FC0
E0C0
C0C0
C0C0
C1C0
FFF0
7EF0
0060
0040
007C
0030
ENDCHAR
STARTCHAR 0106
ENCODING 262
SWIDTH 600 0
DWIDTH 15 0
BBX 13 22 1 0
BITMAP
01C0
0180
0300
0400
0000
1FC0
3FE0
7070
E030
E038
E038
E000
E000
E000
E000
E038
E038
E038
6030
7070
3FE0
1FC0
ENDCHAR
STARTCHAR 0107
ENCODING 263
SWIDTH 600 0
DWIDTH 15 0
BBX 11 19 2 0
BITMAP
0300
0700
0600
0C00
0000
0000
1F00
7F80
60C0
E0E0
C060
C000
C000
C000
C060
E0E0
E0C0
7FC0
3F80
ENDCHAR
STARTCHAR 0108
ENCODING 264
SWIDTH 600 0
DWIDTH 15 0
BBX 13 22 1 0
BITMAP
0700
0D80
38E0
0000
0000
1FC0
3FE0
7070
E030
E038
E038
E000
E000
E000
E000
E038
E038
E038
6030
7070
3FE0
1FC0
ENDCHAR
STARTCHAR 0109
ENCODING 265
SWIDTH 600 0
DWIDTH 15 0
BBX 11 19 2 0
BITMAP
0E00
1B00
1B00
3180
4040
0000
1F00
7F80
60C0
E0E0
C060
C000
C000
C000
C060
E0E0
E0C0
7FC0
3F80
ENDCHAR
STARTCHAR 010A
ENCODING 266
SWIDTH 600 0
DWIDTH 15 0
BBX 13 22 1 0
BITMAP
0700
0700
0700
0000
0000
1FC0
3FE0
7070
E030
E038
E038
E000
E000
E000
E000
E038
E038
E038
6030
7070
3FE0
1FC0
ENDCHAR
STARTCHAR 010B
ENCODING 267
SWIDTH 600 0
DWIDTH 15 0
BBX 11 18 2 0
BITMAP
0E00
0E00
0E00
0000
0000
1F00
7F80
60C0
E0E0
C060
C000
C000
C000
C060
E0E0
E0C0
7FC0
3F80
ENDCHAR
STARTCHAR 010C
ENCODING 268
SWIDTH 600 0
DWIDTH 15 0
BBX 13 22 1 0
BITMAP
38E0
0D80
0700
0000
0000
1FC0
3FE0
7070
E030
E038
E038
E000
E000
E000
E000
E038
E038
E038
6030
7070
3FE0
1FC0
ENDCHAR
STARTCHAR 010D
ENCODING 269
SWIDTH 600 0
DWIDTH 15 0
BBX 11 19 2 0
BITMAP
71C0
3180
1B00
0E00
0000
0000
1F00
7F80
60C0
E0E0
C060
C000
C000
C000
C060
E0E0
E0C0
7FC0
3F80
ENDCHAR
STARTCHAR 010E
ENCODING 270
SWIDTH 600 0
DWIDTH 15 0
BBX 13 22 2 0
BITMAP
71C0
1B00
0E00
0000
0000
FF80
FFE0
E0E0
E070
E030
E030
E038
E038
E038
E038
E038
E030
E030
E070
E0E0
FFC0
FF80
ENDCHAR
STARTCHAR 010F
ENCODING 271
SWIDTH 600 0
DWIDTH 15 0
BBX 16 18 1 0
BITMAP
0070
0077
0077
0073
0073
1F72
3FF6
70F0
6070
6070
E070
E070
E070
6070
6070
70F0
3FF0
1F30
ENDCHAR
STARTCHAR 0110
ENCODING 272
SWIDTH 600 0
DWIDTH 15 0
BBX 15 17 0 0
BITMAP
3FE0
3FF8
3838
381C
380C
380C
380E
380E
FF8E
380E
380E
380C
380C
381C
3838
3FF0
3FE0
ENDCHAR
STARTCHAR 0111
ENCODING 273
SWIDTH 600 0
DWIDTH 15 0
BBX 14 18 1 0
BITMAP
0070
0070
07FC
07FC
0070
1F70
3FF0
70F0
6070
6070
E070
E070
E070
6070
6070
70F0
3FF0
1F30
ENDCHAR
STARTCHAR 0112
ENCODING 274
SWIDTH 600 0
DWIDTH 15 0
BBX 12 21 2 0
BITMAP
3FC0
0000
0000
0000
FFE0
FFE0
E000
E000
E000
E000
E000
FFC0
FFC0
E000
E000
E000
E000
E000
E000
FFE0
FFF0
ENDCHAR
STARTCHAR 0113
ENCODING 275
SWIDTH 600 0
DWIDTH 15 0
BBX 11 17 2 0
BITMAP
3FC0
0000
0000
0000
1F00
7FC0
60C0
E0E0
C060
FFE0
FFE0
C000
C060
E060
E0E0
7FC0
3F80
ENDCHAR
STARTCHAR 0114
ENCODING 276
SWIDTH 600 0
DWIDTH 15 0
BBX 12 22 2 0
BITMAP
30C0
3F80
1F00
0000
0000
FFE0
FFE0
E000
E000
E000
E000
E000
FFC0
FFC0
E000
E000
E000
E000
E000
E000
FFE0
FFF0
ENDCHAR
STARTCHAR 0115
ENCODING 277
SWIDTH 600 0
DWIDTH 15 0
BBX 11 18 2 0
BITMAP
60C0
3B80
1F00
0000
0000
1F00
7FC0
60C0
E0E0
C060
FFE0
FFE0
C000
C060
E060
E0E0
7FC0
3F80
ENDCHAR
STARTCHAR 0116
ENCODING 278
SWIDTH 600 0
DWIDTH 15 0
BBX 12 22 2 0
BITMAP
0600
0600
0600
0000
0000
FFE0
FFE0
E000
E000
E000
E000
E000
FFC0
FFC0
E000
E000
E000
E000
E000
E000
FFE0
FFF0
ENDCHAR
STARTCHAR 0117
ENCODING 279
SWIDTH 600 0
DWIDTH 15 0
BBX 11 18 2 0
BITMAP
0E00
0E00
0E00
0000
0000
1F00
7FC0
60C0
E0E0
C060
FFE0
FFE0
C000
C060
E060
E0E0
7FC0
3F80
ENDCHAR
STARTCHAR 0118
ENCODING 280
SWIDTH 600 0
DWIDTH 15 0
BBX 12 21 2 -4
BITMAP
FFE0
FFE0
E000
E000
E000
E000
E000
FFC0
FFC0
E000
E000
E000
E000
E000
E000
FFE0
FFF0
00C0
0180
00F0
0060
ENDCHAR
STARTCHAR 0119
ENCODING 281
SWIDTH 600 0
DWIDTH 15 0
BBX 11 17 2 -4
BITMAP
1F00
7FC0
60C0
E0E0
C060
FFE0
FFE0
C000
C060
E060
E0E0
7FC0
3F80
0600
0C00
0780
0300
ENDCHAR
STARTCHAR 011A
ENCODING 282
SWIDTH 600 0
DWIDTH 15 0
BBX 12 22 2 0
BITMAP
31C0
1B80
0F00
0000
0000
FFE0
FFE0
E000
E000
E000
E000
E000
FFC0
FFC0
E000
E000
E000
E000
E000
E000
FFE0
FFF0
ENDCHAR
STARTCHAR 011B
ENCODING 283
SWIDTH 600 0
DWIDTH 15 0
BBX 11 19 2 0
BITMAP
71C0
3980
1B00
0E00
0000
0000
1F00
7FC0
60C0
E0E0
C060
FFE0
FFE0
C000
C060
E060
E0E0
7FC0
3F80
ENDCHAR
STARTCHAR 011C
ENCODING 284
SWIDTH 600 0
DWIDTH 15 0
BBX 13 22 1 0
BITMAP
0700
0D80
38E0
0000
0000
1FC0
3FE0
7070
E038
E038
E038
E000
E000
E3F8
E3F8
E038
E038
E038
6038
7078
3FD8
1F98
ENDCHAR
STARTCHAR 011D
ENCODING 285
SWIDTH 600 0
DWIDTH 15 0
BBX 14 23 1 -5
BITMAP
0700
0D80
38E0
000C
0018
0FB8
3FE0
3070
7030
7030
3070
3FE0
3FC0
7000
6000
7000
3FF0
7FF8
E018
C018
E038
7FF0
3FE0
ENDCHAR
STARTCHAR 011E
ENCODING 286
SWIDTH 600 0
DWIDTH 15 0
BBX 13 22 1 0
BITMAP
3060
1FC0
0F80
0000
0000
1FC0
3FE0
7070
E038
E038
E038
E000
E000
E3F8
E3F8
E038
E038
E038
6038
7078
3FD8
1F98
ENDCHAR
STARTCHAR 011F
ENCODING 287
SWIDTH 600 0
DWIDTH 15 0
BBX 13 23 1 -5
BITMAP
3060
1DC0
0F80
0018
0018
0FF0
3FE0
3070
7030
7030
3070
3FE0
3FC0
7000
6000
7000
3FF0
7FF8
E018
C018
E038
7FF0
3FE0
ENDCHAR
STARTCHAR 0120
ENCODING 288
SWIDTH 600 0
DWIDTH 15 0
BBX 13 22 1 0
BITMAP
0700
0700
0700
0000
0000
1FC0
3FE0
7070
E038
E038
E038
E000
E000
E3F8
E3F8
E038
E038
E038
6038
7078
3FD8
1F98
ENDCHAR
STARTCHAR 0121
ENCODING 289
SWIDTH 600 0
DWIDTH 15 0
BBX 13 23 1 -5
BITMAP
0700
0700
0700
0018
0018
0FF0
3FE0
3070
7030
7030
3070
3FE0
3FC0
7000
6000
7000
3FF0
7FF8
E018
C018
E038
7FF0
3FE0
ENDCHAR
STARTCHAR 0122
ENCODING 290
SWIDTH 600 0
DWIDTH 15 0
BBX 13 25 1 -8
BITMAP
1FC0
3FE0
7070
E038
E038
E038
E000
E000
E3F8
E3F8
E038
E038
E038
6038
7078
3FD8
1F98
0000
0000
0700
0700
0700
0300
0200
0600
ENDCHAR
STARTCHAR 0123
ENCODING 291
SWIDTH 600 0
DWIDTH 15 0
BBX 13 26 1 -5
BITMAP
0300
0200
0600
0700
0700
0700
0018
0018
0FF0
3FE0
3070
7030
7030
3070
3FE0
3FC0
7000
6000
7000
3FF0
7FF8
E018
C018
E038
7FF0
3FE0
ENDCHAR
STARTCHAR 0124
ENCODING 292
SWIDTH 600 0
DWIDTH 15 0
BBX 11 22 2 0
BITMAP
0E00
1B00
71C0
0000
0000
C060
C060
C060
C060
C060
C060
C060
FFE0
FFE0
C060
C060
C060
C060
C060
C060
C060
C060
ENDCHAR
STARTCHAR 0125
ENCODING 293
SWIDTH 600 0
DWIDTH 15 0
BBX 14 22 -1 0
BITMAP
1C00
3600
E380
0000
1C00
1C00
1C00
1C00
1C00
1DF0
1FF8
1E3C
1C1C
1C1C
1C1C
1C1C
1C1C
1C1C
1C1C
1C1C
1C1C
1C1C
ENDCHAR
STARTCHAR 0126
ENCODING 294
SWIDTH 600 0
DWIDTH 15 0
BBX 15 17 0 0
BITMAP
3018
3018
3018
FFFE
3018
3018
3018
3FF8
3FF8
3018
3018
3018
3018
3018
3018
3018
3018
ENDCHAR
STARTCHAR 0127
ENCODING 295
SWIDTH 600 0
DWIDTH 15 0
BBX 13 18 0 0
BITMAP
3800
3800
FF80
FF80
3800
3BE0
3FF0
3C78
3838
3838
3838
3838
3838
3838
3838
3838
3838
3838
ENDCHAR
STARTCHAR 0128
ENCODING 296
SWIDTH 600 0
DWIDTH 15 0
BBX 9 22 3 0
BITMAP
7980
FF80
C700
0000
0000
FF80
FF80
1C00
1C00
1C00
1C00
1C00
1C00
1C00
1C00
1C00
1C00
1C00
1C00
1C00
FF80
FF80
ENDCHAR
STARTCHAR 0129
ENCODING 297
SWIDTH 600 0
DWIDTH 15 0
BBX 12 18 2 0
BITMAP
3C60
3FC0
6380
0000
0000
FE00
FE00
0600
0600
0600
0600
0600
0600
0600
0600
0600
FFF0
FFF0
ENDCHAR
STARTCHAR 012A
ENCODING 298
SWIDTH 600 0
DWIDTH 15 0
BBX 9 21 3 0
BITMAP
7F00
0000
0000
0000
FF80
FF80
1C00
1C00
1C00
1C00
1C00
1C00
1C00
1C00
1C00
1C00
1C00
1C00
1C00
FF80
FF80
ENDCHAR
STARTCHAR 012B
ENCODING 299
SWIDTH 600 0
DWIDTH 15 0
BBX 12 17 2 0
BITMAP
3FC0
0000
0000
0000
FE00
FE00
0600
0600
0600
0600
0600
0600
0600
0600
0600
FFF0
FFF0
ENDCHAR
STARTCHAR 012C
ENCODING 300
SWIDTH 600 0
DWIDTH 15 0
BBX 9 22 3 0
BITMAP
C180
7F00
3E00
0000
0000
FF80
FF80
1C00
1C00
1C00
1C00
1C00
1C00
1C00
1C00
1C00
1C00
1C00
1C00
1C00
FF80
FF80
ENDCHAR
STARTCHAR 012D
ENCODING 301
SWIDTH 600 0
DWIDTH 15 0
BBX 12 18 2 0
BITMAP
30C0
39C0
1F80
0000
0000
FE00
FE00
0600
0600
0600
0600
0600
0600
0600
0600
0600
FFF0
FFF0
ENDCHAR
STARTCHAR 012E
ENCODING 302
SWIDTH 600 0
DWIDTH 15 0
BBX 9 21 3 -4
BITMAP
FF80
FF80
1C00
1C00
1C00
1C00
1C00
1C00
1C00
1C00
1C00
1C00
1C00
1C00
1C00
FF80
FF80
0600
0400
0780
0300
ENDCHAR
STARTCHAR 012F
ENCODING 303
SWIDTH 600 0
DWIDTH 15 0
BBX 12 22 2 -4
BITMAP
0600
0600
0600
0000
0000
FE00
FE00
0600
0600
0600
0600
0600
0600
0600
0600
0600
FFF0
FFF0
0600
0C00
0F80
0200
ENDCHAR
STARTCHAR 0130
ENCODING 304
SWIDTH 600 0
DWIDTH 15 0
BBX 9 22 3 0
BITMAP
1C00
1C00
1C00
0000
0000
FF80
FF80
1C00
1C00
1C00
1C00
1C00
1C00
1C00
1C00
1C00
1C00
1C00
1C00
1C00
FF80
FF80
ENDCHAR
STARTCHAR 0131
ENCODING 305
SWIDTH 600 0
DWIDTH 15 0
BBX 12 13 2 0
BITMAP
FE00
FE00
0600
0600
0600
0600
0600
0600
0600
0600
0600
FFF0
FFF0
ENDCHAR
STARTCHAR 0132
ENCODING 306
SWIDTH 600 0
DWIDTH 15 0
BBX 11 17 2 0
BITMAP
C060
C060
C060
C060
C060
C060
C060
C060
C060
C060
0060
0060
C060
E0E0
E0E0
7FC0
3F80
ENDCHAR
STARTCHAR 0133
ENCODING 307
SWIDTH 600 0
DWIDTH 15 0
BBX 11 23 2 -5
BITMAP
E0E0
E0E0
E0E0
0000
0000
E7E0
E7E0
E0E0
E0E0
E0E0
E0E0
E0E0
E0E0
E0E0
E0E0
E0E0
E0E0
E0E0
00E0
00E0
11C0
0FC0
0700
ENDCHAR
STARTCHAR 0134
ENCODING 308
SWIDTH 600 0
DWIDTH 15 0
BBX 14 22 2 0
BITMAP
00E0
01B0
071C
0000
0000
00E0
00E0
00E0
00E0
00E0
00E0
00E0
00E0
00E0
00E0
00E0
00E0
E0E0
E0E0
61C0
7FC0
3F80
ENDCHAR
STARTCHAR 0135
ENCODING 309
SWIDTH 600 0
DWIDTH 15 0
BBX 10 24 2 -5
BITMAP
0700
0F00
1980
38C0
0000
0000
FE00
FE00
0600
0600
0600
0600
0600
0600
0600
0600
0600
0600
0600
0600
0600
8E00
FC00
3000
ENDCHAR
STARTCHAR 0136
ENCODING 310
SWIDTH 600 0
DWIDTH 15 0
BBX 13 25 2 -8
BITMAP
C070
C0E0
C0C0
C1C0
C380
C700
CF00
CE00
DE00
FF00
F700
E380
C1C0
C1C0
C0E0
C070
C078
0000
0000
0E00
0E00
0E00
0600
0400
0C00
ENDCHAR
STARTCHAR 0137
ENCODING 311
SWIDTH 600 0
DWIDTH 15 0
BBX 12 26 2 -8
BITMAP
C000
C000
C000
C000
C000
C0E0
C1C0
C380
C380
C700
CE00
DE00
FE00
F700
E380
C1C0
C1C0
C0F0
0000
0000
0C00
0C00
0C00
0400
0400
0800
ENDCHAR
STARTCHAR 0138
ENCODING 312
SWIDTH 600 0
DWIDTH 15 0
BBX 12 13 2 0
BITMAP
C0E0
C1C0
C380
C380
C700
CE00
DE00
FE00
F700
E380
C1C0
C1C0
C0F0
ENDCHAR
STARTCHAR 0139
ENCODING 313
SWIDTH 600 0
DWIDTH 15 0
BBX 10 22 3 0
BITMAP
3800
6000
C000
0000
0000
C000
C000
C000
C000
C000
C000
C000
C000
C000
C000
C000
C000
C000
C000
C000
FFC0
FFC0
ENDCHAR
STARTCHAR 013A
ENCODING 314
SWIDTH 600 0
DWIDTH 15 0
BBX 11 22 2 0
BITMAP
0380
0300
0600
0800
FE00
FE00
0E00
0E00
0E00
0E00
0E00
0E00
0E00
0E00
0E00
0E00
0E00
0E00
0E00
0E00
FFE0
FFE0
ENDCHAR
STARTCHAR 013B
ENCODING 315
SWIDTH 600 0
DWIDTH 15 0
BBX 10 25 3 -8
BITMAP
C000
C000
C000
C000
C000
C000
C000
C000
C000
C000
C000
C000
C000
C000
C000
FFC0
FFC0
0000
0000
0C00
0C00
0C00
0400
0C00
0800
ENDCHAR
STARTCHAR 013C
ENCODING 316
SWIDTH 600 0
DWIDTH 15 0
BBX 11 26 2 -8
BITMAP
FE00
FE00
0E00
0E00
0E00
0E00
0E00
0E00
0E00
0E00
0E00
0E00
0E00
0E00
0E00
0E00
FFE0
FFE0
0000
0000
0E00
0E00
0E00
0600
0400
0C00
ENDCHAR
STARTCHAR 013D
ENCODING 317
SWIDTH 600 0
DWIDTH 15 0
BBX 10 17 3 0
BITMAP
C1C0
C1C0
C0C0
C080
C080
C100
C000
C000
C000
C000
C000
C000
C000
C000
C000
FFC0
FFC0
ENDCHAR
STARTCHAR 013E
ENCODING 318
SWIDTH 600 0
DWIDTH 15 0
BBX 11 18 2 0
BITMAP
FE00
FEE0
0EE0
0E20
0E60
0E40
0EC0
0E00
0E00
0E00
0E00
0E00
0E00
0E00
0E00
0E00
FFE0
FFE0
ENDCHAR
STARTCHAR 013F
ENCODING 319
SWIDTH 600 0
DWIDTH 15 0
BBX 10 17 3 0
BITMAP
C000
C000
C000
C000
C000
C000
C380
C380
C380
C000
C000
C000
C000
C000
C000
FFC0
FFC0
ENDCHAR
STARTCHAR 0140
ENCODING 320
SWIDTH 600 0
DWIDTH 15 0
BBX 15 18 2 0
BITMAP
FE00
FE00
0E00
0E00
0E00
0E00
0E00
0E1E
0E1E
0E1E
0E00
0E00
0E00
0E00
0E00
0E00
FFE0
FFE0
ENDCHAR
STARTCHAR 0141
ENCODING 321
SWIDTH 600 0
DWIDTH 15 0
BBX 12 17 1 0
BITMAP
3000
3000
3000
3000
3000
3100
3700
3E00
7800
F000
B000
3000
3000
3000
3000
3FF0
3FF0
ENDCHAR
STARTCHAR 0142
ENCODING 322
SWIDTH 600 0
DWIDTH 15 0
BBX 11 18 2 0
BITMAP
FE00
FE00
0E00
0E00
0E00
0E20
0EC0
0FC0
0F00
3E00
7E00
4E00
0E00
0E00
0E00
0E00
FFE0
FFE0
ENDCHAR
STARTCHAR 0143
ENCODING 323
SWIDTH 600 0
DWIDTH 15 0
BBX 11 22 2 0
BITMAP
0380
0300
0600
0800
0000
E060
E060
F060
F060
F860
D860
DC60
CC60
CE60
C660
C760
C360
C3E0
C1E0
C1E0
C0E0
C0E0
ENDCHAR
STARTCHAR 0144
ENCODING 324
SWIDTH 600 0
DWIDTH 15 0
BBX 11 19 2 0
BITMAP
0380
0300
0600
0600
0800
0000
CF80
DFC0
F1E0
E0E0
E0E0
E0E0
E0E0
E0E0
E0E0
E0E0
E0E0
E0E0
E0E0
ENDCHAR
STARTCHAR 0145
ENCODING 325
SWIDTH 600 0
DWIDTH 15 0
BBX 11 25 2 -8
BITMAP
E060
E060
F060
F060
F860
D860
DC60
CC60
CE60
C660
C760
C360
C3E0
C1E0
C1E0
C0E0
C0E0
0000
0000
0E00
0E00
0E00
0600
0400
0C00
ENDCHAR
STARTCHAR 0146
ENCODING 326
SWIDTH 600 0
DWIDTH 15 0
BBX 11 21 2 -8
BITMAP
CF80
DFC0
F1E0
E0E0
E0E0
E0E0
E0E0
E0E0
E0E0
E0E0
E0E0
E0E0
E0E0
0000
0000
0E00
0E00
0E00
0600
0400
0C00
ENDCHAR
STARTCHAR 0147
ENCODING 327
SWIDTH 600 0
DWIDTH 15 0
BBX 11 22 2 0
BITMAP
71C0
1B00
0E00
0000
0000
E060
E060
F060
F060
F860
D860
DC60
CC60
CE60
C660
C760
C360
C3E0
C1E0
C1E0
C0E0
C0E0
ENDCHAR
STARTCHAR 0148
ENCODING 328
SWIDTH 600 0
DWIDTH 15 0
BBX 11 19 2 0
BITMAP
71C0
3980
1B00
0E00
0000
0000
CF80
DFC0
F1E0
E0E0
E0E0
E0E0
E0E0
E0E0
E0E0
E0E0
E0E0
E0E0
E0E0
ENDCHAR
STARTCHAR 0149
ENCODING 329
SWIDTH 600 0
DWIDTH 15 0
BBX 13 19 0 0
BITMAP
E000
E000
6000
6000
4000
8000
33E0
37F0
3C78
3838
3838
3838
3838
3838
3838
3838
3838
3838
3838
ENDCHAR
STARTCHAR 014A
ENCODING 330
SWIDTH 600 0
DWIDTH 15 0
BBX 11 22 2 -5
BITMAP
E060
E060
F060
F060
F860
D860
DC60
CC60
CE60
C660
C760
C360
C3E0
C1E0
C1E0
C0E0
C0E0
0060
0060
04E0
03E0
0180
ENDCHAR
STARTCHAR 014B
ENCODING 331
SWIDTH 600 0
DWIDTH 15 0
BBX 11 18 2 -5
BITMAP
CF80
DFC0
F1E0
E0E0
E0E0
E0E0
E0E0
E0E0
E0E0
E0E0
E0E0
E0E0
E0E0
00E0
00E0
04E0
07C0
0380
ENDCHAR
STARTCHAR 014C
ENCODING 332
SWIDTH 600 0
DWIDTH 15 0
BBX 13 21 1 0
BITMAP
1FC0
0000
0000
0000
1FC0
3FE0
7070
E038
E038
E038
E038
E038
E038
E038
E038
E038
E038
6030
7070
3FE0
1FC0
ENDCHAR
STARTCHAR 014D
ENCODING 333
SWIDTH 600 0
DWIDTH 15 0
BBX 11 17 2 0
BITMAP
3F80
0000
0000
0000
1F00
7FC0
60C0
E0E0
C060
C060
C060
C060
C060
E0E0
E0E0
7FC0
3F80
ENDCHAR
STARTCHAR 014E
ENCODING 334
SWIDTH 600 0
DWIDTH 15 0
BBX 13 22 1 0
BITMAP
3060
1FC0
0F80
0000
0000
1FC0
3FE0
7070
E038
E038
E038
E038
E038
E038
E038
E038
E038
E038
6030
7070
3FE0
1FC0
ENDCHAR
STARTCHAR 014F
ENCODING 335
SWIDTH 600 0
DWIDTH 15 0
BBX 11 18 2 0
BITMAP
60C0
3B80
1F00
0000
0000
1F00
7FC0
60C0
E0E0
C060
C060
C060
C060
C060
E0E0
E0E0
7FC0
3F80
ENDCHAR
STARTCHAR 0150
ENCODING 336
SWIDTH 600 0
DWIDTH 15 0
BBX 13 22 1 0
BITMAP
0770
0EC0
1DC0
0000
0000
1FC0
3FE0
7070
E038
E038
E038
E038
E038
E038
E038
E038
E038
E038
6030
7070
3FE0
1FC0
ENDCHAR
STARTCHAR 0151
ENCODING 337
SWIDTH 600 0
DWIDTH 15 0
BBX 11 18 2 0
BITMAP
0EE0
1980
3B80
0000
0000
1F00
7FC0
60C0
E0E0
C060
C060
C060
C060
C060
E0E0
E0E0
7FC0
3F80
ENDCHAR
STARTCHAR 0152
ENCODING 338
SWIDTH 600 0
DWIDTH 15 0
BBX 14 17 1 0
BITMAP
1FFC
7FF8
7180
E180
C180
C180
C180
C1F8
C1F8
C180
C180
C180
C180
E180
7180
7FFC
1FFC
ENDCHAR
STARTCHAR 0153
ENCODING 339
SWIDTH 600 0
DWIDTH 15 0
BBX 15 13 0 0
BITMAP
3C78
7EFC
638C
638C
C386
C3FE
C3FE
C380
C386
4386
638C
7EFC
3E78
ENDCHAR
STARTCHAR 0154
ENCODING 340
SWIDTH 600 0
DWIDTH 15 0
BBX 13 22 2 0
BITMAP
0380
0300
0600
0800
0000
FFC0
FFE0
C070
C070
C030
C070
C070
C1E0
FF80
FFE0
C0E0
C070
C070
C070
C070
C070
C038
ENDCHAR
STARTCHAR 0155
ENCODING 341
SWIDTH 600 0
DWIDTH 15 0
BBX 13 19 1 0
BITMAP
01C0
0180
0300
0300
0000
0000
F9E0
FBF0
1E38
1C18
1C18
1C00
1C00
1C00
1C00
1C00
1C00
FFF0
FFF0
ENDCHAR
STARTCHAR 0156
ENCODING 342
SWIDTH 600 0
DWIDTH 15 0
BBX 13 25 2 -8
BITMAP
FFC0
FFE0
C070
C070
C030
C070
C070
C1E0
FF80
FFE0
C0E0
C070
C070
C070
C070
C070
C038
0000
0000
0600
0600
0600
0200
0600
0C00
ENDCHAR
STARTCHAR 0157
ENCODING 343
SWIDTH 600 0
DWIDTH 15 0
BBX 13 21 1 -8
BITMAP
F9E0
FBF0
1E38
1C18
1C18
1C00
1C00
1C00
1C00
1C00
1C00
FFF0
FFF0
0000
0000
0600
0600
0600
0200
0600
0400
ENDCHAR
STARTCHAR 0158
ENCODING 344
SWIDTH 600 0
DWIDTH 15 0
BBX 13 22 2 0
BITMAP
71C0
1B00
0E00
0000
0000
FFC0
FFE0
C070
C070
C030
C070
C070
C1E0
FF80
FFE0
C0E0
C070
C070
C070
C070
C070
C038
ENDCHAR
STARTCHAR 0159
ENCODING 345
SWIDTH 600 0
DWIDTH 15 0
BBX 13 19 1 0
BITMAP
1860
0CC0
0D80
0780
0000
0000
F9E0
FBF0
1E38
1C18
1C18
1C00
1C00
1C00
1C00
1C00
1C00
FFF0
FFF0
ENDCHAR
STARTCHAR 015A
ENCODING 346
SWIDTH 600 0
DWIDTH 15 0
BBX 13 22 1 0
BITMAP
01C0
0180
0300
0400
0000
1FC0
7FF0
7070
E038
E038
7000
7C00
3F80
0FE0
01F0
0078
0038
C038
E038
F078
7FF0
1FC0
ENDCHAR
STARTCHAR 015B
ENCODING 347
SWIDTH 600 0
DWIDTH 15 0
BBX 11 19 2 0
BITMAP
0300
0700
0600
0C00
0000
0000
1F00
7FC0
E0E0
E0E0
E000
7E00
3FC0
07E0
00E0
C060
E0E0
7FC0
3F80
ENDCHAR
STARTCHAR 015C
ENCODING 348
SWIDTH 600 0
DWIDTH 15 0
BBX 13 22 1 0
BITMAP
0700
0D80
38E0
0000
0000
1FC0
7FF0
7070
E038
E038
7000
7C00
3F80
0FE0
01F0
0078
0038
C038
E038
F078
7FF0
1FC0
ENDCHAR
STARTCHAR 015D
ENCODING 349
SWIDTH 600 0
DWIDTH 15 0
BBX 11 19 2 0
BITMAP
0E00
1B00
1B00
3180
4040
0000
1F00
7FC0
E0E0
E0E0
E000
7E00
3FC0
07E0
00E0
C060
E0E0
7FC0
3F80
ENDCHAR
STARTCHAR 015E
ENCODING 350
SWIDTH 600 0
DWIDTH 15 0
BBX 13 22 1 -5
BITMAP
1FC0
7FF0
7070
E038
E038
7000
7C00
3F80
0FE0
01F0
0078
0038
C038
E038
F078
7FF0
1FC0
0000
0380
0080
0980
0F00
ENDCHAR
STARTCHAR 015F
ENCODING 351
SWIDTH 600 0
DWIDTH 15 0
BBX 11 18 2 -5
BITMAP
1F00
7FC0
E0E0
E0E0
E000
7E00
3FC0
07E0
00E0
C060
E0E0
7FC0
3F80
0000
0700
0100
1300
1E00
ENDCHAR
STARTCHAR 0160
ENCODING 352
SWIDTH 600 0
DWIDTH 15 0
BBX 13 22 1 0
BITMAP
38E0
0D80
0700
0000
0000
1FC0
7FF0
7070
E038
E038
7000
7C00
3F80
0FE0
01F0
0078
0038
C038
E038
F078
7FF0
1FC0
ENDCHAR
STARTCHAR 0161
ENCODING 353
SWIDTH 600 0
DWIDTH 15 0
BBX 11 19 2 0
BITMAP
71C0
3180
1B00
0E00
0000
0000
1F00
7FC0
E0E0
E0E0
E000
7E00
3FC0
07E0
00E0
C060
E0E0
7FC0
3F80
ENDCHAR
STARTCHAR 0162
ENCODING 354
SWIDTH 600 0
DWIDTH 15 0
BBX 13 22 1 -5
BITMAP
FFF8
FFF8
0700
0700
0700
0700
0700
0700
0700
0700
0700
0700
0700
0700
0700
0700
0700
0000
0380
0080
0980
0F00
ENDCHAR
STARTCHAR 0163
ENCODING 355
SWIDTH 600 0
DWIDTH 15 0
BBX 12 22 1 -5
BITMAP
0400
0400
0C00
0C00
FFF0
FFF0
0C00
0C00
0C00
0C00
0C00
0C00
0C00
0C00
0E00
07F0
03F0
0000
01C0
0060
0460
07C0
ENDCHAR
STARTCHAR 0164
ENCODING 356
SWIDTH 600 0
DWIDTH 15 0
BBX 13 22 1 0
BITMAP
38E0
0D80
0700
0000
0000
FFF8
FFF8
0700
0700
0700
0700
0700
0700
0700
0700
0700
0700
0700
0700
0700
0700
0700
ENDCHAR
STARTCHAR 0165
ENCODING 357
SWIDTH 600 0
DWIDTH 15 0
BBX 12 19 1 0
BITMAP
00E0
00E0
0460
0460
0C40
0C80
FFF0
FFF0
0C00
0C00
0C00
0C00
0C00
0C00
0C00
0C00
0E00
07F0
03F0
ENDCHAR
STARTCHAR 0166
ENCODING 358
SWIDTH 600 0
DWIDTH 15 0
BBX 13 17 1 0
BITMAP
FFF8
FFF8
0700
0700
0700
0700
0700
3FE0
3FE0
0700
0700
0700
0700
0700
0700
0700
0700
ENDCHAR
STARTCHAR 0167
ENCODING 359
SWIDTH 600 0
DWIDTH 15 0
BBX 12 17 1 0
BITMAP
0400
0400
0C00
0C00
FFF0
FFF0
0C00
0C00
0C00
7FE0
7FE0
0C00
0C00
0C00
0E00
07F0
03F0
ENDCHAR
STARTCHAR 0168
ENCODING 360
SWIDTH 600 0
DWIDTH 15 0
BBX 11 22 2 0
BITMAP
3CC0
7FC0
6380
0000
0000
C060
C060
C060
C060
C060
C060
C060
C060
C060
C060
C060
C060
C060
E0E0
E0E0
7FC0
3F80
ENDCHAR
STARTCHAR 0169
ENCODING 361
SWIDTH 600 0
DWIDTH 15 0
BBX 12 18 2 0
BITMAP
3CC0
7F80
4300
0000
0000
C0E0
C0E0
C0E0
C0E0
C0E0
C0E0
C0E0
C0E0
C0E0
E0E0
E1E0
7FF0
3E70
ENDCHAR
STARTCHAR 016A
ENCODING 362
SWIDTH 600 0
DWIDTH 15 0
BBX 11 21 2 0
BITMAP
3F80
0000
0000
0000
C060
C060
C060
C060
C060
C060
C060
C060
C060
C060
C060
C060
C060
E0E0
E0E0
7FC0
3F80
ENDCHAR
STARTCHAR 016B
ENCODING 363
SWIDTH 600 0
DWIDTH 15 0
BBX 12 17 2 0
BITMAP
7F80
0000
0000
0000
C0E0
C0E0
C0E0
C0E0
C0E0
C0E0
C0E0
C0E0
C0E0
E0E0
E1E0
7FF0
3E70
ENDCHAR
STARTCHAR 016C
ENCODING 364
SWIDTH 600 0
DWIDTH 15 0
BBX 11 22 2 0
BITMAP
60C0
3F80
1F00
0000
0000
C060
C060
C060
C060
C060
C060
C060
C060
C060
C060
C060
C060
C060
E0E0
E0E0
7FC0
3F80
ENDCHAR
STARTCHAR 016D
ENCODING 365
SWIDTH 600 0
DWIDTH 15 0
BBX 12 18 2 0
BITMAP
6180
3380
1F00
0000
0000
C0E0
C0E0
C0E0
C0E0
C0E0
C0E0
C0E0
C0E0
C0E0
E0E0
E1E0
7FF0
3E70
ENDCHAR
STARTCHAR 016E
ENCODING 366
SWIDTH 600 0
DWIDTH 15 0
BBX 11 24 2 0
BITMAP
0400
1F00
1100
1100
1F00
0000
0000
C060
C060
C060
C060
C060
C060
C060
C060
C060
C060
C060
C060
C060
E0E0
E0E0
7FC0
3F80
ENDCHAR
STARTCHAR 016F
ENCODING 367
SWIDTH 600 0
DWIDTH 15 0
BBX 12 20 2 0
BITMAP
0C00
1F00
1100
1300
1E00
0000
0000
C0E0
C0E0
C0E0
C0E0
C0E0
C0E0
C0E0
C0E0
C0E0
E0E0
E1E0
7FF0
3E70
ENDCHAR
STARTCHAR 0170
ENCODING 368
SWIDTH 600 0
DWIDTH 15 0
BBX 11 22 2 0
BITMAP
0EE0
1D80
3B80
0000
0000
C060
C060
C060
C060
C060
C060
C060
C060
C060
C060
C060
C060
C060
E0E0
E0E0
7FC0
3F80
ENDCHAR
STARTCHAR 0171
ENCODING 369
SWIDTH 600 0
DWIDTH 15 0
BBX 12 18 2 0
BITMAP
0EE0
1980
3300
0000
0000
C0E0
C0E0
C0E0
C0E0
C0E0
C0E0
C0E0
C0E0
C0E0
E0E0
E1E0
7FF0
3E70
ENDCHAR
STARTCHAR 0172
ENCODING 370
SWIDTH 600 0
DWIDTH 15 0
BBX 11 21 2 -4
BITMAP
C060
C060
C060
C060
C060
C060
C060
C060
C060
C060
C060
C060
C060
E0E0
E0E0
7FC0
3F80
0600
0600
07C0
0300
ENDCHAR
STARTCHAR 0173
ENCODING 371
SWIDTH 600 0
DWIDTH 15 0
BBX 14 17 2 -4
BITMAP
C0E0
C0E0
C0E0
C0E0
C0E0
C0E0
C0E0
C0E0
C0E0
E0E0
E1E0
7FF0
3E70
0020
0060
007C
0010
ENDCHAR
STARTCHAR 0174
ENCODING 372
SWIDTH 600 0
DWIDTH 15 0
BBX 15 22 0 0
BITMAP
0380
06C0
1C70
0000
0000
C386
E386
E38E
638C
638C
62CC
66CC
76CC
76CC
36DC
36D8
3478
3478
3C78
3C78
3C78
1C70
ENDCHAR
STARTCHAR 0175
ENCODING 373
SWIDTH 600 0
DWIDTH 15 0
BBX 15 19 0 0
BITMAP
0380
07C0
06C0
0C60
1010
0000
C386
C386
638E
63CC
66CC
66CC
76CC
3658
3478
3C78
3C78
1C78
1C30
ENDCHAR
STARTCHAR 0176
ENCODING 374
SWIDTH 600 0
DWIDTH 15 0
BBX 15 22 0 0
BITMAP
0380
06C0
1C70
0000
8002
700C
701C
3838
3838
1C70
1C70
0EE0
06E0
07C0
0380
0380
0380
0380
0380
0380
0380
0380
ENDCHAR
STARTCHAR 0177
ENCODING 375
SWIDTH 600 0
DWIDTH 15 0
BBX 13 24 1 -5
BITMAP
0700
0780
0DC0
18E0
0000
0000
E038
7030
7070
3060
3860
38E0
18C0
1CC0
0D80
0F80
0F80
0700
0700
0600
0600
4C00
7C00
3000
ENDCHAR
STARTCHAR 0178
ENCODING 376
SWIDTH 600 0
DWIDTH 15 0
BBX 15 22 0 0
BITMAP
0C60
0C60
0C60
0000
8002
700C
701C
3838
3838
1C70
1C70
0EE0
06E0
07C0
0380
0380
0380
0380
0380
0380
0380
0380
ENDCHAR
STARTCHAR 0179
ENCODING 377
SWIDTH 600 0
DWIDTH 15 0
BBX 13 22 1 0
BITMAP
01C0
0180
0300
0400
0000
7FF8
7FF0
0070
00E0
01C0
01C0
0380
0780
0700
0E00
0E00
1C00
3800
3800
7000
FFF8
FFF8
ENDCHAR
STARTCHAR 017A
ENCODING 378
SWIDTH 600 0
DWIDTH 15 0
BBX 9 19 3 0
BITMAP
0600
0E00
0C00
1800
0000
0000
FF80
FF80
0700
0700
0E00
0C00
1C00
3800
3800
7000
6000
FF80
FF80
ENDCHAR
STARTCHAR 017B
ENCODING 379
SWIDTH 600 0
DWIDTH 15 0
BBX 13 22 1 0
BITMAP
0700
0700
0700
0000
0000
7FF8
7FF0
0070
00E0
01C0
01C0
0380
0780
0700
0E00
0E00
1C00
3800
3800
7000
FFF8
FFF8
ENDCHAR
STARTCHAR 017C
ENCODING 380
SWIDTH 600 0
DWIDTH 15 0
BBX 9 18 3 0
BITMAP
1C00
1C00
1C00
0000
0000
FF80
FF80
0700
0700
0E00
0C00
1C00
3800
3800
7000
6000
FF80
FF80
ENDCHAR
STARTCHAR 017D
ENCODING 381
SWIDTH 600 0
DWIDTH 15 0
BBX 13 22 1 0
BITMAP
38E0
0D80
0700
0000
0000
7FF8
7FF0
0070
00E0
01C0
01C0
0380
0780
0700
0E00
0E00
1C00
3800
3800
7000
FFF8
FFF8
ENDCHAR
STARTCHAR 017E
ENCODING 382
SWIDTH 600 0
DWIDTH 15 0
BBX 9 19 3 0
BITMAP
E380
6300
3600
1C00
0000
0000
FF80
FF80
0700
0700
0E00
0C00
1C00
3800
3800
7000
6000
FF80
FF80
ENDCHAR
STARTCHAR 017F
ENCODING 383
SWIDTH 600 0
DWIDTH 15 0
BBX 12 18 2 0
BITMAP
03F0
0FF0
0E00
0C00
0C00
FC00
FC00
0C00
0C00
0C00
0C00
0C00
0C00
0C00
0C00
0C00
FFE0
FFE0
ENDCHAR
STARTCHAR 018F
ENCODING 399
SWIDTH 600 0
DWIDTH 15 0
BBX 13 17 1 0
BITMAP
1FC0
7FE0
7070
E030
E038
E038
0038
0038
FFF8
FFF8
E038
E038
E038
E030
7070
3FE0
1FC0
ENDCHAR
STARTCHAR 0191
ENCODING 401
SWIDTH 600 0
DWIDTH 15 0
BBX 14 22 -1 -5
BITMAP
1FFC
1FFC
1C00
1C00
1C00
1C00
1C00
1FF8
1FF8
1C00
1C00
1C00
1C00
1C00
1C00
1C00
1C00
1C00
1C00
9C00
F800
6000
ENDCHAR
STARTCHAR 0192
ENCODING 402
SWIDTH 600 0
DWIDTH 15 0
BBX 12 23 1 -5
BITMAP
01F0
03F0
0380
0300
0300
0FE0
0FE0
0700
0700
0600
0600
0600
0E00
0E00
0E00
0E00
0C00
0C00
0C00
1C00
9C00
F800
6000
ENDCHAR
STARTCHAR 0197
ENCODING 407
SWIDTH 600 0
DWIDTH 15 0
BBX 9 17 3 0
BITMAP
FF80
FF80
1C00
1C00
1C00
1C00
1C00
FF80
FF80
1C00
1C00
1C00
1C00
1C00
1C00
FF80
FF80
ENDCHAR
STARTCHAR 019D
ENCODING 413
SWIDTH 600 0
DWIDTH 15 0
BBX 14 22 -1 -5
BITMAP
1C0C
1C0C
1E0C
1E0C
1F0C
1B0C
1B8C
198C
19CC
18CC
18EC
186C
187C
183C
183C
181C
181C
1800
1800
B800
F800
6000
ENDCHAR
STARTCHAR 01A0
ENCODING 416
SWIDTH 600 0
DWIDTH 15 0
BBX 14 20 1 0
BITMAP
000C
000C
001C
1FD8
3FF0
7070
E038
E038
E038
E038
E038
E038
E038
E038
E038
E038
6030
7070
3FE0
1FC0
ENDCHAR
STARTCHAR 01A1
ENCODING 417
SWIDTH 600 0
DWIDTH 15 0
BBX 13 15 2 0
BITMAP
0018
0018
1F30
7FF0
60C0
E0E0
C060
C060
C060
C060
C060
E0E0
E0E0
7FC0
3F80
ENDCHAR
STARTCHAR 01AF
ENCODING 431
SWIDTH 600 0
DWIDTH 15 0
BBX 14 21 2 0
BITMAP
001C
001C
0018
0038
C070
C060
C060
C060
C060
C060
C060
C060
C060
C060
C060
C060
C060
E0E0
E0E0
7FC0
3F80
ENDCHAR
STARTCHAR 01B0
ENCODING 432
SWIDTH 600 0
DWIDTH 15 0
BBX 13 16 2 0
BITMAP
0018
0018
0038
C0F0
C0E0
C0E0
C0E0
C0E0
C0E0
C0E0
C0E0
C0E0
E0E0
E1E0
7FF0
3E70
ENDCHAR
STARTCHAR 01C4
ENCODING 452
SWIDTH 600 0
DWIDTH 15 0
BBX 13 22 1 0
BITMAP
0198
00F0
0070
0000
0000
F9F8
FDF8
CE18
C630
C630
C630
C670
C660
C660
C660
C6C0
C6C0
C6C0
C7C0
CF80
FDF8
F9F8
ENDCHAR
STARTCHAR 01C5
ENCODING 453
SWIDTH 600 0
DWIDTH 15 0
BBX 14 18 1 0
BITMAP
018C
F8D8
FC70
CE70
C600
C6F8
C6F8
C618
C630
C630
C630
C660
C660
C660
C6C0
CEC0
FDF8
F9F8
ENDCHAR
STARTCHAR 01C6
ENCODING 454
SWIDTH 600 0
DWIDTH 15 0
BBX 15 18 0 0
BITMAP
03C6
036C
0338
0318
0300
3B7E
7F7C
E70C
C30C
C318
C318
C310
C330
C330
C360
C760
7F7E
7BFE
ENDCHAR
STARTCHAR 01C7
ENCODING 455
SWIDTH 600 0
DWIDTH 15 0
BBX 11 22 2 -5
BITMAP
C060
C060
C060
C060
C060
C060
C060
C060
C060
C060
C060
C060
C060
C060
C060
FE60
FE60
0060
70E0
39E0
3FC0
0700
ENDCHAR
STARTCHAR 01C8
ENCODING 456
SWIDTH 600 0
DWIDTH 15 0
BBX 11 23 2 -5
BITMAP
00E0
E0E0
E0E0
E000
E000
E0E0
E0E0
E0E0
E0E0
E0E0
E0E0
E0E0
E0E0
E0E0
E0E0
E0E0
FFE0
FFE0
00E0
00E0
08E0
0FC0
0300
ENDCHAR
STARTCHAR 01C9
ENCODING 457
SWIDTH 600 0
DWIDTH 15 0
BBX 11 23 2 -5
BITMAP
E0E0
E0E0
E0E0
E000
E000
E7E0
E7E0
E0E0
E0E0
E0E0
E0E0
E0E0
E0E0
E0E0
E0E0
E0E0
E0E0
E0E0
00E0
00E0
11C0
0FC0
0700
ENDCHAR
STARTCHAR 01CA
ENCODING 458
SWIDTH 600 0
DWIDTH 15 0
BBX 11 22 2 -5
BITMAP
C660
C660
E660
E660
E660
E660
F660
F660
D660
DE60
DE60
CE60
CE60
CE60
CE60
C660
C660
0060
3060
38E0
1FC0
0700
ENDCHAR
STARTCHAR 01CB
ENCODING 459
SWIDTH 600 0
DWIDTH 15 0
BBX 12 23 2 -5
BITMAP
0070
C770
E770
E700
E700
E760
F760
F760
D760
D760
DF60
DF60
CF60
CF60
CF60
C760
C760
C760
0060
0060
04E0
07C0
0300
ENDCHAR
STARTCHAR 01CC
ENCODING 460
SWIDTH 600 0
DWIDTH 15 0
BBX 13 23 1 -5
BITMAP
0038
0038
0038
0000
0000
DC18
FE18
E618
C718
C718
C718
C718
C718
C718
C718
C718
C718
C718
0018
0038
0230
03F0
01C0
ENDCHAR
STARTCHAR 01CD
ENCODING 461
SWIDTH 600 0
DWIDTH 15 0
BBX 15 22 0 0
BITMAP
1C70
06C0
0380
0000
0000
0380
07C0
07C0
06C0
0EE0
0CE0
0C60
1C70
1C70
1830
3838
3FF8
3FF8
701C
701C
600C
E00E
ENDCHAR
STARTCHAR 01CE
ENCODING 462
SWIDTH 600 0
DWIDTH 15 0
BBX 12 19 2 0
BITMAP
6180
3300
1B00
0E00
0000
0000
3F00
7FC0
E1C0
C0C0
00C0
01C0
7FC0
E0C0
C0C0
C0C0
C1C0
FFF0
7EF0
ENDCHAR
STARTCHAR 01CF
ENCODING 463
SWIDTH 600 0
DWIDTH 15 0
BBX 9 22 3 0
BITMAP
E380
3600
1C00
0000
0000
FF80
FF80
1C00
1C00
1C00
1C00
1C00
1C00
1C00
1C00
1C00
1C00
1C00
1C00
1C00
FF80
FF80
ENDCHAR
STARTCHAR 01D0
ENCODING 464
SWIDTH 600 0
DWIDTH 15 0
BBX 12 19 2 0
BITMAP
30C0
1980
0F00
0F00
0000
0000
FE00
FE00
0600
0600
0600
0600
0600
0600
0600
0600
0600
FFF0
FFF0
ENDCHAR
STARTCHAR 01D1
ENCODING 465
SWIDTH 600 0
DWIDTH 15 0
BBX 13 22 1 0
BITMAP
38E0
0D80
0700
0000
0000
1FC0
3FE0
7070
E038
E038
E038
E038
E038
E038
E038
E038
E038
E038
6030
7070
3FE0
1FC0
ENDCHAR
STARTCHAR 01D2
ENCODING 466
SWIDTH 600 0
DWIDTH 15 0
BBX 11 19 2 0
BITMAP
71C0
3180
1B00
0E00
0000
0000
1F00
7FC0
60C0
E0E0
C060
C060
C060
C060
C060
E0E0
E0E0
7FC0
3F80
ENDCHAR
STARTCHAR 01D3
ENCODING 467
SWIDTH 600 0
DWIDTH 15 0
BBX 11 22 2 0
BITMAP
71C0
1B00
0E00
0000
0000
C060
C060
C060
C060
C060
C060
C060
C060
C060
C060
C060
C060
C060
E0E0
E0E0
7FC0
3F80
ENDCHAR
STARTCHAR 01D4
ENCODING 468
SWIDTH 600 0
DWIDTH 15 0
BBX 12 19 2 0
BITMAP
6180
3300
1B00
0E00
0000
0000
C0E0
C0E0
C0E0
C0E0
C0E0
C0E0
C0E0
C0E0
C0E0
E0E0
E1E0
7FF0
3E70
ENDCHAR
STARTCHAR 01D5
ENCODING 469
SWIDTH 600 0
DWIDTH 15 0
BBX 11 25 2 0
BITMAP
3FC0
3FC0
0000
39C0
39C0
39C0
0000
0000
C060
C060
C060
C060
C060
C060
C060
C060
C060
C060
C060
C060
C060
E0E0
E0E0
7FC0
3F80
ENDCHAR
STARTCHAR 01D6
ENCODING 470
SWIDTH 600 0
DWIDTH 15 0
BBX 12 21 2 0
BITMAP
7F80
7F80
0000
7380
7380
7380
0000
0000
C0E0
C0E0
C0E0
C0E0
C0E0
C0E0
C0E0
C0E0
C0E0
E0E0
E1E0
7FF0
3E70
ENDCHAR
STARTCHAR 01D7
ENCODING 471
SWIDTH 600 0
DWIDTH 15 0
BBX 11 26 2 0
BITMAP
03C0
0300
0600
0000
71C0
71C0
71C0
0000
0000
C060
C060
C060
C060
C060
C060
C060
C060
C060
C060
C060
C060
C060
E0E0
E0E0
7FC0
3F80
ENDCHAR
STARTCHAR 01D8
ENCODING 472
SWIDTH 600 0
DWIDTH 15 0
BBX 12 23 2 0
BITMAP
0380
0300
0600
0800
0000
71C0
71C0
71C0
0000
0000
C0E0
C0E0
C0E0
C0E0
C0E0
C0E0
C0E0
C0E0
C0E0
E0E0
E1E0
7FF0
3E70
ENDCHAR
STARTCHAR 01D9
ENCODING 473
SWIDTH 600 0
DWIDTH 15 0
BBX 11 26 2 0
BITMAP
71C0
3B80
1F00
0000
71C0
71C0
71C0
0000
0000
C060
C060
C060
C060
C060
C060
C060
C060
C060
C060
C060
C060
C060
E0E0
E0E0
7FC0
3F80
ENDCHAR
STARTCHAR 01DA
ENCODING 474
SWIDTH 600 0
DWIDTH 15 0
BBX 12 22 2 0
BITMAP
73C0
1F00
0E00
0000
71C0
71C0
71C0
0000
0000
C0E0
C0E0
C0E0
C0E0
C0E0
C0E0
C0E0
C0E0
C0E0
E0E0
E1E0
7FF0
3E70
ENDCHAR
STARTCHAR 01DB
ENCODING 475
SWIDTH 600 0
DWIDTH 15 0
BBX 11 26 2 0
BITMAP
3800
1800
0E00
0000
71C0
71C0
71C0
0000
0000
C060
C060
C060
C060
C060
C060
C060
C060
C060
C060
C060
C060
C060
E0E0
E0E0
7FC0
3F80
ENDCHAR
STARTCHAR 01DC
ENCODING 476
SWIDTH 600 0
DWIDTH 15 0
BBX 12 23 2 0
BITMAP
7000
1800
1C00
0000
0000
71C0
71C0
71C0
0000
0000
C0E0
C0E0
C0E0
C0E0
C0E0
C0E0
C0E0
C0E0
C0E0
E0E0
E1E0
7FF0
3E70
ENDCHAR
STARTCHAR 01E4
ENCODING 484
SWIDTH 600 0
DWIDTH 15 0
BBX 14 17 1 0
BITMAP
1FC0
3FE0
7070
E038
E038
E038
E000
E000
E3F8
E3F8
E038
E1FC
E1FC
6038
7078
3FD8
1F98
ENDCHAR
STARTCHAR 01E5
ENCODING 485
SWIDTH 600 0
DWIDTH 15 0
BBX 16 20 0 -5
BITMAP
000C
000C
07F8
1FF0
1838
3818
3818
1838
1FF0
1FE0
3800
3000
3800
1FF8
3FFC
F00F
FFFF
701C
3FF8
1FF0
ENDCHAR
STARTCHAR 01E6
ENCODING 486
SWIDTH 600 0
DWIDTH 15 0
BBX 13 22 1 0
BITMAP
38E0
0D80
0700
0000
0000
1FC0
3FE0
7070
E038
E038
E038
E000
E000
E3F8
E3F8
E038
E038
E038
6038
7078
3FD8
1F98
ENDCHAR
STARTCHAR 01E7
ENCODING 487
SWIDTH 600 0
DWIDTH 15 0
BBX 13 24 1 -5
BITMAP
38E0
18C0
0D80
0700
0018
0018
0FF0
3FE0
3070
7030
7030
3070
3FE0
3FC0
7000
6000
7000
3FF0
7FF8
E018
C018
E038
7FF0
3FE0
ENDCHAR
STARTCHAR 01EA
ENCODING 490
SWIDTH 600 0
DWIDTH 15 0
BBX 13 21 1 -4
BITMAP
1FC0
3FE0
7070
E038
E038
E038
E038
E038
E038
E038
E038
E038
E038
6030
7070
3FE0
1FC0
0300
0300
03E0
0180
ENDCHAR
STARTCHAR 01EB
ENCODING 491
SWIDTH 600 0
DWIDTH 15 0
BBX 11 17 2 -4
BITMAP
1F00
7FC0
60C0
E0E0
C060
C060
C060
C060
C060
E0E0
E0E0
7FC0
3F80
0600
0C00
0F80
0300
ENDCHAR
STARTCHAR 01FA
ENCODING 506
SWIDTH 600 0
DWIDTH 15 0
BBX 15 28 0 0
BITMAP
00C0
00C0
0180
0000
0100
07C0
0440
0440
07C0
0100
0000
0380
07C0
07C0
06C0
0EE0
0CE0
0C60
1C70
1C70
1830
3838
3FF8
3FF8
701C
701C
600C
E00E
ENDCHAR
STARTCHAR 01FB
ENCODING 507
SWIDTH 600 0
DWIDTH 15 0
BBX 12 24 2 0
BITMAP
0300
0600
0600
0000
0C00
1F00
1300
1300
1E00
0000
0000
3F00
7FC0
E1C0
C0C0
00C0
01C0
7FC0
E0C0
C0C0
C0C0
C1C0
FFF0
7EF0
ENDCHAR
STARTCHAR 01FC
ENCODING 508
SWIDTH 600 0
DWIDTH 15 0
BBX 15 22 0 0
BITMAP
0038
0060
00C0
0000
0000
07FE
07FC
07C0
0FC0
0DC0
0DC0
1DC0
1DF8
19F8
39C0
39C0
3FC0
7FC0
71C0
61C0
E1FC
E1FE
ENDCHAR
STARTCHAR 01FD
ENCODING 509
SWIDTH 600 0
DWIDTH 15 0
BBX 15 19 0 0
BITMAP
00C0
01C0
0180
0300
0000
0000
3C78
7EFC
638C
638C
0386
03FE
3FFE
6380
E386
C386
C38C
7EFC
7CF8
ENDCHAR
STARTCHAR 01FE
ENCODING 510
SWIDTH 600 0
DWIDTH 15 0
BBX 13 24 1 -2
BITMAP
01C0
0180
0300
0408
0018
1FF0
3FE0
7070
E078
E0F8
E1B8
E138
E338
E238
E638
EC38
E838
F838
7030
7070
7FE0
5FC0
C000
8000
ENDCHAR
STARTCHAR 01FF
ENCODING 511
SWIDTH 600 0
DWIDTH 15 0
BBX 11 20 2 -1
BITMAP
0300
0700
0600
0C00
0000
0060
1FC0
7FC0
61C0
E1E0
C360
C660
C460
CC60
D860
F0E0
F0E0
7FC0
7F80
C000
ENDCHAR
STARTCHAR 0200
ENCODING 512
SWIDTH 600 0
DWIDTH 15 0
BBX 15 22 0 0
BITMAP
3B80
1980
0CC0
0220
0000
0380
07C0
07C0
06C0
0EE0
0CE0
0C60
1C70
1C70
1830
3838
3FF8
3FF8
701C
701C
600C
E00E
ENDCHAR
STARTCHAR 0201
ENCODING 513
SWIDTH 600 0
DWIDTH 15 0
BBX 12 18 2 0
BITMAP
EE00
6600
3300
0000
0000
3F00
7FC0
E1C0
C0C0
00C0
01C0
7FC0
E0C0
C0C0
C0C0
C1C0
FFF0
7EF0
ENDCHAR
STARTCHAR 0202
ENCODING 514
SWIDTH 600 0
DWIDTH 15 0
BBX 15 22 0 0
BITMAP
0FE0
1C70
1830
0000
0000
0380
07C0
07C0
06C0
0EE0
0CE0
0C60
1C70
1C70
1830
3838
3FF8
3FF8
701C
701C
600C
E00E
ENDCHAR
STARTCHAR 0203
ENCODING 515
SWIDTH 600 0
DWIDTH 15 0
BBX 12 19 2 0
BITMAP
0400
3F80
61C0
40C0
0000
0000
3F00
7FC0
E1C0
C0C0
00C0
01C0
7FC0
E0C0
C0C0
C0C0
C1C0
FFF0
7EF0
ENDCHAR
STARTCHAR 0204
ENCODING 516
SWIDTH 600 0
DWIDTH 15 0
BBX 12 22 2 0
BITMAP
EE00
3300
3B80
0000
0000
FFE0
FFE0
E000
E000
E000
E000
E000
FFC0
FFC0
E000
E000
E000
E000
E000
E000
FFE0
FFF0
ENDCHAR
STARTCHAR 0205
ENCODING 517
SWIDTH 600 0
DWIDTH 15 0
BBX 11 18 2 0
BITMAP
EE00
3300
3B80
0000
0000
1F00
7FC0
60C0
E0E0
C060
FFE0
FFE0
C000
C060
E060
E0E0
7FC0
3F80
ENDCHAR
STARTCHAR 0206
ENCODING 518
SWIDTH 600 0
DWIDTH 15 0
BBX 12 22 2 0
BITMAP
1F80
30C0
6060
0000
0000
FFE0
FFE0
E000
E000
E000
E000
E000
FFC0
FFC0
E000
E000
E000
E000
E000
E000
FFE0
FFF0
ENDCHAR
STARTCHAR 0207
ENCODING 519
SWIDTH 600 0
DWIDTH 15 0
BBX 11 19 2 0
BITMAP
0400
3F80
70C0
60C0
0000
0000
1F00
7FC0
60C0
E0E0
C060
FFE0
FFE0
C000
C060
E060
E0E0
7FC0
3F80
ENDCHAR
STARTCHAR 0208
ENCODING 520
SWIDTH 600 0
DWIDTH 15 0
BBX 10 22 2 0
BITMAP
EE00
6600
3300
0880
0000
7FC0
7FC0
0E00
0E00
0E00
0E00
0E00
0E00
0E00
0E00
0E00
0E00
0E00
0E00
0E00
7FC0
7FC0
ENDCHAR
STARTCHAR 0209
ENCODING 521
SWIDTH 600 0
DWIDTH 15 0
BBX 12 18 2 0
BITMAP
EE00
3300
1980
0000
0000
FE00
FE00
0600
0600
0600
0600
0600
0600
0600
0600
0600
FFF0
FFF0
ENDCHAR
STARTCHAR 020A
ENCODING 522
SWIDTH 600 0
DWIDTH 15 0
BBX 9 22 3 0
BITMAP
7F00
E380
C180
0000
0000
FF80
FF80
1C00
1C00
1C00
1C00
1C00
1C00
1C00
1C00
1C00
1C00
1C00
1C00
1C00
FF80
FF80
ENDCHAR
STARTCHAR 020B
ENCODING 523
SWIDTH 600 0
DWIDTH 15 0
BBX 12 19 2 0
BITMAP
0200
1F80
30C0
6060
0000
0000
FE00
FE00
0600
0600
0600
0600
0600
0600
0600
0600
0600
FFF0
FFF0
ENDCHAR
STARTCHAR 020C
ENCODING 524
SWIDTH 600 0
DWIDTH 15 0
BBX 13 22 1 0
BITMAP
7700
3300
1980
0440
0000
1FC0
3FE0
7070
E038
E038
E038
E038
E038
E038
E038
E038
E038
E038
6030
7070
3FE0
1FC0
ENDCHAR
STARTCHAR 020D
ENCODING 525
SWIDTH 600 0
DWIDTH 15 0
BBX 11 18 2 0
BITMAP
EE00
7600
3300
0880
0000
1F00
7FC0
60C0
E0E0
C060
C060
C060
C060
C060
E0E0
E0E0
7FC0
3F80
ENDCHAR
STARTCHAR 020E
ENCODING 526
SWIDTH 600 0
DWIDTH 15 0
BBX 13 22 1 0
BITMAP
1FC0
38E0
3060
0000
0000
1FC0
3FE0
7070
E038
E038
E038
E038
E038
E038
E038
E038
E038
E038
6030
7070
3FE0
1FC0
ENDCHAR
STARTCHAR 020F
ENCODING 527
SWIDTH 600 0
DWIDTH 15 0
BBX 11 19 2 0
BITMAP
0400
3F80
71C0
60C0
0000
0000
1F00
7FC0
60C0
E0E0
C060
C060
C060
C060
C060
E0E0
E0E0
7FC0
3F80
ENDCHAR
STARTCHAR 0210
ENCODING 528
SWIDTH 600 0
DWIDTH 15 0
BBX 13 22 2 0
BITMAP
EE00
6600
3300
0880
0000
FFC0
FFE0
C070
C070
C030
C070
C070
C1E0
FF80
FFE0
C0E0
C070
C070
C070
C070
C070
C038
ENDCHAR
STARTCHAR 0211
ENCODING 529
SWIDTH 600 0
DWIDTH 15 0
BBX 13 18 1 0
BITMAP
7700
1980
0CC0
0000
0000
F9E0
FBF0
1E38
1C18
1C18
1C00
1C00
1C00
1C00
1C00
1C00
FFF0
FFF0
ENDCHAR
STARTCHAR 0212
ENCODING 530
SWIDTH 600 0
DWIDTH 15 0
BBX 13 22 2 0
BITMAP
3F80
71C0
60C0
0000
0000
FFC0
FFE0
C070
C070
C030
C070
C070
C1E0
FF80
FFE0
C0E0
C070
C070
C070
C070
C070
C038
ENDCHAR
STARTCHAR 0213
ENCODING 531
SWIDTH 600 0
DWIDTH 15 0
BBX 13 19 1 0
BITMAP
0300
0FC0
1860
3030
0000
0000
F9E0
FBF0
1E38
1C18
1C18
1C00
1C00
1C00
1C00
1C00
1C00
FFF0
FFF0
ENDCHAR
STARTCHAR 0214
ENCODING 532
SWIDTH 600 0
DWIDTH 15 0
BBX 11 22 2 0
BITMAP
EE00
6600
3300
0880
0000
C060
C060
C060
C060
C060
C060
C060
C060
C060
C060
C060
C060
C060
E0E0
E0E0
7FC0
3F80
ENDCHAR
STARTCHAR 0215
ENCODING 533
SWIDTH 600 0
DWIDTH 15 0
BBX 12 18 2 0
BITMAP
EE00
6600
3300
0000
0000
C0E0
C0E0
C0E0
C0E0
C0E0
C0E0
C0E0
C0E0
C0E0
E0E0
E1E0
7FF0
3E70
ENDCHAR
STARTCHAR 0216
ENCODING 534
SWIDTH 600 0
DWIDTH 15 0
BBX 11 22 2 0
BITMAP
3F80
71C0
60C0
0000
0000
C060
C060
C060
C060
C060
C060
C060
C060
C060
C060
C060
C060
C060
E0E0
E0E0
7FC0
3F80
ENDCHAR
STARTCHAR 0217
ENCODING 535
SWIDTH 600 0
DWIDTH 15 0
BBX 12 19 2 0
BITMAP
0400
3F80
61C0
40C0
0000
0000
C0E0
C0E0
C0E0
C0E0
C0E0
C0E0
C0E0
C0E0
C0E0
E0E0
E1E0
7FF0
3E70
ENDCHAR
STARTCHAR 0218
ENCODING 536
SWIDTH 600 0
DWIDTH 15 0
BBX 13 25 1 -8
BITMAP
1FC0
7FF0
7070
E038
E038
7000
7C00
3F80
0FE0
01F0
0078
0038
C038
E038
F078
7FF0
1FC0
0000
0000
0700
0700
0700
0300
0200
0600
ENDCHAR
STARTCHAR 0219
ENCODING 537
SWIDTH 600 0
DWIDTH 15 0
BBX 11 21 2 -8
BITMAP
1F00
7FC0
E0E0
E0E0
E000
7E00
3FC0
07E0
00E0
C060
E0E0
7FC0
3F80
0000
0000
0E00
0E00
0E00
0600
0400
0C00
ENDCHAR
STARTCHAR 021A
ENCODING 538
SWIDTH 600 0
DWIDTH 15 0
BBX 13 25 1 -8
BITMAP
FFF8
FFF8
0700
0700
0700
0700
0700
0700
0700
0700
0700
0700
0700
0700
0700
0700
0700
0000
0000
0700
0700
0700
0300
0200
0600
ENDCHAR
STARTCHAR 021B
ENCODING 539
SWIDTH 600 0
DWIDTH 15 0
BBX 12 25 1 -8
BITMAP
0400
0400
0C00
0C00
FFF0
FFF0
0C00
0C00
0C00
0C00
0C00
0C00
0C00
0C00
0E00
07F0
03F0
0000
0000
0180
0180
0180
0080
0180
0100
ENDCHAR
STARTCHAR 022A
ENCODING 554
SWIDTH 600 0
DWIDTH 15 0
BBX 13 25 1 0
BITMAP
1FE0
1FE0
0000
1CE0
1CE0
1CE0
0000
0000
1FC0
3FE0
7070
E038
E038
E038
E038
E038
E038
E038
E038
E038
E038
6030
7070
3FE0
1FC0
ENDCHAR
STARTCHAR 022B
ENCODING 555
SWIDTH 600 0
DWIDTH 15 0
BBX 11 21 2 0
BITMAP
3FC0
3FC0
0000
39C0
39C0
39C0
0000
0000
1F00
7FC0
60C0
E0E0
C060
C060
C060
C060
C060
E0E0
E0E0
7FC0
3F80
ENDCHAR
STARTCHAR 022C
ENCODING 556
SWIDTH 600 0
DWIDTH 15 0
BBX 13 24 1 0
BITMAP
3FE0
0000
1C20
3FE0
2180
0000
0000
1FC0
3FE0
7070
E038
E038
E038
E038
E038
E038
E038
E038
E038
E038
6030
7070
3FE0
1FC0
ENDCHAR
STARTCHAR 022D
ENCODING 557
SWIDTH 600 0
DWIDTH 15 0
BBX 11 21 2 0
BITMAP
7FC0
7FC0
0000
3C40
7FC0
4100
0000
0000
1F00
7FC0
60C0
E0E0
C060
C060
C060
C060
C060
E0E0
E0E0
7FC0
3F80
ENDCHAR
STARTCHAR 0230
ENCODING 560
SWIDTH 600 0
DWIDTH 15 0
BBX 13 25 1 0
BITMAP
1FC0
1FC0
0000
0700
0700
0700
0000
0000
1FC0
3FE0
7070
E038
E038
E038
E038
E038
E038
E038
E038
E038
E038
6030
7070
3FE0
1FC0
ENDCHAR
STARTCHAR 0231
ENCODING 561
SWIDTH 600 0
DWIDTH 15 0
BBX 11 21 2 0
BITMAP
3F80
3F80
0000
0E00
0E00
0E00
0000
0000
1F00
7FC0
60C0
E0E0
C060
C060
C060
C060
C060
E0E0
E0E0
7FC0
3F80
ENDCHAR
STARTCHAR 0232
ENCODING 562
SWIDTH 600 0
DWIDTH 15 0
BBX 15 21 0 0
BITMAP
0FE0
0000
0000
8002
700C
701C
3838
3838
1C70
1C70
0EE0
06E0
07C0
0380
0380
0380
0380
0380
0380
0380
0380
ENDCHAR
STARTCHAR 0233
ENCODING 563
SWIDTH 600 0
DWIDTH 15 0
BBX 13 22 1 -5
BITMAP
1FE0
0000
0000
0000
E038
7030
7070
3060
3860
38E0
18C0
1CC0
0D80
0F80
0F80
0700
0700
0600
0600
4C00
7C00
3000
ENDCHAR
STARTCHAR 0237
ENCODING 567
SWIDTH 600 0
DWIDTH 15 0
BBX 7 18 2 -5
BITMAP
FE
FE
06
06
06
06
06
06
06
06
06
06
06
06
06
8E
FC
30
ENDCHAR
STARTCHAR 0244
ENCODING 580
SWIDTH 600 0
DWIDTH 15 0
BBX 15 17 0 0
BITMAP
3018
3018
3018
3018
3018
3018
FFFE
FFFE
3018
3018
3018
3018
3018
3838
3838
1FF0
0FE0
ENDCHAR
STARTCHAR 0259
ENCODING 601
SWIDTH 600 0
DWIDTH 15 0
BBX 11 13 2 0
BITMAP
1F00
7FC0
E0E0
C0E0
C060
0060
FFE0
FFE0
C060
C0E0
E0E0
7FC0
3F80
ENDCHAR
STARTCHAR 0268
ENCODING 616
SWIDTH 600 0
DWIDTH 15 0
BBX 12 18 2 0
BITMAP
0600
0600
0600
0000
0000
FE00
FE00
0600
0600
0600
3FC0
3FC0
0600
0600
0600
0600
FFF0
FFF0
ENDCHAR
STARTCHAR 026A
ENCODING 618
SWIDTH 600 0
DWIDTH 15 0
BBX 7 13 4 0
BITMAP
FE
FE
38
38
38
38
38
38
38
38
38
FE
FE
ENDCHAR
STARTCHAR 0272
ENCODING 626
SWIDTH 600 0
DWIDTH 15 0
BBX 14 18 -1 -5
BITMAP
19F0
1BF8
1E3C
1C1C
1C1C
1C1C
1C1C
1C1C
1C1C
1C1C
1C1C
1C1C
1C1C
1C00
1C00
9C00
F800
6000
ENDCHAR
STARTCHAR 0289
ENCODING 649
SWIDTH 600 0
DWIDTH 15 0
BBX 14 13 0 0
BITMAP
3038
3038
3038
3038
3038
FFFC
FFFC
3038
3038
3838
3878
1FFC
0F9C
ENDCHAR
STARTCHAR 02B9
ENCODING 697
SWIDTH 600 0
DWIDTH 15 0
BBX 3 4 6 14
BITMAP
60
E0
C0
C0
ENDCHAR
STARTCHAR 02BA
ENCODING 698
SWIDTH 600 0
DWIDTH 15 0
BBX 7 4 4 14
BITMAP
66
EC
CC
CC
ENDCHAR
STARTCHAR 02BC
ENCODING 700
SWIDTH 600 0
DWIDTH 15 0
BBX 3 5 6 14
BITMAP
E0
E0
60
40
C0
ENDCHAR
STARTCHAR 02C6
ENCODING 710
SWIDTH 600 0
DWIDTH 15 0
BBX 9 4 3 15
BITMAP
1C00
3600
3600
E380
ENDCHAR
STARTCHAR 02C7
ENCODING 711
SWIDTH 600 0
DWIDTH 15 0
BBX 9 4 3 15
BITMAP
E380
6300
3600
1C00
ENDCHAR
STARTCHAR 02C9
ENCODING 713
SWIDTH 600 0
DWIDTH 15 0
BBX 7 1 4 17
BITMAP
FE
ENDCHAR
STARTCHAR 02CD
ENCODING 717
SWIDTH 600 0
DWIDTH 15 0
BBX 7 2 4 -4
BITMAP
FE
FE
ENDCHAR
STARTCHAR 02D8
ENCODING 728
SWIDTH 600 0
DWIDTH 15 0
BBX 9 3 3 15
BITMAP
C180
7700
3E00
ENDCHAR
STARTCHAR 02D9
ENCODING 729
SWIDTH 600 0
DWIDTH 15 0
BBX 3 3 6 15
BITMAP
E0
E0
E0
ENDCHAR
STARTCHAR 02DA
ENCODING 730
SWIDTH 600 0
DWIDTH 15 0
BBX 5 5 5 15
BITMAP
30
F8
88
88
F8
ENDCHAR
STARTCHAR 02DB
ENCODING 731
SWIDTH 600 0
DWIDTH 15 0
BBX 5 4 5 -4
BITMAP
60
C0
F8
20
ENDCHAR
STARTCHAR 02DC
ENCODING 732
SWIDTH 600 0
DWIDTH 15 0
BBX 9 3 3 15
BITMAP
7980
DF80
8700
ENDCHAR
STARTCHAR 02DD
ENCODING 733
SWIDTH 600 0
DWIDTH 15 0
BBX 9 3 3 15
BITMAP
3B80
6600
CC00
ENDCHAR
STARTCHAR 0300
ENCODING 768
SWIDTH 0 0
DWIDTH 0 0
BBX 5 4 5 15
BITMAP
E0
60
30
38
ENDCHAR
STARTCHAR 0301
ENCODING 769
SWIDTH 0 0
DWIDTH 0 0
BBX 5 4 5 15
BITMAP
38
30
60
E0
ENDCHAR
STARTCHAR 0302
ENCODING 770
SWIDTH 0 0
DWIDTH 0 0
BBX 9 4 3 15
BITMAP
1C00
3600
3600
E380
ENDCHAR
STARTCHAR 0303
ENCODING 771
SWIDTH 0 0
DWIDTH 0 0
BBX 9 3 3 15
BITMAP
7980
DF80
8700
ENDCHAR
STARTCHAR 0304
ENCODING 772
SWIDTH 0 0
DWIDTH 0 0
BBX 7 1 4 16
BITMAP
FE
ENDCHAR
STARTCHAR 0306
ENCODING 774
SWIDTH 0 0
DWIDTH 0 0
BBX 9 3 3 15
BITMAP
C180
7700
3E00
ENDCHAR
STARTCHAR 0307
ENCODING 775
SWIDTH 0 0
DWIDTH 0 0
BBX 3 3 6 15
BITMAP
E0
E0
E0
ENDCHAR
STARTCHAR 0308
ENCODING 776
SWIDTH 0 0
DWIDTH 0 0
BBX 7 3 4 15
BITMAP
C6
C6
C6
ENDCHAR
STARTCHAR 0309
ENCODING 777
SWIDTH 0 0
DWIDTH 0 0
BBX 5 6 5 14
BITMAP
60
F0
18
18
30
60
ENDCHAR
STARTCHAR 030A
ENCODING 778
SWIDTH 0 0
DWIDTH 0 0
BBX 5 5 5 15
BITMAP
30
F8
88
88
F8
ENDCHAR
STARTCHAR 030B
ENCODING 779
SWIDTH 0 0
DWIDTH 0 0
BBX 9 3 3 15
BITMAP
3B80
6600
CC00
ENDCHAR
STARTCHAR 030C
ENCODING 780
SWIDTH 0 0
DWIDTH 0 0
BBX 9 4 3 15
BITMAP
E380
6300
3600
1C00
ENDCHAR
STARTCHAR 030F
ENCODING 783
SWIDTH 0 0
DWIDTH 0 0
BBX 9 3 3 15
BITMAP
EE00
3300
3B80
ENDCHAR
STARTCHAR 0311
ENCODING 785
SWIDTH 0 0
DWIDTH 0 0
BBX 9 4 3 15
BITMAP
0800
7F00
E380
C180
ENDCHAR
STARTCHAR 0312
ENCODING 786
SWIDTH 0 0
DWIDTH 0 0
BBX 3 6 6 15
BITMAP
60
40
C0
E0
E0
E0
ENDCHAR
STARTCHAR 0313
ENCODING 787
SWIDTH 0 0
DWIDTH 0 0
BBX 3 6 6 15
BITMAP
E0
E0
E0
60
40
C0
ENDCHAR
STARTCHAR 031B
ENCODING 795
SWIDTH 0 0
DWIDTH 0 0
BBX 5 5 5 11
BITMAP
38
30
30
E0
80
ENDCHAR
STARTCHAR 0323
ENCODING 803
SWIDTH 0 0
DWIDTH 0 0
BBX 3 2 6 -4
BITMAP
E0
E0
ENDCHAR
STARTCHAR 0324
ENCODING 804
SWIDTH 0 0
DWIDTH 0 0
BBX 7 3 4 -5
BITMAP
C6
C6
C6
ENDCHAR
STARTCHAR 0326
ENCODING 806
SWIDTH 0 0
DWIDTH 0 0
BBX 3 6 6 -8
BITMAP
E0
E0
E0
60
40
C0
ENDCHAR
STARTCHAR 0327
ENCODING 807
SWIDTH 0 0
DWIDTH 0 0
BBX 5 4 5 -5
BITMAP
38
08
98
F0
ENDCHAR
STARTCHAR 0328
ENCODING 808
SWIDTH 0 0
DWIDTH 0 0
BBX 5 4 5 -4
BITMAP
60
C0
F8
20
ENDCHAR
STARTCHAR 032E
ENCODING 814
SWIDTH 0 0
DWIDTH 0 0
BBX 9 4 3 -6
BITMAP
C180
E380
7F00
0800
ENDCHAR
STARTCHAR 0330
ENCODING 816
SWIDTH 0 0
DWIDTH 0 0
BBX 9 3 3 -5
BITMAP
7980
DF80
8700
ENDCHAR
STARTCHAR 0331
ENCODING 817
SWIDTH 0 0
DWIDTH 0 0
BBX 7 2 4 -4
BITMAP
FE
FE
ENDCHAR
STARTCHAR 0335
ENCODING 821
SWIDTH 0 0
DWIDTH 0 0
BBX 9 2 3 8
BITMAP
FF80
FF80
ENDCHAR
STARTCHAR 0336
ENCODING 822
SWIDTH 0 0
DWIDTH 0 0
BBX 15 2 0 8
BITMAP
FFFE
FFFE
ENDCHAR
STARTCHAR 0337
ENCODING 823
SWIDTH 0 0
DWIDTH 0 0
BBX 9 7 3 6
BITMAP
0080
0180
0780
1E00
7800
E000
8000
ENDCHAR
STARTCHAR 0338
ENCODING 824
SWIDTH 0 0
DWIDTH 0 0
BBX 11 15 2 -1
BITMAP
0060
00C0
0080
0180
0100
0300
0600
0400
0C00
1800
1000
3000
2000
4000
C000
ENDCHAR
STARTCHAR 0394
ENCODING 916
SWIDTH 600 0
DWIDTH 15 0
BBX 13 17 1 0
BITMAP
0700
0F80
0F80
0D80
1DC0
19C0
18C0
38E0
30E0
3060
7070
7070
6030
E038
E038
FFF8
FFF8
ENDCHAR
STARTCHAR 03A9
ENCODING 937
SWIDTH 600 0
DWIDTH 15 0
BBX 15 17 0 0
BITMAP
0FE0
3FF8
3838
701C
701C
600C
600C
600C
600C
600C
600C
600C
600C
3018
3018
FC7E
FEFE
ENDCHAR
STARTCHAR 03BC
ENCODING 956
SWIDTH 600 0
DWIDTH 15 0
BBX 12 17 2 -4
BITMAP
C0E0
C0E0
C0E0
C0E0
C0E0
C0E0
C0E0
C0E0
C0E0
E0E0
E1E0
FFF0
FE70
C000
C000
C000
C000
ENDCHAR
STARTCHAR 03C0
ENCODING 960
SWIDTH 600 0
DWIDTH 15 0
BBX 14 13 0 0
BITMAP
BFFC
7FFC
1C30
1C30
1C30
1C30
1830
1830
1830
1830
3830
3830
3038
ENDCHAR
STARTCHAR 1E24
ENCODING 7716
SWIDTH 600 0
DWIDTH 15 0
BBX 11 21 2 -4
BITMAP
C060
C060
C060
C060
C060
C060
C060
FFE0
FFE0
C060
C060
C060
C060
C060
C060
C060
C060
0000
0000
0E00
0E00
ENDCHAR
STARTCHAR 1E25
ENCODING 7717
SWIDTH 600 0
DWIDTH 15 0
BBX 11 22 2 -4
BITMAP
E000
E000
E000
E000
E000
EF80
FFC0
F1E0
E0E0
E0E0
E0E0
E0E0
E0E0
E0E0
E0E0
E0E0
E0E0
E0E0
0000
0000
0E00
0E00
ENDCHAR
STARTCHAR 1E62
ENCODING 7778
SWIDTH 600 0
DWIDTH 15 0
BBX 13 21 1 -4
BITMAP
1FC0
7FF0
7070
E038
E038
7000
7C00
3F80
0FE0
01F0
0078
0038
C038
E038
F078
7FF0
1FC0
0000
0000
0700
0700
ENDCHAR
STARTCHAR 1E63
ENCODING 7779
SWIDTH 600 0
DWIDTH 15 0
BBX 11 17 2 -4
BITMAP
1F00
7FC0
E0E0
E0E0
E000
7E00
3FC0
07E0
00E0
C060
E0E0
7FC0
3F80
0000
0000
0E00
0E00
ENDCHAR
STARTCHAR 1E6C
ENCODING 7788
SWIDTH 600 0
DWIDTH 15 0
BBX 13 21 1 -4
BITMAP
FFF8
FFF8
0700
0700
0700
0700
0700
0700
0700
0700
0700
0700
0700
0700
0700
0700
0700
0000
0000
0700
0700
ENDCHAR
STARTCHAR 1E6D
ENCODING 7789
SWIDTH 600 0
DWIDTH 15 0
BBX 12 21 1 -4
BITMAP
0400
0400
0C00
0C00
FFF0
FFF0
0C00
0C00
0C00
0C00
0C00
0C00
0C00
0C00
0E00
07F0
03F0
0000
0000
03C0
03C0
ENDCHAR
STARTCHAR 1E80
ENCODING 7808
SWIDTH 600 0
DWIDTH 15 0
BBX 15 22 0 0
BITMAP
0E00
0700
0380
0000
0000
C386
E386
E38E
638C
638C
62CC
66CC
76CC
76CC
36DC
36D8
3478
3478
3C78
3C78
3C78
1C70
ENDCHAR
STARTCHAR 1E81
ENCODING 7809
SWIDTH 600 0
DWIDTH 15 0
BBX 15 19 0 0
BITMAP
0600
0700
0300
0180
0000
0000
C386
C386
638E
63CC
66CC
66CC
76CC
3658
3478
3C78
3C78
1C78
1C30
ENDCHAR
STARTCHAR 1E82
ENCODING 7810
SWIDTH 600 0
DWIDTH 15 0
BBX 15 22 0 0
BITMAP
00E0
00C0
0180
0200
0000
C386
E386
E38E
638C
638C
62CC
66CC
76CC
76CC
36DC
36D8
3478
3478
3C78
3C78
3C78
1C70
ENDCHAR
STARTCHAR 1E83
ENCODING 7811
SWIDTH 600 0
DWIDTH 15 0
BBX 15 19 0 0
BITMAP
00E0
00C0
0180
0380
0000
0000
C386
C386
638E
63CC
66CC
66CC
76CC
3658
3478
3C78
3C78
1C78
1C30
ENDCHAR
STARTCHAR 1E84
ENCODING 7812
SWIDTH 600 0
DWIDTH 15 0
BBX 15 22 0 0
BITMAP
0C60
0C60
0C60
0000
0000
C386
E386
E38E
638C
638C
62CC
66CC
76CC
76CC
36DC
36D8
3478
3478
3C78
3C78
3C78
1C70
ENDCHAR
STARTCHAR 1E85
ENCODING 7813
SWIDTH 600 0
DWIDTH 15 0
BBX 15 18 0 0
BITMAP
0C70
0C70
0C70
0000
0000
C386
C386
638E
63CC
66CC
66CC
76CC
3658
3478
3C78
3C78
1C78
1C30
ENDCHAR
STARTCHAR 1E9E
ENCODING 7838
SWIDTH 600 0
DWIDTH 15 0
BBX 12 17 2 0
BITMAP
3FC0
7FE0
E0E0
E070
C070
C060
C0E0
C7C0
C7C0
C0E0
C070
C030
C030
C070
C070
CFE0
CF80
ENDCHAR
STARTCHAR 1EA0
ENCODING 7840
SWIDTH 600 0
DWIDTH 15 0
BBX 15 21 0 -4
BITMAP
0380
07C0
07C0
06C0
0EE0
0CE0
0C60
1C70
1C70
1830
3838
3FF8
3FF8
701C
701C
600C
E00E
0000
0000
0380
0380
ENDCHAR
STARTCHAR 1EA1
ENCODING 7841
SWIDTH 600 0
DWIDTH 15 0
BBX 12 17 2 -4
BITMAP
3F00
7FC0
E1C0
C0C0
00C0
01C0
7FC0
E0C0
C0C0
C0C0
C1C0
FFF0
7EF0
0000
0000
0E00
0E00
ENDCHAR
STARTCHAR 1EA2
ENCODING 7842
SWIDTH 600 0
DWIDTH 15 0
BBX 15 24 0 0
BITMAP
0380
03C0
0040
00C0
0180
0000
0000
0380
07C0
07C0
06C0
0EE0
0CE0
0C60
1C70
1C70
1830
3838
3FF8
3FF8
701C
701C
600C
E00E
ENDCHAR
STARTCHAR 1EA3
ENCODING 7843
SWIDTH 600 0
DWIDTH 15 0
BBX 12 20 2 0
BITMAP
0C00
1E00
0300
0300
0600
0400
0000
3F00
7FC0
E1C0
C0C0
00C0
01C0
7FC0
E0C0
C0C0
C0C0
C1C0
FFF0
7EF0
ENDCHAR
STARTCHAR 1EA4
ENCODING 7844
SWIDTH 600 0
DWIDTH 15 0
BBX 15 26 0 0
BITMAP
00E0
01C0
0180
0000
0380
06C0
1C70
0000
0000
0380
07C0
07C0
06C0
0EE0
0CE0
0C60
1C70
1C70
1830
3838
3FF8
3FF8
701C
701C
600C
E00E
ENDCHAR
STARTCHAR 1EA5
ENCODING 7845
SWIDTH 600 0
DWIDTH 15 0
BBX 12 23 2 0
BITMAP
0380
0300
0600
0800
0000
1E00
3B00
7180
0040
0000
3F00
7FC0
E1C0
C0C0
00C0
01C0
7FC0
E0C0
C0C0
C0C0
C1C0
FFF0
7EF0
ENDCHAR
STARTCHAR 1EA6
ENCODING 7846
SWIDTH 600 0
DWIDTH 15 0
BBX 15 26 0 0
BITMAP
0E00
0600
0300
0000
0380
06C0
1C70
0000
0000
0380
07C0
07C0
06C0
0EE0
0CE0
0C60
1C70
1C70
1830
3838
3FF8
3FF8
701C
701C
600C
E00E
ENDCHAR
STARTCHAR 1EA7
ENCODING 7847
SWIDTH 600 0
DWIDTH 15 0
BBX 12 23 2 0
BITMAP
7000
1800
0C00
0000
0000
1E00
3B00
7180
0040
0000
3F00
7FC0
E1C0
C0C0
00C0
01C0
7FC0
E0C0
C0C0
C0C0
C1C0
FFF0
7EF0
ENDCHAR
STARTCHAR 1EA8
ENCODING 7848
SWIDTH 600 0
DWIDTH 15 0
BBX 15 28 0 0
BITMAP
0100
03C0
0040
00C0
0180
0000
0380
06C0
1C70
0000
0000
0380
07C0
07C0
06C0
0EE0
0CE0
0C60
1C70
1C70
1830
3838
3FF8
3FF8
701C
701C
600C
E00E
ENDCHAR
STARTCHAR 1EA9
ENCODING 7849
SWIDTH 600 0
DWIDTH 15 0
BBX 12 24 2 0
BITMAP
0E00
1300
0300
0600
0800
0000
1E00
3B00
7180
0040
0000
3F00
7FC0
E1C0
C0C0
00C0
01C0
7FC0
E0C0
C0C0
C0C0
C1C0
FFF0
7EF0
ENDCHAR
STARTCHAR 1EAA
ENCODING 7850
SWIDTH 600 0
DWIDTH 15 0
BBX 15 26 0 0
BITMAP
0610
1FF0
11E0
0000
0380
06C0
1C70
0000
0000
0380
07C0
07C0
06C0
0EE0
0CE0
0C60
1C70
1C70
1830
3838
3FF8
3FF8
701C
701C
600C
E00E
ENDCHAR
STARTCHAR 1EAB
ENCODING 7851
SWIDTH 600 0
DWIDTH 15 0
BBX 12 22 2 0
BITMAP
3CC0
7F80
4200
0000
1E00
3B00
7180
0040
0000
3F00
7FC0
E1C0
C0C0
00C0
01C0
7FC0
E0C0
C0C0
C0C0
C1C0
FFF0
7EF0
ENDCHAR
STARTCHAR 1EAC
ENCODING 7852
SWIDTH 600 0
DWIDTH 15 0
BBX 15 26 0 -4
BITMAP
0380
06C0
1C70
0000
0000
0380
07C0
07C0
06C0
0EE0
0CE0
0C60
1C70
1C70
1830
3838
3FF8
3FF8
701C
701C
600C
E00E
0000
0000
0380
0380
ENDCHAR
STARTCHAR 1EAD
ENCODING 7853
SWIDTH 600 0
DWIDTH 15 0
BBX 12 23 2 -4
BITMAP
0E00
1E00
3B00
7180
0040
0000
3F00
7FC0
E1C0
C0C0
00C0
01C0
7FC0
E0C0
C0C0
C0C0
C1C0
FFF0
7EF0
0000
0000
0E00
0E00
ENDCHAR
STARTCHAR 1EAE
ENCODING 7854
SWIDTH 600 0
DWIDTH 15 0
BBX 15 26 0 0
BITMAP
00E0
00C0
0180
0300
1830
0FE0
07C0
0000
0000
0380
07C0
07C0
06C0
0EE0
0CE0
0C60
1C70
1C70
1830
3838
3FF8
3FF8
701C
701C
600C
E00E
ENDCHAR
STARTCHAR 1EAF
ENCODING 7855
SWIDTH 600 0
DWIDTH 15 0
BBX 12 22 2 0
BITMAP
0380
0700
0600
0C00
60C0
7F80
1F00
0000
0000
3F00
7FC0
E1C0
C0C0
00C0
01C0
7FC0
E0C0
C0C0
C0C0
C1C0
FFF0
7EF0
ENDCHAR
STARTCHAR 1EB0
ENCODING 7856
SWIDTH 600 0
DWIDTH 15 0
BBX 15 26 0 0
BITMAP
0E00
0600
0300
0180
1830
0FE0
07C0
0000
0000
0380
07C0
07C0
06C0
0EE0
0CE0
0C60
1C70
1C70
1830
3838
3FF8
3FF8
701C
701C
600C
E00E
ENDCHAR
STARTCHAR 1EB1
ENCODING 7857
SWIDTH 600 0
DWIDTH 15 0
BBX 12 22 2 0
BITMAP
3800
1800
0C00
0000
60C0
3F80
0E00
0000
0000
3F00
7FC0
E1C0
C0C0
00C0
01C0
7FC0
E0C0
C0C0
C0C0
C1C0
FFF0
7EF0
ENDCHAR
STARTCHAR 1EB2
ENCODING 7858
SWIDTH 600 0
DWIDTH 15 0
BBX 15 27 0 0
BITMAP
0380
04C0
00C0
0180
0200
1830
0FE0
07C0
0000
0000
0380
07C0
07C0
06C0
0EE0
0CE0
0C60
1C70
1C70
1830
3838
3FF8
3FF8
701C
701C
600C
E00E
ENDCHAR
STARTCHAR 1EB3
ENCODING 7859
SWIDTH 600 0
DWIDTH 15 0
BBX 12 23 2 0
BITMAP
0E00
0200
0200
0600
0000
60C0
3F80
0E00
0000
0000
3F00
7FC0
E1C0
C0C0
00C0
01C0
7FC0
E0C0
C0C0
C0C0
C1C0
FFF0
7EF0
ENDCHAR
STARTCHAR 1EB4
ENCODING 7860
SWIDTH 600 0
DWIDTH 15 0
BBX 15 26 0 0
BITMAP
0E10
1FF0
10E0
0000
1830
0FE0
07C0
0000
0000
0380
07C0
07C0
06C0
0EE0
0CE0
0C60
1C70
1C70
1830
3838
3FF8
3FF8
701C
701C
600C
E00E
ENDCHAR
STARTCHAR 1EB5
ENCODING 7861
SWIDTH 600 0
DWIDTH 15 0
BBX 12 22 2 0
BITMAP
3CC0
7F80
4200
0000
60C0
3F80
0E00
0000
0000
3F00
7FC0
E1C0
C0C0
00C0
01C0
7FC0
E0C0
C0C0
C0C0
C1C0
FFF0
7EF0
ENDCHAR
STARTCHAR 1EB6
ENCODING 7862
SWIDTH 600 0
DWIDTH 15 0
BBX 15 26 0 -4
BITMAP
1830
0FE0
07C0
0000
0000
0380
07C0
07C0
06C0
0EE0
0CE0
0C60
1C70
1C70
1830
3838
3FF8
3FF8
701C
701C
600C
E00E
0000
0000
0380
0380
ENDCHAR
STARTCHAR 1EB7
ENCODING 7863
SWIDTH 600 0
DWIDTH 15 0
BBX 12 22 2 -4
BITMAP
6180
3380
3F00
0000
0000
3F00
7FC0
E1C0
C0C0
00C0
01C0
7FC0
E0C0
C0C0
C0C0
C1C0
FFF0
7EF0
0000
0000
0E00
0E00
ENDCHAR
STARTCHAR 1EB8
ENCODING 7864
SWIDTH 600 0
DWIDTH 15 0
BBX 12 21 2 -4
BITMAP
FFE0
FFE0
E000
E000
E000
E000
E000
FFC0
FFC0
E000
E000
E000
E000
E000
E000
FFE0
FFF0
0000
0000
0700
0700
ENDCHAR
STARTCHAR 1EB9
ENCODING 7865
SWIDTH 600 0
DWIDTH 15 0
BBX 11 17 2 -4
BITMAP
1F00
7FC0
60C0
E0E0
C060
FFE0
FFE0
C000
C060
E060
E0E0
7FC0
3F80
0000
0000
0E00
0E00
ENDCHAR
STARTCHAR 1EBA
ENCODING 7866
SWIDTH 600 0
DWIDTH 15 0
BBX 12 24 2 0
BITMAP
0E00
0F00
0180
0300
0600
0000
0000
FFE0
FFE0
E000
E000
E000
E000
E000
FFC0
FFC0
E000
E000
E000
E000
E000
E000
FFE0
FFF0
ENDCHAR
STARTCHAR 1EBB
ENCODING 7867
SWIDTH 600 0
DWIDTH 15 0
BBX 11 20 2 0
BITMAP
0400
0F00
0300
0100
0700
0600
0000
1F00
7FC0
60C0
E0E0
C060
FFE0
FFE0
C000
C060
E060
E0E0
7FC0
3F80
ENDCHAR
STARTCHAR 1EBC
ENCODING 7868
SWIDTH 600 0
DWIDTH 15 0
BBX 12 22 2 0
BITMAP
1C40
3FC0
6380
0000
0000
FFE0
FFE0
E000
E000
E000
E000
E000
FFC0
FFC0
E000
E000
E000
E000
E000
E000
FFE0
FFF0
ENDCHAR
STARTCHAR 1EBD
ENCODING 7869
SWIDTH 600 0
DWIDTH 15 0
BBX 11 18 2 0
BITMAP
3C40
7FC0
6380
0000
0000
1F00
7FC0
60C0
E0E0
C060
FFE0
FFE0
C000
C060
E060
E0E0
7FC0
3F80
ENDCHAR
STARTCHAR 1EBE
ENCODING 7870
SWIDTH 600 0
DWIDTH 15 0
BBX 12 26 2 0
BITMAP
0180
0300
0600
0000
0F00
1F80
70C0
0000
0000
FFE0
FFE0
E000
E000
E000
E000
E000
FFC0
FFC0
E000
E000
E000
E000
E000
E000
FFE0
FFF0
ENDCHAR
STARTCHAR 1EBF
ENCODING 7871
SWIDTH 600 0
DWIDTH 15 0
BBX 11 23 2 0
BITMAP
01C0
0300
0600
0000
0000
0F00
1B80
31C0
4000
0000
1F00
7FC0
60C0
E0E0
C060
FFE0
FFE0
C000
C060
E060
E0E0
7FC0
3F80
ENDCHAR
STARTCHAR 1EC0
ENCODING 7872
SWIDTH 600 0
DWIDTH 15 0
BBX 12 26 2 0
BITMAP
3800
0C00
0600
0000
0F00
1F80
70C0
0000
0000
FFE0
FFE0
E000
E000
E000
E000
E000
FFC0
FFC0
E000
E000
E000
E000
E000
E000
FFE0
FFF0
ENDCHAR
STARTCHAR 1EC1
ENCODING 7873
SWIDTH 600 0
DWIDTH 15 0
BBX 11 23 2 0
BITMAP
3800
1800
0C00
0200
0000
0F00
1B80
31C0
4000
0000
1F00
7FC0
60C0
E0E0
C060
FFE0
FFE0
C000
C060
E060
E0E0
7FC0
3F80
ENDCHAR
STARTCHAR 1EC2
ENCODING 7874
SWIDTH 600 0
DWIDTH 15 0
BBX 12 28 2 0
BITMAP
0600
0F00
0100
0300
0600
0000
0F00
1F80
70C0
0000
0000
FFE0
FFE0
E000
E000
E000
E000
E000
FFC0
FFC0
E000
E000
E000
E000
E000
E000
FFE0
FFF0
ENDCHAR
STARTCHAR 1EC3
ENCODING 7875
SWIDTH 600 0
DWIDTH 15 0
BBX 11 24 2 0
BITMAP
0E00
0B00
0100
0600
0400
0000
0F00
1B80
31C0
4000
0000
1F00
7FC0
60C0
E0E0
C060
FFE0
FFE0
C000
C060
E060
E0E0
7FC0
3F80
ENDCHAR
STARTCHAR 1EC4
ENCODING 7876
SWIDTH 600 0
DWIDTH 15 0
BBX 12 26 2 0
BITMAP
1C40
3FC0
6380
0000
0F00
1F80
71C0
0000
0000
FFE0
FFE0
E000
E000
E000
E000
E000
FFC0
FFC0
E000
E000
E000
E000
E000
E000
FFE0
FFF0
ENDCHAR
STARTCHAR 1EC5
ENCODING 7877
SWIDTH 600 0
DWIDTH 15 0
BBX 11 22 2 0
BITMAP
3C40
7FC0
4100
0000
0F00
1B80
31C0
4000
0000
1F00
7FC0
60C0
E0E0
C060
FFE0
FFE0
C000
C060
E060
E0E0
7FC0
3F80
ENDCHAR
STARTCHAR 1EC6
ENCODING 7878
SWIDTH 600 0
DWIDTH 15 0
BBX 12 26 2 -4
BITMAP
0F00
1B80
31C0
0000
0000
FFE0
FFE0
E000
E000
E000
E000
E000
FFC0
FFC0
E000
E000
E000
E000
E000
E000
FFE0
FFF0
0000
0000
0700
0700
ENDCHAR
STARTCHAR 1EC7
ENCODING 7879
SWIDTH 600 0
DWIDTH 15 0
BBX 11 23 2 -4
BITMAP
0E00
1F00
1B80
3180
4040
0000
1F00
7FC0
60C0
E0E0
C060
FFE0
FFE0
C000
C060
E060
E0E0
7FC0
3F80
0000
0000
0E00
0E00
ENDCHAR
STARTCHAR 1EC8
ENCODING 7880
SWIDTH 600 0
DWIDTH 15 0
BBX 9 24 3 0
BITMAP
1C00
1E00
0200
0600
0C00
0000
0000
FF80
FF80
1C00
1C00
1C00
1C00
1C00
1C00
1C00
1C00
1C00
1C00
1C00
1C00
1C00
FF80
FF80
ENDCHAR
STARTCHAR 1EC9
ENCODING 7881
SWIDTH 600 0
DWIDTH 15 0
BBX 12 20 2 0
BITMAP
0400
0F00
0180
0180
0300
0600
0000
FE00
FE00
0600
0600
0600
0600
0600
0600
0600
0600
0600
FFF0
FFF0
ENDCHAR
STARTCHAR 1ECA
ENCODING 7882
SWIDTH 600 0
DWIDTH 15 0
BBX 9 21 3 -4
BITMAP
FF80
FF80
1C00
1C00
1C00
1C00
1C00
1C00
1C00
1C00
1C00
1C00
1C00
1C00
1C00
FF80
FF80
0000
0000
1C00
1C00
ENDCHAR
STARTCHAR 1ECB
ENCODING 7883
SWIDTH 600 0
DWIDTH 15 0
BBX 12 22 2 -4
BITMAP
0600
0600
0600
0000
0000
FE00
FE00
0600
0600
0600
0600
0600
0600
0600
0600
0600
FFF0
FFF0
0000
0000
0700
0700
ENDCHAR
STARTCHAR 1ECC
ENCODING 7884
SWIDTH 600 0
DWIDTH 15 0
BBX 13 21 1 -4
BITMAP
1FC0
3FE0
7070
E038
E038
E038
E038
E038
E038
E038
E038
E038
E038
6030
7070
3FE0
1FC0
0000
0000
0700
0700
ENDCHAR
STARTCHAR 1ECD
ENCODING 7885
SWIDTH 600 0
DWIDTH 15 0
BBX 11 17 2 -4
BITMAP
1F00
7FC0
60C0
E0E0
C060
C060
C060
C060
C060
E0E0
E0E0
7FC0
3F80
0000
0000
0E00
0E00
ENDCHAR
STARTCHAR 1ECE
ENCODING 7886
SWIDTH 600 0
DWIDTH 15 0
BBX 13 24 1 0
BITMAP
0700
0780
0080
0180
0300
0000
0000
1FC0
3FE0
7070
E038
E038
E038
E038
E038
E038
E038
E038
E038
E038
6030
7070
3FE0
1FC0
ENDCHAR
STARTCHAR 1ECF
ENCODING 7887
SWIDTH 600 0
DWIDTH 15 0
BBX 11 20 2 0
BITMAP
0400
0F00
0300
0300
0700
0400
0000
1F00
7FC0
60C0
E0E0
C060
C060
C060
C060
C060
E0E0
E0E0
7FC0
3F80
ENDCHAR
STARTCHAR 1ED0
ENCODING 7888
SWIDTH 600 0
DWIDTH 15 0
BBX 13 26 1 0
BITMAP
01C0
0380
0300
0000
0700
0D80
38E0
0000
0000
1FC0
3FE0
7070
E038
E038
E038
E038
E038
E038
E038
E038
E038
E038
6030
7070
3FE0
1FC0
ENDCHAR
STARTCHAR 1ED1
ENCODING 7889
SWIDTH 600 0
DWIDTH 15 0
BBX 11 23 2 0
BITMAP
0180
0300
0600
0000
0000
0E00
1B00
71C0
0000
0000
1F00
7FC0
60C0
E0E0
C060
C060
C060
C060
C060
E0E0
E0E0
7FC0
3F80
ENDCHAR
STARTCHAR 1ED2
ENCODING 7890
SWIDTH 600 0
DWIDTH 15 0
BBX 13 26 1 0
BITMAP
1C00
0C00
0600
0000
0700
0D80
38E0
0000
0000
1FC0
3FE0
7070
E038
E038
E038
E038
E038
E038
E038
E038
E038
E038
6030
7070
3FE0
1FC0
ENDCHAR
STARTCHAR 1ED3
ENCODING 7891
SWIDTH 600 0
DWIDTH 15 0
BBX 11 23 2 0
BITMAP
3000
1800
0C00
0000
0000
0E00
1B00
71C0
0000
0000
1F00
7FC0
60C0
E0E0
C060
C060
C060
C060
C060
E0E0
E0E0
7FC0
3F80
ENDCHAR
STARTCHAR 1ED4
ENCODING 7892
SWIDTH 600 0
DWIDTH 15 0
BBX 13 28 1 0
BITMAP
0200
0780
0080
0180
0300
0000
0700
0D80
38E0
0000
0000
1FC0
3FE0
7070
E038
E038
E038
E038
E038
E038
E038
E038
E038
E038
6030
7070
3FE0
1FC0
ENDCHAR
STARTCHAR 1ED5
ENCODING 7893
SWIDTH 600 0
DWIDTH 15 0
BBX 11 24 2 0
BITMAP
0E00
0B00
0300
0600
0400
0000
0E00
1B00
71C0
0000
0000
1F00
7FC0
60C0
E0E0
C060
C060
C060
C060
C060
E0E0
E0E0
7FC0
3F80
ENDCHAR
STARTCHAR 1ED6
ENCODING 7894
SWIDTH 600 0
DWIDTH 15 0
BBX 13 26 1 0
BITMAP
0C20
3FE0
23C0
0000
0700
0D80
38E0
0000
0000
1FC0
3FE0
7070
E038
E038
E038
E038
E038
E038
E038
E038
E038
E038
6030
7070
3FE0
1FC0
ENDCHAR
STARTCHAR 1ED7
ENCODING 7895
SWIDTH 600 0
DWIDTH 15 0
BBX 11 22 2 0
BITMAP
3CC0
7FC0
4100
0000
0E00
1B00
71C0
0000
0000
1F00
7FC0
60C0
E0E0
C060
C060
C060
C060
C060
E0E0
E0E0
7FC0
3F80
ENDCHAR
STARTCHAR 1ED8
ENCODING 7896
SWIDTH 600 0
DWIDTH 15 0
BBX 13 26 1 -4
BITMAP
0700
0D80
38E0
0000
0000
1FC0
3FE0
7070
E038
E038
E038
E038
E038
E038
E038
E038
E038
E038
6030
7070
3FE0
1FC0
0000
0000
0700
0700
ENDCHAR
STARTCHAR 1ED9
ENCODING 7897
SWIDTH 600 0
DWIDTH 15 0
BBX 11 23 2 -4
BITMAP
0E00
1B00
1B00
3180
4040
0000
1F00
7FC0
60C0
E0E0
C060
C060
C060
C060
C060
E0E0
E0E0
7FC0
3F80
0000
0000
0E00
0E00
ENDCHAR
STARTCHAR 1EDA
ENCODING 7898
SWIDTH 600 0
DWIDTH 15 0
BBX 14 22 1 0
BITMAP
01C0
0180
030C
040C
001C
1FD8
3FF0
7070
E038
E038
E038
E038
E038
E038
E038
E038
E038
E038
6030
7070
3FE0
1FC0
ENDCHAR
STARTCHAR 1EDB
ENCODING 7899
SWIDTH 600 0
DWIDTH 15 0
BBX 13 19 2 0
BITMAP
0300
0700
0600
0C00
0018
0018
1F30
7FF0
60C0
E0E0
C060
C060
C060
C060
C060
E0E0
E0E0
7FC0
3F80
ENDCHAR
STARTCHAR 1EDC
ENCODING 7900
SWIDTH 600 0
DWIDTH 15 0
BBX 14 22 1 0
BITMAP
1C00
0E00
070C
000C
001C
1FD8
3FF0
7070
E038
E038
E038
E038
E038
E038
E038
E038
E038
E038
6030
7070
3FE0
1FC0
ENDCHAR
STARTCHAR 1EDD
ENCODING 7901
SWIDTH 600 0
DWIDTH 15 0
BBX 13 19 2 0
BITMAP
3800
1800
0C00
0C00
0218
0018
1F30
7FF0
60C0
E0E0
C060
C060
C060
C060
C060
E0E0
E0E0
7FC0
3F80
ENDCHAR
STARTCHAR 1EDE
ENCODING 7902
SWIDTH 600 0
DWIDTH 15 0
BBX 14 24 1 0
BITMAP
0700
0780
0080
0180
030C
000C
001C
1FD8
3FF0
7070
E038
E038
E038
E038
E038
E038
E038
E038
E038
E038
6030
7070
3FE0
1FC0
ENDCHAR
STARTCHAR 1EDF
ENCODING 7903
SWIDTH 600 0
DWIDTH 15 0
BBX 13 20 2 0
BITMAP
0400
0F00
0300
0300
0700
0418
0018
1F30
7FF0
60C0
E0E0
C060
C060
C060
C060
C060
E0E0
E0E0
7FC0
3F80
ENDCHAR
STARTCHAR 1EE0
ENCODING 7904
SWIDTH 600 0
DWIDTH 15 0
BBX 14 22 1 0
BITMAP
1E40
1FC0
318C
000C
001C
1FF8
3FF0
7070
E038
E038
E038
E038
E038
E038
E038
E038
E038
E038
6030
7070
3FE0
1FC0
ENDCHAR
STARTCHAR 1EE1
ENCODING 7905
SWIDTH 600 0
DWIDTH 15 0
BBX 13 18 2 0
BITMAP
3CC0
3F80
6300
0018
0018
1F30
7FE0
60C0
E0E0
C060
C060
C060
C060
C060
E0E0
E0E0
7FC0
3F80
ENDCHAR
STARTCHAR 1EE2
ENCODING 7906
SWIDTH 600 0
DWIDTH 15 0
BBX 14 24 1 -4
BITMAP
000C
000C
001C
1FD8
3FF0
7070
E038
E038
E038
E038
E038
E038
E038
E038
E038
E038
6030
7070
3FE0
1FC0
0000
0000
0700
0700
ENDCHAR
STARTCHAR 1EE3
ENCODING 7907
SWIDTH 600 0
DWIDTH 15 0
BBX 13 19 2 -4
BITMAP
0018
0018
1F30
7FF0
60C0
E0E0
C060
C060
C060
C060
C060
E0E0
E0E0
7FC0
3F80
0000
0000
0E00
0E00
ENDCHAR
STARTCHAR 1EE4
ENCODING 7908
SWIDTH 600 0
DWIDTH 15 0
BBX 11 21 2 -4
BITMAP
C060
C060
C060
C060
C060
C060
C060
C060
C060
C060
C060
C060
C060
E0E0
E0E0
7FC0
3F80
0000
0000
0E00
0E00
ENDCHAR
STARTCHAR 1EE5
ENCODING 7909
SWIDTH 600 0
DWIDTH 15 0
BBX 12 17 2 -4
BITMAP
C0E0
C0E0
C0E0
C0E0
C0E0
C0E0
C0E0
C0E0
C0E0
E0E0
E1E0
7FF0
3E70
0000
0000
0E00
0E00
ENDCHAR
STARTCHAR 1EE6
ENCODING 7910
SWIDTH 600 0
DWIDTH 15 0
BBX 11 24 2 0
BITMAP
0E00
0F00
0100
0300
0600
0000
0000
C060
C060
C060
C060
C060
C060
C060
C060
C060
C060
C060
C060
C060
E0E0
E0E0
7FC0
3F80
ENDCHAR
STARTCHAR 1EE7
ENCODING 7911
SWIDTH 600 0
DWIDTH 15 0
BBX 12 20 2 0
BITMAP
0800
1E00
0300
0300
0600
0400
0000
C0E0
C0E0
C0E0
C0E0
C0E0
C0E0
C0E0
C0E0
C0E0
E0E0
E1E0
7FF0
3E70
ENDCHAR
STARTCHAR 1EE8
ENCODING 7912
SWIDTH 600 0
DWIDTH 15 0
BBX 14 22 2 0
BITMAP
0380
031C
061C
0818
0038
C070
C060
C060
C060
C060
C060
C060
C060
C060
C060
C060
C060
C060
E0E0
E0E0
7FC0
3F80
ENDCHAR
STARTCHAR 1EE9
ENCODING 7913
SWIDTH 600 0
DWIDTH 15 0
BBX 13 19 2 0
BITMAP
0300
0600
0600
0C18
0018
0038
C0F0
C0E0
C0E0
C0E0
C0E0
C0E0
C0E0
C0E0
C0E0
E0E0
E1E0
7FF0
3E70
ENDCHAR
STARTCHAR 1EEA
ENCODING 7914
SWIDTH 600 0
DWIDTH 15 0
BBX 14 22 2 0
BITMAP
3800
1C1C
0E1C
0018
0038
C070
C060
C060
C060
C060
C060
C060
C060
C060
C060
C060
C060
C060
E0E0
E0E0
7FC0
3F80
ENDCHAR
STARTCHAR 1EEB
ENCODING 7915
SWIDTH 600 0
DWIDTH 15 0
BBX 13 19 2 0
BITMAP
3800
1800
0C00
0C18
0218
0038
C0F0
C0E0
C0E0
C0E0
C0E0
C0E0
C0E0
C0E0
C0E0
E0E0
E1E0
7FF0
3E70
ENDCHAR
STARTCHAR 1EEC
ENCODING 7916
SWIDTH 600 0
DWIDTH 15 0
BBX 14 24 2 0
BITMAP
0E00
0F00
0100
031C
061C
0018
0038
C070
C060
C060
C060
C060
C060
C060
C060
C060
C060
C060
C060
C060
E0E0
E0E0
7FC0
3F80
ENDCHAR
STARTCHAR 1EED
ENCODING 7917
SWIDTH 600 0
DWIDTH 15 0
BBX 13 20 2 0
BITMAP
0800
1E00
0300
0300
0618
0418
0038
C0F0
C0E0
C0E0
C0E0
C0E0
C0E0
C0E0
C0E0
C0E0
E0E0
E1E0
7FF0
3E70
ENDCHAR
STARTCHAR 1EEE
ENCODING 7918
SWIDTH 600 0
DWIDTH 15 0
BBX 14 22 2 0
BITMAP
3CC0
7FDC
639C
0018
0038
C070
C060
C060
C060
C060
C060
C060
C060
C060
C060
C060
C060
C060
E0E0
E0E0
7FC0
3F80
ENDCHAR
STARTCHAR 1EEF
ENCODING 7919
SWIDTH 600 0
DWIDTH 15 0
BBX 13 18 2 0
BITMAP
3C80
6F80
4718
0018
0038
C0F0
C0E0
C0E0
C0E0
C0E0
C0E0
C0E0
C0E0
C0E0
E0E0
E1E0
7FF0
3E70
ENDCHAR
STARTCHAR 1EF0
ENCODING 7920
SWIDTH 600 0
DWIDTH 15 0
BBX 14 25 2 -4
BITMAP
001C
001C
0018
0038
C070
C060
C060
C060
C060
C060
C060
C060
C060
C060
C060
C060
C060
E0E0
E0E0
7FC0
3F80
0000
0000
0E00
0E00
ENDCHAR
STARTCHAR 1EF1
ENCODING 7921
SWIDTH 600 0
DWIDTH 15 0
BBX 13 20 2 -4
BITMAP
0018
0018
0038
C0F0
C0E0
C0E0
C0E0
C0E0
C0E0
C0E0
C0E0
C0E0
E0E0
E1E0
7FF0
3E70
0000
0000
0E00
0E00
ENDCHAR
STARTCHAR 1EF2
ENCODING 7922
SWIDTH 600 0
DWIDTH 15 0
BBX 15 22 0 0
BITMAP
0E00
0700
0380
0000
8002
700C
701C
3838
3838
1C70
1C70
0EE0
06E0
07C0
0380
0380
0380
0380
0380
0380
0380
0380
ENDCHAR
STARTCHAR 1EF3
ENCODING 7923
SWIDTH 600 0
DWIDTH 15 0
BBX 13 24 1 -5
BITMAP
0C00
0E00
0600
0300
0000
0000
E038
7030
7070
3060
3860
38E0
18C0
1CC0
0D80
0F80
0F80
0700
0700
0600
0600
4C00
7C00
3000
ENDCHAR
STARTCHAR 1EF4
ENCODING 7924
SWIDTH 600 0
DWIDTH 15 0
BBX 15 21 0 -4
BITMAP
F00E
701C
3838
3838
1C70
1C70
0EE0
06E0
07C0
0380
0380
0380
0380
0380
0380
0380
0380
0000
0000
0380
0380
ENDCHAR
STARTCHAR 1EF5
ENCODING 7925
SWIDTH 600 0
DWIDTH 15 0
BBX 13 18 1 -5
BITMAP
E038
7030
7070
3060
3860
38E0
18C0
1CC0
0D80
0F80
0F80
0700
0700
0600
0600
4C38
7C38
3000
ENDCHAR
STARTCHAR 1EF6
ENCODING 7926
SWIDTH 600 0
DWIDTH 15 0
BBX 15 24 0 0
BITMAP
0380
03C0
0040
00C0
0180
0000
8002
700C
701C
3838
3838
1C70
1C70
0EE0
06E0
07C0
0380
0380
0380
0380
0380
0380
0380
0380
ENDCHAR
STARTCHAR 1EF7
ENCODING 7927
SWIDTH 600 0
DWIDTH 15 0
BBX 13 25 1 -5
BITMAP
0200
0780
0180
0080
0380
0300
0000
E038
7030
7070
3060
3860
38E0
18C0
1CC0
0D80
0F80
0F80
0700
0700
0600
0600
4C00
7C00
3000
ENDCHAR
STARTCHAR 1EF8
ENCODING 7928
SWIDTH 600 0
DWIDTH 15 0
BBX 15 22 0 0
BITMAP
0F30
1FF0
18E0
0000
8002
700C
701C
3838
3838
1C70
1C70
0EE0
06E0
07C0
0380
0380
0380
0380
0380
0380
0380
0380
ENDCHAR
STARTCHAR 1EF9
ENCODING 7929
SWIDTH 600 0
DWIDTH 15 0
BBX 13 23 1 -5
BITMAP
1E20
3FE0
31C0
0000
0000
E038
7030
7070
3060
3860
38E0
18C0
1CC0
0D80
0F80
0F80
0700
0700
0600
0600
4C00
7C00
3000
ENDCHAR
STARTCHAR 2009
ENCODING 8201
SWIDTH 600 0
DWIDTH 15 0
BBX 0 0 0 0
BITMAP
ENDCHAR
STARTCHAR 2010
ENCODING 8208
SWIDTH 600 0
DWIDTH 15 0
BBX 7 2 4 6
BITMAP
FE
FE
ENDCHAR
STARTCHAR 2011
ENCODING 8209
SWIDTH 600 0
DWIDTH 15 0
BBX 7 2 4 6
BITMAP
FE
FE
ENDCHAR
STARTCHAR 2013
ENCODING 8211
SWIDTH 600 0
DWIDTH 15 0
BBX 11 2 2 6
BITMAP
FFE0
FFE0
ENDCHAR
STARTCHAR 2014
ENCODING 8212
SWIDTH 600 0
DWIDTH 15 0
BBX 15 2 0 6
BITMAP
FFFE
FFFE
ENDCHAR
STARTCHAR 2018
ENCODING 8216
SWIDTH 600 0
DWIDTH 15 0
BBX 3 7 6 10
BITMAP
60
40
C0
E0
E0
E0
E0
ENDCHAR
STARTCHAR 2019
ENCODING 8217
SWIDTH 600 0
DWIDTH 15 0
BBX 3 7 6 10
BITMAP
E0
E0
E0
60
60
40
C0
ENDCHAR
STARTCHAR 201A
ENCODING 8218
SWIDTH 600 0
DWIDTH 15 0
BBX 3 7 6 -4
BITMAP
E0
E0
E0
60
60
40
C0
ENDCHAR
STARTCHAR 201C
ENCODING 8220
SWIDTH 600 0
DWIDTH 15 0
BBX 7 7 4 10
BITMAP
66
C6
84
EE
EE
EE
EE
ENDCHAR
STARTCHAR 201D
ENCODING 8221
SWIDTH 600 0
DWIDTH 15 0
BBX 7 7 4 10
BITMAP
EE
EE
EE
42
46
C6
8C
ENDCHAR
STARTCHAR 201E
ENCODING 8222
SWIDTH 600 0
DWIDTH 15 0
BBX 7 7 4 -4
BITMAP
EE
EE
EE
42
46
C6
8C
ENDCHAR
STARTCHAR 2020
ENCODING 8224
SWIDTH 600 0
DWIDTH 15 0
BBX 11 21 2 -4
BITMAP
0E00
0600
0400
0400
E4E0
FFE0
8420
0400
0400
0400
0400
0400
0400
0400
0400
0400
0E00
0E00
0E00
0E00
0E00
ENDCHAR
STARTCHAR 2021
ENCODING 8225
SWIDTH 600 0
DWIDTH 15 0
BBX 11 21 2 -4
BITMAP
0E00
0600
0400
0400
E4E0
FFE0
8420
0400
0400
0E00
0E00
0E00
0400
0400
0400
FFE0
FFE0
0400
0400
0400
0E00
ENDCHAR
STARTCHAR 2022
ENCODING 8226
SWIDTH 600 0
DWIDTH 15 0
BBX 7 7 4 5
BITMAP
7C
FE
FE
FE
FE
FE
7C
ENDCHAR
STARTCHAR 2026
ENCODING 8230
SWIDTH 600 0
DWIDTH 15 0
BBX 13 3 1 0
BITMAP
E738
E738
E738
ENDCHAR
STARTCHAR 2030
ENCODING 8240
SWIDTH 600 0
DWIDTH 15 0
BBX 15 17 0 0
BITMAP
3C00
6600
6200
6200
6200
6600
3C00
0000
FFFE
0000
3C78
66CC
628C
628C
668C
7EFC
3C78
ENDCHAR
STARTCHAR 2032
ENCODING 8242
SWIDTH 600 0
DWIDTH 15 0
BBX 3 4 6 13
BITMAP
E0
E0
C0
C0
ENDCHAR
STARTCHAR 2033
ENCODING 8243
SWIDTH 600 0
DWIDTH 15 0
BBX 7 4 4 13
BITMAP
6E
EE
CC
CC
ENDCHAR
STARTCHAR 2039
ENCODING 8249
SWIDTH 600 0
DWIDTH 15 0
BBX 5 9 5 4
BITMAP
18
30
30
60
E0
60
70
30
18
ENDCHAR
STARTCHAR 203A
ENCODING 8250
SWIDTH 600 0
DWIDTH 15 0
BBX 5 9 5 4
BITMAP
C0
60
60
30
38
30
70
60
C0
ENDCHAR
STARTCHAR 2044
ENCODING 8260
SWIDTH 600 0
DWIDTH 15 0
BBX 15 17 0 0
BITMAP
0006
000C
0018
0030
0020
0060
00C0
0000
0000
0000
0600
0C00
0800
1000
3000
6000
C000
ENDCHAR
STARTCHAR 2052
ENCODING 8274
SWIDTH 600 0
DWIDTH 15 0
BBX 15 22 0 -4
BITMAP
000E
000C
3818
3818
3830
0030
0060
00E0
00C0
0180
0180
0300
0300
0600
0600
0C00
1C00
1838
3038
3038
6000
E000
ENDCHAR
STARTCHAR 2070
ENCODING 8304
SWIDTH 600 0
DWIDTH 15 0
BBX 7 10 4 10
BITMAP
38
64
C6
C6
C6
C6
C6
C6
7C
10
ENDCHAR
STARTCHAR 2074
ENCODING 8308
SWIDTH 600 0
DWIDTH 15 0
BBX 7 9 4 11
BITMAP
30
24
68
48
C8
88
FE
08
08
ENDCHAR
STARTCHAR 2075
ENCODING 8309
SWIDTH 600 0
DWIDTH 15 0
BBX 7 10 4 10
BITMAP
7C
7C
40
D8
FC
06
06
C6
7C
38
ENDCHAR
STARTCHAR 2076
ENCODING 8310
SWIDTH 600 0
DWIDTH 15 0
BBX 7 10 4 10
BITMAP
78
CC
C6
C0
FC
C4
C6
C6
7C
30
ENDCHAR
STARTCHAR 2077
ENCODING 8311
SWIDTH 600 0
DWIDTH 15 0
BBX 7 9 4 11
BITMAP
FE
FE
0C
08
18
30
30
20
20
ENDCHAR
STARTCHAR 2078
ENCODING 8312
SWIDTH 600 0
DWIDTH 15 0
BBX 7 10 4 10
BITMAP
38
6C
C6
44
7C
6C
C6
C6
7E
38
ENDCHAR
STARTCHAR 2079
ENCODING 8313
SWIDTH 600 0
DWIDTH 15 0
BBX 7 10 4 10
BITMAP
78
CC
84
86
CE
7E
06
C4
FC
30
ENDCHAR
STARTCHAR 207F
ENCODING 8319
SWIDTH 600 0
DWIDTH 15 0
BBX 7 8 4 9
BITMAP
FC
C6
C6
C6
C6
C6
C6
C6
ENDCHAR
STARTCHAR 2080
ENCODING 8320
SWIDTH 600 0
DWIDTH 15 0
BBX 7 10 4 -5
BITMAP
38
64
C6
C6
C6
C6
C6
C6
7C
10
ENDCHAR
STARTCHAR 2081
ENCODING 8321
SWIDTH 600 0
DWIDTH 15 0
BBX 6 9 4 -4
BITMAP
30
F0
10
10
10
10
10
10
FC
ENDCHAR
STARTCHAR 2082
ENCODING 8322
SWIDTH 600 0
DWIDTH 15 0
BBX 7 9 4 -4
BITMAP
7C
4C
C6
06
0C
18
30
60
FE
ENDCHAR
STARTCHAR 2083
ENCODING 8323
SWIDTH 600 0
DWIDTH 15 0
BBX 7 10 4 -5
BITMAP
78
EC
C6
04
3C
0C
06
C6
FC
38
ENDCHAR
STARTCHAR 2084
ENCODING 8324
SWIDTH 600 0
DWIDTH 15 0
BBX 7 9 4 -4
BITMAP
30
24
68
48
C8
88
FE
08
08
ENDCHAR
STARTCHAR 2085
ENCODING 8325
SWIDTH 600 0
DWIDTH 15 0
BBX 7 10 4 -5
BITMAP
7C
7C
40
D8
FC
06
06
C6
7C
38
ENDCHAR
STARTCHAR 2086
ENCODING 8326
SWIDTH 600 0
DWIDTH 15 0
BBX 7 10 4 -5
BITMAP
78
CC
C6
C0
FC
C4
C6
C6
7C
30
ENDCHAR
STARTCHAR 2087
ENCODING 8327
SWIDTH 600 0
DWIDTH 15 0
BBX 7 9 4 -4
BITMAP
FE
FE
0C
08
18
30
30
20
20
ENDCHAR
STARTCHAR 2088
ENCODING 8328
SWIDTH 600 0
DWIDTH 15 0
BBX 7 10 4 -5
BITMAP
38
6C
C6
44
7C
6C
C6
C6
7E
38
ENDCHAR
STARTCHAR 2089
ENCODING 8329
SWIDTH 600 0
DWIDTH 15 0
BBX 7 10 4 -5
BITMAP
78
CC
84
86
CE
7E
06
C4
FC
30
ENDCHAR
STARTCHAR 2099
ENCODING 8345
SWIDTH 600 0
DWIDTH 15 0
BBX 7 8 4 -3
BITMAP
FC
C6
C6
C6
C6
C6
C6
C6
ENDCHAR
STARTCHAR 20A1
ENCODING 8353
SWIDTH 600 0
DWIDTH 15 0
BBX 13 21 1 -2
BITMAP
00D8
0098
07F0
1FF0
3D30
7B20
7360
E260
E640
E4C0
EC80
ED80
E980
F900
7B00
7B00
3E00
3FC0
27C0
6C00
2400
ENDCHAR
STARTCHAR 20A3
ENCODING 8355
SWIDTH 600 0
DWIDTH 15 0
BBX 12 17 1 0
BITMAP
7FF0
7FF0
7000
7000
7000
7000
7000
7FE0
7FE0
7000
7000
7000
FF00
FF00
7000
7000
7000
ENDCHAR
STARTCHAR 20A4
ENCODING 8356
SWIDTH 600 0
DWIDTH 15 0
BBX 13 18 1 0
BITMAP
0100
0FE0
1FF0
1838
3838
3838
3800
FFC0
FFC0
3800
3800
FFC0
FFC0
3800
3800
3800
FFF0
FFF0
ENDCHAR
STARTCHAR 20A6
ENCODING 8358
SWIDTH 600 0
DWIDTH 15 0
BBX 15 17 0 0
BITMAP
3818
3818
3C18
3C18
3E18
FFFE
FFFE
3318
3398
3198
FFFE
FFFE
30F8
3078
3078
3038
3038
ENDCHAR
STARTCHAR 20A7
ENCODING 8359
SWIDTH 600 0
DWIDTH 15 0
BBX 15 17 1 0
BITMAP
7FE0
7FF0
6038
6038
FFFE
FFFE
6038
6078
7FF0
7FC0
6000
6000
6000
6000
6000
6000
6000
ENDCHAR
STARTCHAR 20A9
ENCODING 8361
SWIDTH 600 0
DWIDTH 15 0
BBX 15 17 0 0
BITMAP
C386
E386
E38E
638C
638C
FFFE
FFFE
76CC
76CC
36DC
FFFE
FFFE
3478
3C78
3C78
3C78
1C70
ENDCHAR
STARTCHAR 20AB
ENCODING 8363
SWIDTH 600 0
DWIDTH 15 0
BBX 13 22 1 -4
BITMAP
0070
0070
07F8
0070
0070
1F70
3FF0
70F0
6070
6070
E070
E070
E070
6070
6070
70F0
3FB0
1F30
0000
0000
7FE0
7FE0
ENDCHAR
STARTCHAR 20AC
ENCODING 8364
SWIDTH 600 0
DWIDTH 15 0
BBX 12 17 1 0
BITMAP
03F0
07F0
0F00
1C00
1800
3800
FFC0
FFC0
3000
FFC0
FFC0
3800
1C00
1C00
0F00
07F0
01F0
ENDCHAR
STARTCHAR 20AD
ENCODING 8365
SWIDTH 600 0
DWIDTH 15 0
BBX 14 17 1 0
BITMAP
6038
6070
6070
60E0
61C0
6180
6380
FFF8
FFF8
6380
6380
61C0
60E0
60E0
6070
6038
603C
ENDCHAR
STARTCHAR 20B1
ENCODING 8369
SWIDTH 600 0
DWIDTH 15 0
BBX 16 17 0 0
BITMAP
3FF0
3FF8
303C
F01F
300C
300C
F01F
303C
3FF8
3FE0
3000
3000
3000
3000
3000
3000
3000
ENDCHAR
STARTCHAR 20B2
ENCODING 8370
SWIDTH 600 0
DWIDTH 15 0
BBX 13 21 1 -2
BITMAP
0200
0200
1FC0
7FE0
7270
E238
E238
E218
E200
C200
C3F8
C3F8
C218
E218
E238
E238
7278
3FF8
1F98
0200
0200
ENDCHAR
STARTCHAR 20B5
ENCODING 8373
SWIDTH 600 0
DWIDTH 15 0
BBX 13 21 1 -2
BITMAP
0040
00C0
1FC0
3FE0
71F0
E1B0
E138
E338
E300
E200
E200
E600
E638
E438
EC38
6C30
7870
3FE0
1FC0
1000
1000
ENDCHAR
STARTCHAR 20B9
ENCODING 8377
SWIDTH 600 0
DWIDTH 15 0
BBX 14 17 1 0
BITMAP
FFFC
FFFC
01C0
00C0
FFF8
FFF8
01C0
03C0
FF80
FE00
7000
3800
1C00
0E00
0700
0380
01C0
ENDCHAR
STARTCHAR 20BA
ENCODING 8378
SWIDTH 600 0
DWIDTH 15 0
BBX 12 17 1 0
BITMAP
3000
3000
3000
3100
3700
3E00
7800
F300
F700
3E00
7800
F030
B030
3030
30F0
3FE0
3FC0
ENDCHAR
STARTCHAR 20BC
ENCODING 8380
SWIDTH 600 0
DWIDTH 15 0
BBX 13 19 1 0
BITMAP
0200
0200
1FC0
7FF0
7270
E238
C218
C218
C218
C218
C218
C218
C218
C218
C218
C218
C018
C018
C018
ENDCHAR
STARTCHAR 20BD
ENCODING 8381
SWIDTH 600 0
DWIDTH 15 0
BBX 14 17 0 0
BITMAP
3FF0
3FF8
303C
301C
300C
301C
301C
3078
FFF8
FFE0
3000
3000
FF00
FF00
3000
3000
3000
ENDCHAR
STARTCHAR 2113
ENCODING 8467
SWIDTH 600 0
DWIDTH 15 0
BBX 10 18 2 0
BITMAP
0400
1F80
3D80
38C0
30C0
30C0
30C0
30C0
30C0
3180
3700
FE00
3000
3000
3000
3000
3F00
1F00
ENDCHAR
STARTCHAR 2116
ENCODING 8470
SWIDTH 600 0
DWIDTH 15 0
BBX 13 17 1 0
BITMAP
E600
E600
E600
E600
E600
F620
F678
D6C8
D6C8
DEC8
DEC8
DEC8
CEC8
CE78
CE00
CE00
CEF8
ENDCHAR
STARTCHAR 2117
ENCODING 8471
SWIDTH 600 0
DWIDTH 15 0
BBX 15 17 0 0
BITMAP
0FE0
1010
2008
4FC4
4FE4
CC36
8C32
8C32
8FE2
8C02
8C02
4C04
4C04
4C04
2008
1010
0FE0
ENDCHAR
STARTCHAR 2122
ENCODING 8482
SWIDTH 600 0
DWIDTH 15 0
BBX 15 10 0 7
BITMAP
FF8E
338E
338E
339E
33D6
3356
3356
3356
3376
3366
ENDCHAR
STARTCHAR 2126
ENCODING 8486
SWIDTH 600 0
DWIDTH 15 0
BBX 15 17 0 0
BITMAP
0FE0
3FF8
3838
701C
701C
600C
600C
600C
600C
600C
600C
600C
600C
3018
3018
FC7E
FEFE
ENDCHAR
STARTCHAR 212E
ENCODING 8494
SWIDTH 600 0
DWIDTH 15 0
BBX 15 17 0 0
BITMAP
0FE0
3870
3018
701C
701C
F01E
F01E
F01E
FFFE
F000
F000
F000
7000
7000
300C
1C38
0FE0
ENDCHAR
STARTCHAR 2202
ENCODING 8706
SWIDTH 600 0
DWIDTH 15 0
BBX 12 17 1 0
BITMAP
0FC0
0FE0
0060
0070
0030
0030
0E30
3FB0
70F0
6070
E070
E030
E030
E070
70E0
3FE0
1F80
ENDCHAR
STARTCHAR 2205
ENCODING 8709
SWIDTH 600 0
DWIDTH 15 0
BBX 13 13 1 2
BITMAP
0210
1FF8
38F0
60F0
61F0
C398
C718
CE18
7C30
7830
7060
FFC0
4700
ENDCHAR
STARTCHAR 2206
ENCODING 8710
SWIDTH 600 0
DWIDTH 15 0
BBX 13 17 1 0
BITMAP
0700
0F80
0F80
0D80
1DC0
19C0
18C0
38E0
30E0
3060
7070
7070
6030
E038
E038
FFF8
FFF8
ENDCHAR
STARTCHAR 220F
ENCODING 8719
SWIDTH 600 0
DWIDTH 15 0
BBX 15 20 0 -2
BITMAP
FFFE
FFFE
FFFE
3838
3838
3838
3838
3838
3838
3838
3838
3838
3838
3838
3838
3838
3838
3838
3838
3838
ENDCHAR
STARTCHAR 2211
ENCODING 8721
SWIDTH 600 0
DWIDTH 15 0
BBX 13 20 1 -2
BITMAP
FFF8
FFF8
7FF8
7800
3800
1C00
0E00
0700
0780
0380
01C0
0380
0700
0E00
1C00
1800
3800
7000
FFF8
FFF8
ENDCHAR
STARTCHAR 2212
ENCODING 8722
SWIDTH 600 0
DWIDTH 15 0
BBX 13 2 1 6
BITMAP
FFF8
FFF8
ENDCHAR
STARTCHAR 2215
ENCODING 8725
SWIDTH 600 0
DWIDTH 15 0
BBX 11 17 2 0
BITMAP
0020
0040
00C0
0080
0180
0300
0200
0600
0400
0C00
1800
1000
3000
2000
6000
C000
8000
ENDCHAR
STARTCHAR 2219
ENCODING 8729
SWIDTH 600 0
DWIDTH 15 0
BBX 3 3 6 6
BITMAP
E0
E0
E0
ENDCHAR
STARTCHAR 221A
ENCODING 8730
SWIDTH 600 0
DWIDTH 15 0
BBX 13 24 1 -4
BITMAP
0018
0018
0018
0018
0030
0030
0030
0030
0060
0060
1060
7060
F060
38C0
18C0
18C0
1CC0
1CC0
0D80
0F80
0F80
0780
0700
0700
ENDCHAR
STARTCHAR 221E
ENCODING 8734
SWIDTH 600 0
DWIDTH 15 0
BBX 13 8 1 3
BITMAP
78F0
CDD8
8508
8708
8708
8508
DD98
78F0
ENDCHAR
STARTCHAR 222B
ENCODING 8747
SWIDTH 600 0
DWIDTH 15 0
BBX 5 25 5 -6
BITMAP
18
38
60
60
60
60
60
60
60
60
60
60
60
30
30
30
30
30
30
30
30
30
30
70
E0
ENDCHAR
STARTCHAR 2248
ENCODING 8776
SWIDTH 600 0
DWIDTH 15 0
BBX 15 9 0 2
BITMAP
1C02
7F8E
E3FC
80F0
0000
0802
7F06
FFFC
C0F8
ENDCHAR
STARTCHAR 2260
ENCODING 8800
SWIDTH 600 0
DWIDTH 15 0
BBX 13 13 1 0
BITMAP
0030
0060
00C0
FFF8
FFF8
0300
0300
0600
FFF8
FFF8
1800
3000
7000
ENDCHAR
STARTCHAR 2264
ENCODING 8804
SWIDTH 600 0
DWIDTH 15 0
BBX 13 13 1 0
BITMAP
0018
00F8
0FE0
7F00
F800
E000
FE00
1FC0
03F8
0078
0000
FFF8
FFF8
ENDCHAR
STARTCHAR 2265
ENCODING 8805
SWIDTH 600 0
DWIDTH 15 0
BBX 13 13 1 0
BITMAP
C000
F800
7F80
07F0
00F8
0038
01F8
1FC0
FE00
E000
0000
FFF8
FFF8
ENDCHAR
STARTCHAR 25CA
ENCODING 9674
SWIDTH 600 0
DWIDTH 15 0
BBX 11 17 2 0
BITMAP
0E00
1F00
1B00
3B80
3180
71C0
60C0
E0E0
C060
60C0
60C0
3180
3180
3B80
1B00
1F00
0E00
ENDCHAR
STARTCHAR 27E8
ENCODING 10216
SWIDTH 600 0
DWIDTH 15 0
BBX 7 16 4 -1
BITMAP
06
0C
08
18
30
60
60
C0
C0
60
30
30
18
0C
0C
06
ENDCHAR
STARTCHAR 27E9
ENCODING 10217
SWIDTH 600 0
DWIDTH 15 0
BBX 7 16 4 -1
BITMAP
C0
60
20
30
18
0C
0C
06
06
0C
18
18
30
60
60
C0
ENDCHAR
STARTCHAR FB01
ENCODING 64257
SWIDTH 600 0
DWIDTH 15 0
BBX 12 18 0 0
BITMAP
0F70
1F70
1870
1800
1800
FFF0
FFF0
1830
1830
1830
1830
1830
1830
1830
1830
1830
1830
1830
ENDCHAR
STARTCHAR FB02
ENCODING 64258
SWIDTH 600 0
DWIDTH 15 0
BBX 12 18 0 0
BITMAP
0F30
1F30
1830
1830
1830
FF30
FF30
1830
1830
1830
1830
1830
1830
1830
1830
1830
1830
1830
ENDCHAR
STARTCHAR FEFF
ENCODING 65279
SWIDTH 0 0
DWIDTH 0 0
BBX 0 0 0 0
BITMAP
ENDCHAR
ENDFONT
